M48
;GenerationSoftware,Autodesk,EAGLE,9.5.2*%
;CreationDate,2020-02-11T06:48:08Z*%
FMAT,2
ICI,OFF
METRIC,TZ,000.000
T4C0.350
T3C1.000
T2C2.600
T1C3.200
%
G90
M71
T1
X4000Y4000
X75000Y4000
X4000Y52000
X75000Y52000
T2
X63000Y40000
X43000Y20000
X63000Y20000
X76000Y20000
X56000Y20000
X23000Y20000
X16000Y40000
X76000Y40000
X23000Y40000
X36000Y40000
X43000Y40000
X56000Y40000
X36000Y20000
X3000Y40000
X3000Y20000
X16000Y20000
T3
X67000Y47000
X49500Y32500
X67000Y12500
X69500Y12500
X72000Y12500
X72000Y27000
X67000Y27000
X47000Y32500
X52000Y32500
X52000Y47000
X47000Y47000
X47000Y12500
X49500Y12500
X52000Y12500
X52000Y27000
X47000Y27000
X29500Y32500
X32000Y32500
X32000Y47000
X27000Y47000
X27000Y12500
X29500Y12500
X32000Y12500
X27000Y32500
X27000Y27000
X67000Y32500
X7000Y32500
X9500Y32500
X12000Y32500
X12000Y47000
X7000Y47000
X69500Y32500
X32000Y27000
X7000Y12500
X9500Y12500
X12000Y12500
X12000Y27000
X7000Y27000
X72000Y32500
X72000Y47000
X56490Y5520
X56490Y2980
X53950Y5520
X53950Y2980
X51410Y5520
X51410Y2980
X48870Y5520
X48870Y2980
X46330Y5520
X46330Y2980
X43790Y5520
X43790Y2980
X41250Y5520
X41250Y2980
X38710Y5520
X38710Y2980
X36170Y5520
X36170Y2980
X33630Y5520
X33630Y2980
X31090Y5520
X31090Y2980
X28550Y5520
X28550Y2980
X26010Y5520
X26010Y2980
T4
X33973Y34290
M30