%TF.GenerationSoftware,KiCad,Pcbnew,(6.0.0)*%
%TF.CreationDate,2022-05-23T19:24:34+02:00*%
%TF.ProjectId,matrix,6d617472-6978-42e6-9b69-6361645f7063,rev?*%
%TF.SameCoordinates,Original*%
%TF.FileFunction,Profile,NP*%
%FSLAX46Y46*%
G04 Gerber Fmt 4.6, Leading zero omitted, Abs format (unit mm)*
G04 Created by KiCad (PCBNEW (6.0.0)) date 2022-05-23 19:24:34*
%MOMM*%
%LPD*%
G01*
G04 APERTURE LIST*
%TA.AperFunction,Profile*%
%ADD10C,0.100000*%
%TD*%
G04 APERTURE END LIST*
D10*
X-508000000Y79375000D02*
X-508000000Y73025000D01*
X-619125000Y103505000D02*
X-612140000Y103505000D01*
X-600710000Y123825000D02*
G75*
G03*
X-599440000Y122555000I1269999J-1D01*
G01*
X-636270000Y98425000D02*
G75*
G03*
X-635000000Y99695000I1J1269999D01*
G01*
X-604520000Y103505000D02*
G75*
G03*
X-604520000Y106045000I0J1270000D01*
G01*
X-635000000Y109855000D02*
G75*
G03*
X-636270000Y111125000I-1269999J1D01*
G01*
X-635000000Y83185000D02*
X-635000000Y80645000D01*
X-608330000Y71755000D02*
G75*
G03*
X-610870000Y71755000I-1270000J0D01*
G01*
X-586740000Y106045000D02*
X-599440000Y106045000D01*
X-577850000Y123825000D02*
X-575310000Y123825000D01*
X-534670000Y121285000D02*
G75*
G03*
X-535940000Y122555000I-1269999J1D01*
G01*
X-593725000Y65405000D02*
X-586740000Y65405000D01*
X-635000000Y107315000D02*
X-635000000Y109855000D01*
X-528955000Y103505000D02*
X-528320000Y103505000D01*
X-532130000Y83185000D02*
X-532130000Y80645000D01*
X-532130000Y107315000D02*
X-532130000Y109855000D01*
X-523240000Y67945000D02*
X-510540000Y67945000D01*
X-574040000Y106045000D02*
G75*
G03*
X-574040000Y103505000I0J-1270000D01*
G01*
X-534670000Y83185000D02*
G75*
G03*
X-535940000Y84455000I-1269999J1D01*
G01*
X-593725000Y84455000D02*
X-599440000Y84455000D01*
X-632460000Y122555000D02*
X-629920000Y122555000D01*
X-579755000Y103505000D02*
X-579120000Y103505000D01*
X-585470000Y83185000D02*
X-585470000Y80645000D01*
X-528320000Y106045000D02*
X-530860000Y106045000D01*
X-582930000Y102235000D02*
X-582930000Y99695000D01*
X-548640000Y122555000D02*
X-535940000Y122555000D01*
X-637540000Y90805000D02*
X-637540000Y80645000D01*
X-535940000Y67945000D02*
G75*
G03*
X-534670000Y69215000I1J1269999D01*
G01*
X-579755000Y65405000D02*
X-579120000Y65405000D01*
X-508000000Y111125000D02*
G75*
G03*
X-509270000Y109855000I-1J-1269999D01*
G01*
X-585470000Y80645000D02*
G75*
G03*
X-582930000Y80645000I1270000J0D01*
G01*
X-612140000Y67945000D02*
G75*
G03*
X-610870000Y69215000I1J1269999D01*
G01*
X-582930000Y88265000D02*
X-582930000Y90805000D01*
X-542925000Y103505000D02*
X-535940000Y103505000D01*
X-607060000Y103505000D02*
X-605155000Y103505000D01*
X-530860000Y122555000D02*
X-528320000Y122555000D01*
X-624840000Y106045000D02*
G75*
G03*
X-624840000Y103505000I0J-1270000D01*
G01*
X-636270000Y117475000D02*
X-641350000Y117475000D01*
X-635000000Y107315000D02*
G75*
G03*
X-633730000Y106045000I1269999J-1D01*
G01*
X-581660000Y122555000D02*
X-579120000Y122555000D01*
X-534670000Y99695000D02*
G75*
G03*
X-532130000Y99695000I1270000J0D01*
G01*
X-535940000Y106045000D02*
G75*
G03*
X-534670000Y107315000I1J1269999D01*
G01*
X-534670000Y102235000D02*
G75*
G03*
X-535940000Y103505000I-1269999J1D01*
G01*
X-535940000Y106045000D02*
X-548640000Y106045000D01*
X-509270000Y107315000D02*
X-509270000Y109855000D01*
X-579120000Y86995000D02*
X-581660000Y86995000D01*
X-530860000Y84455000D02*
G75*
G03*
X-532130000Y83185000I-1J-1269999D01*
G01*
X-532130000Y69215000D02*
G75*
G03*
X-530860000Y67945000I1269999J-1D01*
G01*
X-637540000Y80645000D02*
G75*
G03*
X-636270000Y79375000I1269999J-1D01*
G01*
X-528320000Y67945000D02*
X-530860000Y67945000D01*
X-553720000Y65405000D02*
G75*
G03*
X-553720000Y67945000I0J1270000D01*
G01*
X-624840000Y67945000D02*
G75*
G03*
X-624840000Y65405000I0J-1270000D01*
G01*
X-636270000Y79375000D02*
G75*
G03*
X-635000000Y80645000I1J1269999D01*
G01*
X-528955000Y84455000D02*
X-528320000Y84455000D01*
X-534670000Y80645000D02*
G75*
G03*
X-532130000Y80645000I1270000J0D01*
G01*
X-619125000Y65405000D02*
X-612140000Y65405000D01*
X-568325000Y103505000D02*
X-574040000Y103505000D01*
X-579120000Y103505000D02*
G75*
G03*
X-579120000Y106045000I0J1270000D01*
G01*
X-582930000Y107315000D02*
G75*
G03*
X-581660000Y106045000I1269999J-1D01*
G01*
X-599440000Y122555000D02*
X-586740000Y122555000D01*
X-624840000Y86995000D02*
G75*
G03*
X-624840000Y84455000I0J-1270000D01*
G01*
X-560070000Y102235000D02*
X-560070000Y99695000D01*
X-557530000Y69215000D02*
X-557530000Y71755000D01*
X-604520000Y65405000D02*
G75*
G03*
X-604520000Y67945000I0J1270000D01*
G01*
X-581660000Y103505000D02*
G75*
G03*
X-582930000Y102235000I-1J-1269999D01*
G01*
X-626110000Y123825000D02*
G75*
G03*
X-624840000Y122555000I1269999J-1D01*
G01*
X-508000000Y64135000D02*
X-508000000Y35560000D01*
X-548640000Y106045000D02*
G75*
G03*
X-548640000Y103505000I0J-1270000D01*
G01*
X-604520000Y67945000D02*
X-607060000Y67945000D01*
X-585470000Y121285000D02*
X-585470000Y118745000D01*
X-635000000Y90805000D02*
G75*
G03*
X-636270000Y92075000I-1269999J1D01*
G01*
X-534670000Y107315000D02*
X-534670000Y109855000D01*
X-610870000Y80645000D02*
G75*
G03*
X-608330000Y80645000I1270000J0D01*
G01*
X-593725000Y103505000D02*
X-599440000Y103505000D01*
X-586740000Y65405000D02*
X-579755000Y65405000D01*
X-535940000Y86995000D02*
G75*
G03*
X-534670000Y88265000I1J1269999D01*
G01*
X-635000000Y69215000D02*
X-635000000Y71755000D01*
X-633730000Y122555000D02*
G75*
G03*
X-635000000Y121285000I-1J-1269999D01*
G01*
X-509270000Y121285000D02*
X-509270000Y118745000D01*
X-508000000Y117475000D02*
X-508000000Y111125000D01*
X-635000000Y121285000D02*
X-635000000Y118745000D01*
X-509270000Y88265000D02*
X-509270000Y90805000D01*
X-508000000Y73025000D02*
G75*
G03*
X-509270000Y71755000I-1J-1269999D01*
G01*
X-574040000Y122555000D02*
X-561340000Y122555000D01*
X-635000000Y102235000D02*
X-635000000Y99695000D01*
X-560070000Y121285000D02*
X-560070000Y118745000D01*
X-542925000Y103505000D02*
X-548640000Y103505000D01*
X-528320000Y84455000D02*
G75*
G03*
X-528320000Y86995000I0J1270000D01*
G01*
X-579755000Y84455000D02*
X-579120000Y84455000D01*
X-582930000Y71755000D02*
G75*
G03*
X-585470000Y71755000I-1270000J0D01*
G01*
X-574040000Y86995000D02*
G75*
G03*
X-574040000Y84455000I0J-1270000D01*
G01*
X-610870000Y99695000D02*
G75*
G03*
X-608330000Y99695000I1270000J0D01*
G01*
X-560070000Y99695000D02*
G75*
G03*
X-557530000Y99695000I1270000J0D01*
G01*
X-629920000Y84455000D02*
G75*
G03*
X-629920000Y86995000I0J1270000D01*
G01*
X-553720000Y67945000D02*
X-556260000Y67945000D01*
X-508000000Y64135000D02*
G75*
G03*
X-509270000Y65405000I-1269999J1D01*
G01*
X-642620000Y35560000D02*
G75*
G03*
X-640080000Y33020000I2540001J1D01*
G01*
X-509270000Y99695000D02*
G75*
G03*
X-508000000Y98425000I1269999J-1D01*
G01*
X-586740000Y86995000D02*
X-599440000Y86995000D01*
X-608330000Y88265000D02*
X-608330000Y90805000D01*
X-561340000Y67945000D02*
X-574040000Y67945000D01*
X-509270000Y118745000D02*
G75*
G03*
X-508000000Y117475000I1269999J-1D01*
G01*
X-608330000Y69215000D02*
X-608330000Y71755000D01*
X-534670000Y121285000D02*
X-534670000Y118745000D01*
X-568325000Y103505000D02*
X-561340000Y103505000D01*
X-509270000Y83185000D02*
G75*
G03*
X-510540000Y84455000I-1269999J1D01*
G01*
X-561340000Y65405000D02*
X-554355000Y65405000D01*
X-633730000Y86995000D02*
X-629920000Y86995000D01*
X-509270000Y102235000D02*
X-509270000Y99695000D01*
X-557530000Y109855000D02*
G75*
G03*
X-560070000Y109855000I-1270000J0D01*
G01*
X-560070000Y107315000D02*
X-560070000Y109855000D01*
X-557530000Y107315000D02*
G75*
G03*
X-556260000Y106045000I1269999J-1D01*
G01*
X-607060000Y84455000D02*
X-605155000Y84455000D01*
X-610870000Y88265000D02*
X-610870000Y90805000D01*
X-608330000Y109855000D02*
G75*
G03*
X-610870000Y109855000I-1270000J0D01*
G01*
X-585470000Y118745000D02*
G75*
G03*
X-582930000Y118745000I1270000J0D01*
G01*
X-549910000Y123825000D02*
G75*
G03*
X-548640000Y122555000I1269999J-1D01*
G01*
X-530860000Y122555000D02*
G75*
G03*
X-532130000Y121285000I-1J-1269999D01*
G01*
X-524510000Y123825000D02*
G75*
G03*
X-523240000Y122555000I1269999J-1D01*
G01*
X-628650000Y123825000D02*
X-626110000Y123825000D01*
X-557530000Y107315000D02*
X-557530000Y109855000D01*
X-612140000Y65405000D02*
X-605155000Y65405000D01*
X-556260000Y103505000D02*
X-554355000Y103505000D01*
X-561340000Y86995000D02*
G75*
G03*
X-560070000Y88265000I1J1269999D01*
G01*
X-532130000Y88265000D02*
G75*
G03*
X-530860000Y86995000I1269999J-1D01*
G01*
X-608330000Y69215000D02*
G75*
G03*
X-607060000Y67945000I1269999J-1D01*
G01*
X-535940000Y86995000D02*
X-548640000Y86995000D01*
X-532130000Y88265000D02*
X-532130000Y90805000D01*
X-557530000Y90805000D02*
G75*
G03*
X-560070000Y90805000I-1270000J0D01*
G01*
X-557530000Y71755000D02*
G75*
G03*
X-560070000Y71755000I-1270000J0D01*
G01*
X-556260000Y122555000D02*
G75*
G03*
X-557530000Y121285000I-1J-1269999D01*
G01*
X-552450000Y123825000D02*
X-549910000Y123825000D01*
X-582930000Y88265000D02*
G75*
G03*
X-581660000Y86995000I1269999J-1D01*
G01*
X-510540000Y106045000D02*
G75*
G03*
X-509270000Y107315000I1J1269999D01*
G01*
X-636270000Y111125000D02*
G75*
G03*
X-637540000Y109855000I-1J-1269999D01*
G01*
X-523240000Y67945000D02*
G75*
G03*
X-523240000Y65405000I0J-1270000D01*
G01*
X-560070000Y83185000D02*
X-560070000Y80645000D01*
X-579120000Y67945000D02*
X-581660000Y67945000D01*
X-523240000Y86995000D02*
G75*
G03*
X-523240000Y84455000I0J-1270000D01*
G01*
X-534670000Y102235000D02*
X-534670000Y99695000D01*
X-629920000Y65405000D02*
G75*
G03*
X-629920000Y67945000I0J1270000D01*
G01*
X-528955000Y65405000D02*
X-528320000Y65405000D01*
X-560070000Y118745000D02*
G75*
G03*
X-557530000Y118745000I1270000J0D01*
G01*
X-554355000Y103505000D02*
X-553720000Y103505000D01*
X-612140000Y106045000D02*
G75*
G03*
X-610870000Y107315000I1J1269999D01*
G01*
X-593725000Y65405000D02*
X-599440000Y65405000D01*
X-532130000Y102235000D02*
X-532130000Y99695000D01*
X-527050000Y123825000D02*
X-524510000Y123825000D01*
X-509270000Y121285000D02*
G75*
G03*
X-510540000Y122555000I-1269999J1D01*
G01*
X-535940000Y65405000D02*
X-528955000Y65405000D01*
X-510540000Y33020000D02*
G75*
G03*
X-508000000Y35560000I-1J2540001D01*
G01*
X-553720000Y86995000D02*
X-556260000Y86995000D01*
X-586740000Y86995000D02*
G75*
G03*
X-585470000Y88265000I1J1269999D01*
G01*
X-530860000Y103505000D02*
X-528955000Y103505000D01*
X-633730000Y122555000D02*
X-632460000Y122555000D01*
X-542925000Y84455000D02*
X-535940000Y84455000D01*
X-534670000Y88265000D02*
X-534670000Y90805000D01*
X-608330000Y88265000D02*
G75*
G03*
X-607060000Y86995000I1269999J-1D01*
G01*
X-561340000Y106045000D02*
X-574040000Y106045000D01*
X-528320000Y103505000D02*
G75*
G03*
X-528320000Y106045000I0J1270000D01*
G01*
X-636270000Y65405000D02*
X-629920000Y65405000D01*
X-568325000Y65405000D02*
X-574040000Y65405000D01*
X-557530000Y88265000D02*
G75*
G03*
X-556260000Y86995000I1269999J-1D01*
G01*
X-510540000Y67945000D02*
G75*
G03*
X-509270000Y69215000I1J1269999D01*
G01*
X-553720000Y122555000D02*
G75*
G03*
X-552450000Y123825000I1J1269999D01*
G01*
X-523240000Y106045000D02*
X-510540000Y106045000D01*
X-640080000Y33020000D02*
X-510540000Y33020000D01*
X-599440000Y67945000D02*
G75*
G03*
X-599440000Y65405000I0J-1270000D01*
G01*
X-612140000Y86995000D02*
G75*
G03*
X-610870000Y88265000I1J1269999D01*
G01*
X-548640000Y67945000D02*
G75*
G03*
X-548640000Y65405000I0J-1270000D01*
G01*
X-581660000Y84455000D02*
X-579755000Y84455000D01*
X-523240000Y86995000D02*
X-510540000Y86995000D01*
X-532130000Y90805000D02*
G75*
G03*
X-534670000Y90805000I-1270000J0D01*
G01*
X-633730000Y103505000D02*
G75*
G03*
X-635000000Y102235000I-1J-1269999D01*
G01*
X-528320000Y86995000D02*
X-530860000Y86995000D01*
X-561340000Y86995000D02*
X-574040000Y86995000D01*
X-534670000Y69215000D02*
X-534670000Y71755000D01*
X-532130000Y109855000D02*
G75*
G03*
X-534670000Y109855000I-1270000J0D01*
G01*
X-619125000Y103505000D02*
X-624840000Y103505000D01*
X-542925000Y65405000D02*
X-535940000Y65405000D01*
X-557530000Y88265000D02*
X-557530000Y90805000D01*
X-633730000Y103505000D02*
X-629920000Y103505000D01*
X-528320000Y122555000D02*
G75*
G03*
X-527050000Y123825000I1J1269999D01*
G01*
X-556260000Y122555000D02*
X-553720000Y122555000D01*
X-548640000Y86995000D02*
G75*
G03*
X-548640000Y84455000I0J-1270000D01*
G01*
X-523240000Y65405000D02*
X-509270000Y65405000D01*
X-610870000Y121285000D02*
G75*
G03*
X-612140000Y122555000I-1269999J1D01*
G01*
X-636270000Y92075000D02*
G75*
G03*
X-637540000Y90805000I-1J-1269999D01*
G01*
X-608330000Y102235000D02*
X-608330000Y99695000D01*
X-607060000Y103505000D02*
G75*
G03*
X-608330000Y102235000I-1J-1269999D01*
G01*
X-532130000Y71755000D02*
G75*
G03*
X-534670000Y71755000I-1270000J0D01*
G01*
X-532130000Y69215000D02*
X-532130000Y71755000D01*
X-593725000Y103505000D02*
X-586740000Y103505000D01*
X-612140000Y86995000D02*
X-624840000Y86995000D01*
X-629920000Y122555000D02*
G75*
G03*
X-628650000Y123825000I1J1269999D01*
G01*
X-523240000Y106045000D02*
G75*
G03*
X-523240000Y103505000I0J-1270000D01*
G01*
X-523240000Y122555000D02*
X-510540000Y122555000D01*
X-582930000Y107315000D02*
X-582930000Y109855000D01*
X-637540000Y109855000D02*
X-637540000Y99695000D01*
X-610870000Y83185000D02*
X-610870000Y80645000D01*
X-610870000Y83185000D02*
G75*
G03*
X-612140000Y84455000I-1269999J1D01*
G01*
X-585470000Y107315000D02*
X-585470000Y109855000D01*
X-633730000Y106045000D02*
X-629920000Y106045000D01*
X-528320000Y65405000D02*
G75*
G03*
X-528320000Y67945000I0J1270000D01*
G01*
X-635000000Y71755000D02*
G75*
G03*
X-636270000Y73025000I-1269999J1D01*
G01*
X-610870000Y102235000D02*
G75*
G03*
X-612140000Y103505000I-1269999J1D01*
G01*
X-508000000Y92075000D02*
G75*
G03*
X-509270000Y90805000I-1J-1269999D01*
G01*
X-610870000Y102235000D02*
X-610870000Y99695000D01*
X-635000000Y69215000D02*
G75*
G03*
X-633730000Y67945000I1269999J-1D01*
G01*
X-604520000Y86995000D02*
X-607060000Y86995000D01*
X-553720000Y103505000D02*
G75*
G03*
X-553720000Y106045000I0J1270000D01*
G01*
X-509270000Y80645000D02*
G75*
G03*
X-508000000Y79375000I1269999J-1D01*
G01*
X-586740000Y106045000D02*
G75*
G03*
X-585470000Y107315000I1J1269999D01*
G01*
X-604520000Y106045000D02*
X-607060000Y106045000D01*
X-556260000Y103505000D02*
G75*
G03*
X-557530000Y102235000I-1J-1269999D01*
G01*
X-560070000Y69215000D02*
X-560070000Y71755000D01*
X-542925000Y65405000D02*
X-548640000Y65405000D01*
X-532130000Y121285000D02*
X-532130000Y118745000D01*
X-535940000Y67945000D02*
X-548640000Y67945000D01*
X-568325000Y84455000D02*
X-561340000Y84455000D01*
X-557530000Y69215000D02*
G75*
G03*
X-556260000Y67945000I1269999J-1D01*
G01*
X-557530000Y102235000D02*
X-557530000Y99695000D01*
X-586740000Y67945000D02*
X-599440000Y67945000D01*
X-568325000Y84455000D02*
X-574040000Y84455000D01*
X-560070000Y121285000D02*
G75*
G03*
X-561340000Y122555000I-1269999J1D01*
G01*
X-633730000Y84455000D02*
X-629920000Y84455000D01*
X-619125000Y84455000D02*
X-612140000Y84455000D01*
X-534670000Y118745000D02*
G75*
G03*
X-532130000Y118745000I1270000J0D01*
G01*
X-605155000Y65405000D02*
X-604520000Y65405000D01*
X-607060000Y84455000D02*
G75*
G03*
X-608330000Y83185000I-1J-1269999D01*
G01*
X-610870000Y107315000D02*
X-610870000Y109855000D01*
X-530860000Y103505000D02*
G75*
G03*
X-532130000Y102235000I-1J-1269999D01*
G01*
X-530860000Y84455000D02*
X-528955000Y84455000D01*
X-532130000Y107315000D02*
G75*
G03*
X-530860000Y106045000I1269999J-1D01*
G01*
X-579120000Y122555000D02*
G75*
G03*
X-577850000Y123825000I1J1269999D01*
G01*
X-560070000Y102235000D02*
G75*
G03*
X-561340000Y103505000I-1269999J1D01*
G01*
X-581660000Y84455000D02*
G75*
G03*
X-582930000Y83185000I-1J-1269999D01*
G01*
X-582930000Y90805000D02*
G75*
G03*
X-585470000Y90805000I-1270000J0D01*
G01*
X-509270000Y69215000D02*
X-509270000Y71755000D01*
X-642620000Y116205000D02*
X-642620000Y35560000D01*
X-633730000Y67945000D02*
X-629920000Y67945000D01*
X-557530000Y121285000D02*
X-557530000Y118745000D01*
X-582930000Y69215000D02*
G75*
G03*
X-581660000Y67945000I1269999J-1D01*
G01*
X-561340000Y106045000D02*
G75*
G03*
X-560070000Y107315000I1J1269999D01*
G01*
X-585470000Y99695000D02*
G75*
G03*
X-582930000Y99695000I1270000J0D01*
G01*
X-560070000Y88265000D02*
X-560070000Y90805000D01*
X-560070000Y83185000D02*
G75*
G03*
X-561340000Y84455000I-1269999J1D01*
G01*
X-619125000Y84455000D02*
X-624840000Y84455000D01*
X-585470000Y102235000D02*
G75*
G03*
X-586740000Y103505000I-1269999J1D01*
G01*
X-629920000Y103505000D02*
G75*
G03*
X-629920000Y106045000I0J1270000D01*
G01*
X-554355000Y65405000D02*
X-553720000Y65405000D01*
X-610870000Y118745000D02*
G75*
G03*
X-608330000Y118745000I1270000J0D01*
G01*
X-635000000Y88265000D02*
X-635000000Y90805000D01*
X-581660000Y122555000D02*
G75*
G03*
X-582930000Y121285000I-1J-1269999D01*
G01*
X-612140000Y67945000D02*
X-624840000Y67945000D01*
X-605155000Y84455000D02*
X-604520000Y84455000D01*
X-579120000Y106045000D02*
X-581660000Y106045000D01*
X-556260000Y84455000D02*
G75*
G03*
X-557530000Y83185000I-1J-1269999D01*
G01*
X-586740000Y67945000D02*
G75*
G03*
X-585470000Y69215000I1J1269999D01*
G01*
X-585470000Y83185000D02*
G75*
G03*
X-586740000Y84455000I-1269999J1D01*
G01*
X-509270000Y102235000D02*
G75*
G03*
X-510540000Y103505000I-1269999J1D01*
G01*
X-582930000Y109855000D02*
G75*
G03*
X-585470000Y109855000I-1270000J0D01*
G01*
X-604520000Y122555000D02*
G75*
G03*
X-603250000Y123825000I1J1269999D01*
G01*
X-637540000Y71755000D02*
X-637540000Y66675000D01*
X-605155000Y103505000D02*
X-604520000Y103505000D01*
X-608330000Y90805000D02*
G75*
G03*
X-610870000Y90805000I-1270000J0D01*
G01*
X-585470000Y88265000D02*
X-585470000Y90805000D01*
X-582930000Y121285000D02*
X-582930000Y118745000D01*
X-582930000Y83185000D02*
X-582930000Y80645000D01*
X-582930000Y69215000D02*
X-582930000Y71755000D01*
X-608330000Y107315000D02*
X-608330000Y109855000D01*
X-610870000Y121285000D02*
X-610870000Y118745000D01*
X-637540000Y99695000D02*
G75*
G03*
X-636270000Y98425000I1269999J-1D01*
G01*
X-607060000Y122555000D02*
G75*
G03*
X-608330000Y121285000I-1J-1269999D01*
G01*
X-554355000Y84455000D02*
X-553720000Y84455000D01*
X-581660000Y103505000D02*
X-579755000Y103505000D01*
X-585470000Y102235000D02*
X-585470000Y99695000D01*
X-608330000Y121285000D02*
X-608330000Y118745000D01*
X-599440000Y106045000D02*
G75*
G03*
X-599440000Y103505000I0J-1270000D01*
G01*
X-607060000Y122555000D02*
X-604520000Y122555000D01*
X-585470000Y69215000D02*
X-585470000Y71755000D01*
X-561340000Y67945000D02*
G75*
G03*
X-560070000Y69215000I1J1269999D01*
G01*
X-557530000Y83185000D02*
X-557530000Y80645000D01*
X-509270000Y83185000D02*
X-509270000Y80645000D01*
X-603250000Y123825000D02*
X-600710000Y123825000D01*
X-553720000Y84455000D02*
G75*
G03*
X-553720000Y86995000I0J1270000D01*
G01*
X-508000000Y98425000D02*
X-508000000Y92075000D01*
X-542925000Y84455000D02*
X-548640000Y84455000D01*
X-641350000Y117475000D02*
G75*
G03*
X-642620000Y116205000I-1J-1269999D01*
G01*
X-593725000Y84455000D02*
X-586740000Y84455000D01*
X-636270000Y117475000D02*
G75*
G03*
X-635000000Y118745000I1J1269999D01*
G01*
X-624840000Y122555000D02*
X-612140000Y122555000D01*
X-579120000Y65405000D02*
G75*
G03*
X-579120000Y67945000I0J1270000D01*
G01*
X-637540000Y66675000D02*
G75*
G03*
X-636270000Y65405000I1269999J-1D01*
G01*
X-574040000Y67945000D02*
G75*
G03*
X-574040000Y65405000I0J-1270000D01*
G01*
X-608330000Y83185000D02*
X-608330000Y80645000D01*
X-534670000Y83185000D02*
X-534670000Y80645000D01*
X-608330000Y107315000D02*
G75*
G03*
X-607060000Y106045000I1269999J-1D01*
G01*
X-636270000Y73025000D02*
G75*
G03*
X-637540000Y71755000I-1J-1269999D01*
G01*
X-523240000Y84455000D02*
X-510540000Y84455000D01*
X-604520000Y84455000D02*
G75*
G03*
X-604520000Y86995000I0J1270000D01*
G01*
X-619125000Y65405000D02*
X-624840000Y65405000D01*
X-633730000Y84455000D02*
G75*
G03*
X-635000000Y83185000I-1J-1269999D01*
G01*
X-575310000Y123825000D02*
G75*
G03*
X-574040000Y122555000I1269999J-1D01*
G01*
X-510540000Y86995000D02*
G75*
G03*
X-509270000Y88265000I1J1269999D01*
G01*
X-553720000Y106045000D02*
X-556260000Y106045000D01*
X-599440000Y86995000D02*
G75*
G03*
X-599440000Y84455000I0J-1270000D01*
G01*
X-556260000Y84455000D02*
X-554355000Y84455000D01*
X-560070000Y80645000D02*
G75*
G03*
X-557530000Y80645000I1270000J0D01*
G01*
X-523240000Y103505000D02*
X-510540000Y103505000D01*
X-585470000Y121285000D02*
G75*
G03*
X-586740000Y122555000I-1269999J1D01*
G01*
X-568325000Y65405000D02*
X-561340000Y65405000D01*
X-612140000Y106045000D02*
X-624840000Y106045000D01*
X-635000000Y88265000D02*
G75*
G03*
X-633730000Y86995000I1269999J-1D01*
G01*
X-610870000Y69215000D02*
X-610870000Y71755000D01*
X-579120000Y84455000D02*
G75*
G03*
X-579120000Y86995000I0J1270000D01*
G01*
M02*
