<?xml version="1.0" standalone="no"?>
 <!DOCTYPE svg PUBLIC "-//W3C//DTD SVG 1.1//EN" 
 "http://www.w3.org/Graphics/SVG/1.1/DTD/svg11.dtd"> 
<svg
  xmlns:svg="http://www.w3.org/2000/svg"
  xmlns="http://www.w3.org/2000/svg"
  xmlns:xlink="http://www.w3.org/1999/xlink"
  version="1.1"
  width="29.700220cm" height="21.000720cm" viewBox="0 0 116930 82680">
<title>SVG Picture created as matrix-NPTH-drl_map.svg date 2022/05/23 19:23:37 </title>
  <desc>Picture generated by PCBNEW </desc>
<g style="fill:#000000; fill-opacity:1.000000;stroke:#000000; stroke-opacity:1.000000;
stroke-linecap:round; stroke-linejoin:round;"
 transform="translate(0 0) scale(1 1)">
</g>
<g style="fill:#000000; fill-opacity:0.0; 
stroke:#000000; stroke-width:0.000000; stroke-opacity:1; 
stroke-linecap:round; stroke-linejoin:round;">
</g>
<g style="fill:#000000; fill-opacity:0.0; 
stroke:#000000; stroke-width:50.240352; stroke-opacity:1; 
stroke-linecap:round; stroke-linejoin:round;">
<path d="M92281 24325
L92281 27515
" />
<path d="M36452 12202
L39961 12202
" />
<path d="M45703.950802 1993.624089 A638.051970 638.051970 0.0 0 0 46342.003274 2631.676562" />
<path d="M27838.481576 14754.673537 A638.051970 638.051970 0.0 0 0 28476.534048 14116.621064" />
<path d="M43789.793385 12202.463647 A638.052472 638.052472 0.0 0 0 43789.793385 10926.358702" />
<path d="M28476.534048 9012.201285 A638.051970 638.051970 0.0 0 0 27838.481576 8374.148813" />
<path d="M28476 22411
L28476 23687
" />
<path d="M41875.635968 28153.775456 A638.052472 638.052472 0.0 0 0 40599.531023 28153.775456" />
<path d="M52722 10926
L46342 10926
" />
<path d="M57188 1993
L58465 1993
" />
<path d="M78882.679365 3269.729034 A638.051970 638.051970 0.0 0 0 78244.626892 2631.676562" />
<path d="M49213 31344
L52722 31344
" />
<path d="M28476 10288
L28476 9012
" />
<path d="M81753 12202
L82072 12202
" />
<path d="M80158 22411
L80158 23687
" />
<path d="M80158 10288
L80158 9012
" />
<path d="M84625 30067
L91005 30067
" />
<path d="M59103.052721 10926.358702 A638.052472 638.052472 0.0 0 0 59103.052721 12202.463647" />
<path d="M78882.679365 22411.303205 A638.051970 638.051970 0.0 0 0 78244.626892 21773.250732" />
<path d="M49213 21773
L46342 21773
" />
<path d="M29752 2631
L31028 2631
" />
<path d="M56231 12202
L56550 12202
" />
<path d="M53360 22411
L53360 23687
" />
<path d="M82072 10926
L80796 10926
" />
<path d="M54636 12840
L54636 14116
" />
<path d="M71864 2631
L78244 2631
" />
<path d="M27200 18582
L27200 23687
" />
<path d="M78244.626892 30067.932873 A638.051970 638.051970 0.0 0 0 78882.679365 29429.880401" />
<path d="M56231 31344
L56550 31344
" />
<path d="M92281.781284 8374.148813 A638.051970 638.051970 0.0 0 0 91643.728812 9012.201285" />
<path d="M53360.580470 23687.408150 A638.052472 638.052472 0.0 0 0 54636.685415 23687.408150" />
<path d="M39961.478551 30067.932873 A638.051970 638.051970 0.0 0 0 40599.531023 29429.880401" />
<path d="M54636 19859
L54636 18582
" />
<path d="M74735 12202
L78244 12202
" />
<path d="M42513 12202
L43470 12202
" />
<path d="M80796 2631
L82072 2631
" />
<path d="M33580.953827 10926.358702 A638.052472 638.052472 0.0 0 0 33580.953827 12202.463647" />
<path d="M27838 5183
L25286 5183
" />
<path d="M28476.534048 10288.306230 A638.051970 638.051970 0.0 0 0 29114.586520 10926.358702" />
<path d="M55274 2631
L56550 2631
" />
<path d="M78882.679365 14116.621064 A638.052472 638.052472 0.0 0 0 80158.784309 14116.621064" />
<path d="M78244.626892 10926.358702 A638.051970 638.051970 0.0 0 0 78882.679365 10288.306230" />
<path d="M78882.679365 12840.516119 A638.051970 638.051970 0.0 0 0 78244.626892 12202.463647" />
<path d="M78244 10926
L71864 10926
" />
<path d="M91643 10288
L91643 9012
" />
<path d="M56550 20497
L55274 20497
" />
<path d="M80796.836782 21773.250732 A638.051970 638.051970 0.0 0 0 80158.784309 22411.303205" />
<path d="M80158.784309 29429.880401 A638.051970 638.051970 0.0 0 0 80796.836782 30067.932873" />
<path d="M27200.429103 23687.408150 A638.051970 638.051970 0.0 0 0 27838.481576 24325.460622" />
<path d="M82072 30067
L80796 30067
" />
<path d="M69311.892279 31344.037818 A638.052472 638.052472 0.0 0 0 69311.892279 30067.932873" />
<path d="M33580.953827 30067.932873 A638.052472 638.052472 0.0 0 0 33580.953827 31344.037818" />
<path d="M27838.481576 24325.460622 A638.051970 638.051970 0.0 0 0 28476.534048 23687.408150" />
<path d="M81753 21773
L82072 21773
" />
<path d="M78882.679365 23687.408150 A638.052472 638.052472 0.0 0 0 80158.784309 23687.408150" />
<path d="M36452 31344
L39961 31344
" />
<path d="M61974 12202
L59103 12202
" />
<path d="M56550.842832 12202.463647 A638.052472 638.052472 0.0 0 0 56550.842832 10926.358702" />
<path d="M54636.685415 10288.306230 A638.051970 638.051970 0.0 0 0 55274.737887 10926.358702" />
<path d="M46342 2631
L52722 2631
" />
<path d="M33580.953827 20497.145788 A638.052472 638.052472 0.0 0 0 33580.953827 21773.250732" />
<path d="M66121 12840
L66121 14116
" />
<path d="M67397 29429
L67397 28153
" />
<path d="M43789.793385 31344.037818 A638.052472 638.052472 0.0 0 0 43789.793385 30067.932873" />
<path d="M55274.737887 12202.463647 A638.051970 638.051970 0.0 0 0 54636.685415 12840.516119" />
<path d="M32942.901355 1993.624089 A638.051970 638.051970 0.0 0 0 33580.953827 2631.676562" />
<path d="M92281 31982
L92281 46338
" />
<path d="M71864.102169 10926.358702 A638.052472 638.052472 0.0 0 0 71864.102169 12202.463647" />
<path d="M43789 30067
L42513 30067
" />
<path d="M53360 3269
L53360 4545
" />
<path d="M28476.534048 18582.988371 A638.051970 638.051970 0.0 0 0 27838.481576 17944.935898" />
<path d="M78882 10288
L78882 9012
" />
<path d="M40599.531023 23687.408150 A638.052472 638.052472 0.0 0 0 41875.635968 23687.408150" />
<path d="M49213 12202
L46342 12202
" />
<path d="M52722 31344
L56231 31344
" />
<path d="M78244.626892 20497.145788 A638.051970 638.051970 0.0 0 0 78882.679365 19859.093315" />
<path d="M28476 29429
L28476 28153
" />
<path d="M29114.586520 2631.676562 A638.051970 638.051970 0.0 0 0 28476.534048 3269.729034" />
<path d="M91643 3269
L91643 4545
" />
<path d="M92281 5183
L92281 8374
" />
<path d="M28476 3269
L28476 4545
" />
<path d="M91643 19859
L91643 18582
" />
<path d="M92281.781284 27515.722984 A638.051970 638.051970 0.0 0 0 91643.728812 28153.775456" />
<path d="M59103 2631
L65483 2631
" />
<path d="M28476 12840
L28476 14116
" />
<path d="M66121 3269
L66121 4545
" />
<path d="M74735 12202
L71864 12202
" />
<path d="M82072.941726 21773.250732 A638.052472 638.052472 0.0 0 0 82072.941726 20497.145788" />
<path d="M56231 21773
L56550 21773
" />
<path d="M54636.685415 28153.775456 A638.052472 638.052472 0.0 0 0 53360.580470 28153.775456" />
<path d="M59103.052721 20497.145788 A638.052472 638.052472 0.0 0 0 59103.052721 21773.250732" />
<path d="M40599.531023 14116.621064 A638.052472 638.052472 0.0 0 0 41875.635968 14116.621064" />
<path d="M66121.629917 14116.621064 A638.052472 638.052472 0.0 0 0 67397.734862 14116.621064" />
<path d="M31028.743937 21773.250732 A638.052472 638.052472 0.0 0 0 31028.743937 20497.145788" />
<path d="M69311 30067
L68035 30067
" />
<path d="M92281.781284 31982.090290 A638.051970 638.051970 0.0 0 0 91643.728812 31344.037818" />
<path d="M24648.219214 46338.270918 A1276.105447 1276.105447 0.0 0 0 25924.324159 47614.375863" />
<path d="M91643.728812 14116.621064 A638.051970 638.051970 0.0 0 0 92281.781284 14754.673537" />
<path d="M52722 20497
L46342 20497
" />
<path d="M41875 19859
L41875 18582
" />
<path d="M65483 30067
L59103 30067
" />
<path d="M91643.728812 4545.833979 A638.051970 638.051970 0.0 0 0 92281.781284 5183.886451" />
<path d="M41875 29429
L41875 28153
" />
<path d="M78882 3269
L78882 4545
" />
<path d="M61974 12202
L65483 12202
" />
<path d="M91643.728812 22411.303205 A638.051970 638.051970 0.0 0 0 91005.676339 21773.250732" />
<path d="M65483 31344
L68992 31344
" />
<path d="M29114 20497
L31028 20497
" />
<path d="M91643 12840
L91643 14116
" />
<path d="M67397.734862 9012.201285 A638.052472 638.052472 0.0 0 0 66121.629917 9012.201285" />
<path d="M66121 10288
L66121 9012
" />
<path d="M67397.734862 10288.306230 A638.051970 638.051970 0.0 0 0 68035.787334 10926.358702" />
<path d="M42513 21773
L43470 21773
" />
<path d="M40599 19859
L40599 18582
" />
<path d="M41875.635968 9012.201285 A638.052472 638.052472 0.0 0 0 40599.531023 9012.201285" />
<path d="M53360.580470 4545.833979 A638.052472 638.052472 0.0 0 0 54636.685415 4545.833979" />
<path d="M71226.049696 1993.624089 A638.051970 638.051970 0.0 0 0 71864.102169 2631.676562" />
<path d="M80796.836782 2631.676562 A638.051970 638.051970 0.0 0 0 80158.784309 3269.729034" />
<path d="M83987.099143 1993.624089 A638.051970 638.051970 0.0 0 0 84625.151616 2631.676562" />
<path d="M31666 1993
L32942 1993
" />
<path d="M67397 10288
L67397 9012
" />
<path d="M39961 31344
L43470 31344
" />
<path d="M68035 12202
L68992 12202
" />
<path d="M65483.577445 20497.145788 A638.051970 638.051970 0.0 0 0 66121.629917 19859.093315" />
<path d="M80158.784309 19859.093315 A638.051970 638.051970 0.0 0 0 80796.836782 20497.145788" />
<path d="M41875.635968 29429.880401 A638.051970 638.051970 0.0 0 0 42513.688440 30067.932873" />
<path d="M78244 20497
L71864 20497
" />
<path d="M80158 19859
L80158 18582
" />
<path d="M67397.734862 18582.988371 A638.052472 638.052472 0.0 0 0 66121.629917 18582.988371" />
<path d="M67397.734862 28153.775456 A638.052472 638.052472 0.0 0 0 66121.629917 28153.775456" />
<path d="M68035.787334 2631.676562 A638.051970 638.051970 0.0 0 0 67397.734862 3269.729034" />
<path d="M69949 1993
L71226 1993
" />
<path d="M54636.685415 19859.093315 A638.051970 638.051970 0.0 0 0 55274.737887 20497.145788" />
<path d="M91005.676339 10926.358702 A638.051970 638.051970 0.0 0 0 91643.728812 10288.306230" />
<path d="M27838.481576 8374.148813 A638.051970 638.051970 0.0 0 0 27200.429103 9012.201285" />
<path d="M84625.151616 30067.932873 A638.052472 638.052472 0.0 0 0 84625.151616 31344.037818" />
<path d="M66121 22411
L66121 23687
" />
<path d="M56550 30067
L55274 30067
" />
<path d="M84625.151616 20497.145788 A638.052472 638.052472 0.0 0 0 84625.151616 21773.250732" />
<path d="M78882 12840
L78882 14116
" />
<path d="M31028.743937 31344.037818 A638.052472 638.052472 0.0 0 0 31028.743937 30067.932873" />
<path d="M81753 31344
L82072 31344
" />
<path d="M66121.629917 4545.833979 A638.052472 638.052472 0.0 0 0 67397.734862 4545.833979" />
<path d="M68992 12202
L69311 12202
" />
<path d="M39961.478551 10926.358702 A638.051970 638.051970 0.0 0 0 40599.531023 10288.306230" />
<path d="M49213 31344
L46342 31344
" />
<path d="M80158 12840
L80158 14116
" />
<path d="M82710 1993
L83987 1993
" />
<path d="M91643.728812 3269.729034 A638.051970 638.051970 0.0 0 0 91005.676339 2631.676562" />
<path d="M78244 31344
L81753 31344
" />
<path d="M91005.676339 47614.375863 A1276.105447 1276.105447 0.0 0 0 92281.781284 46338.270918" />
<path d="M69311 20497
L68035 20497
" />
<path d="M52722.527998 20497.145788 A638.051970 638.051970 0.0 0 0 53360.580470 19859.093315" />
<path d="M80796 12202
L81753 12202
" />
<path d="M29114 2631
L29752 2631
" />
<path d="M74735 21773
L78244 21773
" />
<path d="M78882 19859
L78882 18582
" />
<path d="M41875.635968 19859.093315 A638.051970 638.051970 0.0 0 0 42513.688440 20497.145788" />
<path d="M65483 10926
L59103 10926
" />
<path d="M82072.941726 12202.463647 A638.052472 638.052472 0.0 0 0 82072.941726 10926.358702" />
<path d="M27838 31344
L31028 31344
" />
<path d="M61974 31344
L59103 31344
" />
<path d="M67397.734862 19859.093315 A638.051970 638.051970 0.0 0 0 68035.787334 20497.145788" />
<path d="M91005.676339 30067.932873 A638.051970 638.051970 0.0 0 0 91643.728812 29429.880401" />
<path d="M69311.892279 2631.676562 A638.051970 638.051970 0.0 0 0 69949.944752 1993.624089" />
<path d="M84625 10926
L91005 10926
" />
<path d="M25924 47614
L91005 47614
" />
<path d="M46342.003274 30067.932873 A638.052472 638.052472 0.0 0 0 46342.003274 31344.037818" />
<path d="M39961.478551 20497.145788 A638.051970 638.051970 0.0 0 0 40599.531023 19859.093315" />
<path d="M71864.102169 30067.932873 A638.052472 638.052472 0.0 0 0 71864.102169 31344.037818" />
<path d="M55274 21773
L56231 21773
" />
<path d="M84625 20497
L91005 20497
" />
<path d="M80158.784309 18582.988371 A638.052472 638.052472 0.0 0 0 78882.679365 18582.988371" />
<path d="M29114.586520 12202.463647 A638.051970 638.051970 0.0 0 0 28476.534048 12840.516119" />
<path d="M82072 20497
L80796 20497
" />
<path d="M65483 20497
L59103 20497
" />
<path d="M78882 29429
L78882 28153
" />
<path d="M80158.784309 9012.201285 A638.052472 638.052472 0.0 0 0 78882.679365 9012.201285" />
<path d="M36452 12202
L33580 12202
" />
<path d="M74735 31344
L78244 31344
" />
<path d="M67397 19859
L67397 18582
" />
<path d="M29114 12202
L31028 12202
" />
<path d="M82072.941726 2631.676562 A638.051970 638.051970 0.0 0 0 82710.994199 1993.624089" />
<path d="M68035 2631
L69311 2631
" />
<path d="M71864.102169 20497.145788 A638.052472 638.052472 0.0 0 0 71864.102169 21773.250732" />
<path d="M84625 31344
L91643 31344
" />
<path d="M40599.531023 3269.729034 A638.051970 638.051970 0.0 0 0 39961.478551 2631.676562" />
<path d="M27838.481576 17944.935898 A638.051970 638.051970 0.0 0 0 27200.429103 18582.988371" />
<path d="M41875 12840
L41875 14116
" />
<path d="M42513.688440 12202.463647 A638.051970 638.051970 0.0 0 0 41875.635968 12840.516119" />
<path d="M80158.784309 28153.775456 A638.052472 638.052472 0.0 0 0 78882.679365 28153.775456" />
<path d="M80158 29429
L80158 28153
" />
<path d="M49213 12202
L52722 12202
" />
<path d="M39961 20497
L33580 20497
" />
<path d="M31028.743937 2631.676562 A638.051970 638.051970 0.0 0 0 31666.796410 1993.624089" />
<path d="M84625.151616 10926.358702 A638.052472 638.052472 0.0 0 0 84625.151616 12202.463647" />
<path d="M84625 2631
L91005 2631
" />
<path d="M54636 10288
L54636 9012
" />
<path d="M27200 9012
L27200 14116
" />
<path d="M40599 22411
L40599 23687
" />
<path d="M40599.531023 22411.303205 A638.051970 638.051970 0.0 0 0 39961.478551 21773.250732" />
<path d="M53360 10288
L53360 9012
" />
<path d="M29114 10926
L31028 10926
" />
<path d="M82072.941726 31344.037818 A638.052472 638.052472 0.0 0 0 82072.941726 30067.932873" />
<path d="M28476.534048 28153.775456 A638.051970 638.051970 0.0 0 0 27838.481576 27515.722984" />
<path d="M40599.531023 12840.516119 A638.051970 638.051970 0.0 0 0 39961.478551 12202.463647" />
<path d="M92281.781284 17944.935898 A638.051970 638.051970 0.0 0 0 91643.728812 18582.988371" />
<path d="M40599 12840
L40599 14116
" />
<path d="M28476.534048 29429.880401 A638.051970 638.051970 0.0 0 0 29114.586520 30067.932873" />
<path d="M43789 20497
L42513 20497
" />
<path d="M69311.892279 12202.463647 A638.052472 638.052472 0.0 0 0 69311.892279 10926.358702" />
<path d="M91643.728812 23687.408150 A638.051970 638.051970 0.0 0 0 92281.781284 24325.460622" />
<path d="M52722.527998 10926.358702 A638.051970 638.051970 0.0 0 0 53360.580470 10288.306230" />
<path d="M43789 10926
L42513 10926
" />
<path d="M68035.787334 12202.463647 A638.051970 638.051970 0.0 0 0 67397.734862 12840.516119" />
<path d="M66121 29429
L66121 28153
" />
<path d="M74735 31344
L71864 31344
" />
<path d="M80158 3269
L80158 4545
" />
<path d="M78244 30067
L71864 30067
" />
<path d="M61974 21773
L65483 21773
" />
<path d="M67397.734862 29429.880401 A638.051970 638.051970 0.0 0 0 68035.787334 30067.932873" />
<path d="M67397 12840
L67397 14116
" />
<path d="M52722 30067
L46342 30067
" />
<path d="M61974 21773
L59103 21773
" />
<path d="M66121.629917 3269.729034 A638.051970 638.051970 0.0 0 0 65483.577445 2631.676562" />
<path d="M29114 21773
L31028 21773
" />
<path d="M36452 21773
L39961 21773
" />
<path d="M78882.679365 4545.833979 A638.052472 638.052472 0.0 0 0 80158.784309 4545.833979" />
<path d="M43470 31344
L43789 31344
" />
<path d="M42513.688440 21773.250732 A638.051970 638.051970 0.0 0 0 41875.635968 22411.303205" />
<path d="M40599 10288
L40599 9012
" />
<path d="M80796.836782 12202.463647 A638.051970 638.051970 0.0 0 0 80158.784309 12840.516119" />
<path d="M80796 21773
L81753 21773
" />
<path d="M80158.784309 10288.306230 A638.051970 638.051970 0.0 0 0 80796.836782 10926.358702" />
<path d="M56550.842832 2631.676562 A638.051970 638.051970 0.0 0 0 57188.895304 1993.624089" />
<path d="M66121.629917 12840.516119 A638.051970 638.051970 0.0 0 0 65483.577445 12202.463647" />
<path d="M55274.737887 21773.250732 A638.051970 638.051970 0.0 0 0 54636.685415 22411.303205" />
<path d="M54636.685415 18582.988371 A638.052472 638.052472 0.0 0 0 53360.580470 18582.988371" />
<path d="M91643 29429
L91643 28153
" />
<path d="M24648 5821
L24648 46338
" />
<path d="M29114 30067
L31028 30067
" />
<path d="M67397 3269
L67397 4545
" />
<path d="M54636.685415 29429.880401 A638.051970 638.051970 0.0 0 0 55274.737887 30067.932873" />
<path d="M65483.577445 10926.358702 A638.051970 638.051970 0.0 0 0 66121.629917 10288.306230" />
<path d="M53360.580470 14116.621064 A638.052472 638.052472 0.0 0 0 54636.685415 14116.621064" />
<path d="M66121 19859
L66121 18582
" />
<path d="M66121.629917 22411.303205 A638.051970 638.051970 0.0 0 0 65483.577445 21773.250732" />
<path d="M36452 21773
L33580 21773
" />
<path d="M53360.580470 12840.516119 A638.051970 638.051970 0.0 0 0 52722.527998 12202.463647" />
<path d="M31028.743937 12202.463647 A638.052472 638.052472 0.0 0 0 31028.743937 10926.358702" />
<path d="M68992 31344
L69311 31344
" />
<path d="M40599.531023 4545.833979 A638.052472 638.052472 0.0 0 0 41875.635968 4545.833979" />
<path d="M28476 19859
L28476 18582
" />
<path d="M55274.737887 2631.676562 A638.051970 638.051970 0.0 0 0 54636.685415 3269.729034" />
<path d="M39961 30067
L33580 30067
" />
<path d="M43470 21773
L43789 21773
" />
<path d="M56550 10926
L55274 10926
" />
<path d="M68035.787334 21773.250732 A638.051970 638.051970 0.0 0 0 67397.734862 22411.303205" />
<path d="M52722.527998 30067.932873 A638.051970 638.051970 0.0 0 0 53360.580470 29429.880401" />
<path d="M53360.580470 22411.303205 A638.051970 638.051970 0.0 0 0 52722.527998 21773.250732" />
<path d="M91643.728812 12840.516119 A638.051970 638.051970 0.0 0 0 91005.676339 12202.463647" />
<path d="M54636.685415 9012.201285 A638.052472 638.052472 0.0 0 0 53360.580470 9012.201285" />
<path d="M43789.793385 2631.676562 A638.051970 638.051970 0.0 0 0 44427.845857 1993.624089" />
<path d="M27200 28153
L27200 30705
" />
<path d="M43470 12202
L43789 12202
" />
<path d="M41875.635968 18582.988371 A638.052472 638.052472 0.0 0 0 40599.531023 18582.988371" />
<path d="M53360 19859
L53360 18582
" />
<path d="M54636 3269
L54636 4545
" />
<path d="M54636 22411
L54636 23687
" />
<path d="M54636 29429
L54636 28153
" />
<path d="M41875 10288
L41875 9012
" />
<path d="M40599 3269
L40599 4545
" />
<path d="M27200.429103 14116.621064 A638.051970 638.051970 0.0 0 0 27838.481576 14754.673537" />
<path d="M42513.688440 2631.676562 A638.051970 638.051970 0.0 0 0 41875.635968 3269.729034" />
<path d="M68992 21773
L69311 21773
" />
<path d="M55274 12202
L56231 12202
" />
<path d="M53360 12840
L53360 14116
" />
<path d="M41875 3269
L41875 4545
" />
<path d="M46342.003274 10926.358702 A638.052472 638.052472 0.0 0 0 46342.003274 12202.463647" />
<path d="M42513 2631
L43789 2631
" />
<path d="M53360 29429
L53360 28153
" />
<path d="M65483.577445 30067.932873 A638.051970 638.051970 0.0 0 0 66121.629917 29429.880401" />
<path d="M67397 22411
L67397 23687
" />
<path d="M91643 22411
L91643 23687
" />
<path d="M44427 1993
L45703 1993
" />
<path d="M69311.892279 21773.250732 A638.052472 638.052472 0.0 0 0 69311.892279 20497.145788" />
<path d="M92281 14754
L92281 17944
" />
<path d="M74735 21773
L71864 21773
" />
<path d="M25286.271686 5183.886451 A638.051970 638.051970 0.0 0 0 24648.219214 5821.938923" />
<path d="M49213 21773
L52722 21773
" />
<path d="M27838.481576 5183.886451 A638.051970 638.051970 0.0 0 0 28476.534048 4545.833979" />
<path d="M33580 2631
L39961 2631
" />
<path d="M56550.842832 31344.037818 A638.052472 638.052472 0.0 0 0 56550.842832 30067.932873" />
<path d="M27200.429103 30705.985346 A638.051970 638.051970 0.0 0 0 27838.481576 31344.037818" />
<path d="M59103.052721 30067.932873 A638.052472 638.052472 0.0 0 0 59103.052721 31344.037818" />
<path d="M41875 22411
L41875 23687
" />
<path d="M78882 22411
L78882 23687
" />
<path d="M41875.635968 10288.306230 A638.051970 638.051970 0.0 0 0 42513.688440 10926.358702" />
<path d="M27838.481576 27515.722984 A638.051970 638.051970 0.0 0 0 27200.429103 28153.775456" />
<path d="M84625 21773
L91005 21773
" />
<path d="M43789.793385 21773.250732 A638.052472 638.052472 0.0 0 0 43789.793385 20497.145788" />
<path d="M36452 31344
L33580 31344
" />
<path d="M29114.586520 21773.250732 A638.051970 638.051970 0.0 0 0 28476.534048 22411.303205" />
<path d="M58465.000249 1993.624089 A638.051970 638.051970 0.0 0 0 59103.052721 2631.676562" />
<path d="M91005.676339 20497.145788 A638.051970 638.051970 0.0 0 0 91643.728812 19859.093315" />
<path d="M69311 10926
L68035 10926
" />
<path d="M46342.003274 20497.145788 A638.052472 638.052472 0.0 0 0 46342.003274 21773.250732" />
<path d="M68035 21773
L68992 21773
" />
<path d="M66121.629917 23687.408150 A638.052472 638.052472 0.0 0 0 67397.734862 23687.408150" />
<path d="M84625 12202
L91005 12202
" />
<path d="M53360.580470 3269.729034 A638.051970 638.051970 0.0 0 0 52722.527998 2631.676562" />
<path d="M61974 31344
L65483 31344
" />
<path d="M39961 10926
L33580 10926
" />
<path d="M28476.534048 19859.093315 A638.051970 638.051970 0.0 0 0 29114.586520 20497.145788" />
<path d="M40599 29429
L40599 28153
" />
<path d="M56550.842832 21773.250732 A638.052472 638.052472 0.0 0 0 56550.842832 20497.145788" />
</g>
<g style="fill:#000000; fill-opacity:0.0; 
stroke:#000000; stroke-width:100.480704; stroke-opacity:1; 
stroke-linecap:round; stroke-linejoin:round;">
</g>
<g style="fill:#000000; fill-opacity:0.0; 
stroke:#000000; stroke-width:78.740197; stroke-opacity:1; 
stroke-linecap:round; stroke-linejoin:round;">
<text x="25410.500503" y="48899.338182"
textLength="5853.017605" font-size="1049.868620" lengthAdjust="spacingAndGlyphs"
text-anchor="start" opacity="0">Drill Map:</text>
<g class="stroked-text"><desc>Drill Map:</desc>
<path d="M25637 48861
L25637 48074
L25824 48074
L25937 48111
L26012 48186
L26049 48261
L26087 48411
L26087 48524
L26049 48674
L26012 48749
L25937 48824
L25824 48861
L25637 48861
" />
<path d="M26424 48861
L26424 48336
" />
<path d="M26424 48486
L26462 48411
L26499 48374
L26574 48336
L26649 48336
" />
<path d="M26912 48861
L26912 48336
" />
<path d="M26912 48074
L26874 48111
L26912 48149
L26949 48111
L26912 48074
L26912 48149
" />
<path d="M27399 48861
L27324 48824
L27287 48749
L27287 48074
" />
<path d="M27812 48861
L27737 48824
L27699 48749
L27699 48074
" />
<path d="M28711 48861
L28711 48074
L28974 48636
L29236 48074
L29236 48861
" />
<path d="M29949 48861
L29949 48449
L29911 48374
L29836 48336
L29686 48336
L29611 48374
" />
<path d="M29949 48824
L29874 48861
L29686 48861
L29611 48824
L29574 48749
L29574 48674
L29611 48599
L29686 48561
L29874 48561
L29949 48524
" />
<path d="M30324 48336
L30324 49124
" />
<path d="M30324 48374
L30399 48336
L30549 48336
L30624 48374
L30661 48411
L30699 48486
L30699 48711
L30661 48786
L30624 48824
L30549 48861
L30399 48861
L30324 48824
" />
<path d="M31036 48786
L31074 48824
L31036 48861
L30999 48824
L31036 48786
L31036 48861
" />
<path d="M31036 48374
L31074 48411
L31036 48449
L30999 48411
L31036 48374
L31036 48449
" />
</g></g> 
</svg>
