%TF.GenerationSoftware,KiCad,Pcbnew,(6.0.0)*%
%TF.CreationDate,2022-05-23T19:24:34+02:00*%
%TF.ProjectId,matrix,6d617472-6978-42e6-9b69-6361645f7063,rev?*%
%TF.SameCoordinates,Original*%
%TF.FileFunction,Paste,Bot*%
%TF.FilePolarity,Positive*%
%FSLAX46Y46*%
G04 Gerber Fmt 4.6, Leading zero omitted, Abs format (unit mm)*
G04 Created by KiCad (PCBNEW (6.0.0)) date 2022-05-23 19:24:34*
%MOMM*%
%LPD*%
G01*
G04 APERTURE LIST*
G04 Aperture macros list*
%AMRoundRect*
0 Rectangle with rounded corners*
0 $1 Rounding radius*
0 $2 $3 $4 $5 $6 $7 $8 $9 X,Y pos of 4 corners*
0 Add a 4 corners polygon primitive as box body*
4,1,4,$2,$3,$4,$5,$6,$7,$8,$9,$2,$3,0*
0 Add four circle primitives for the rounded corners*
1,1,$1+$1,$2,$3*
1,1,$1+$1,$4,$5*
1,1,$1+$1,$6,$7*
1,1,$1+$1,$8,$9*
0 Add four rect primitives between the rounded corners*
20,1,$1+$1,$2,$3,$4,$5,0*
20,1,$1+$1,$4,$5,$6,$7,0*
20,1,$1+$1,$6,$7,$8,$9,0*
20,1,$1+$1,$8,$9,$2,$3,0*%
G04 Aperture macros list end*
%ADD10RoundRect,0.250000X-0.375000X-0.625000X0.375000X-0.625000X0.375000X0.625000X-0.375000X0.625000X0*%
%ADD11RoundRect,0.250000X0.375000X0.625000X-0.375000X0.625000X-0.375000X-0.625000X0.375000X-0.625000X0*%
G04 APERTURE END LIST*
D10*
%TO.C,ENC4*%
X-602294000Y116820000D03*
X-599494000Y111820000D03*
D11*
X-594494000Y111820000D03*
D10*
X-599494000Y116820000D03*
D11*
X-591694000Y111820000D03*
D10*
X-602294000Y111820000D03*
%TD*%
%TO.C,ENC10*%
X-551494000Y116820000D03*
X-548694000Y116820000D03*
X-548694000Y111820000D03*
D11*
X-543694000Y111820000D03*
D10*
X-551494000Y111820000D03*
D11*
X-540894000Y111820000D03*
%TD*%
D10*
%TO.C,ENC7*%
X-576894000Y116820000D03*
D11*
X-569094000Y111820000D03*
D10*
X-574094000Y111820000D03*
X-574094000Y116820000D03*
D11*
X-566294000Y111820000D03*
D10*
X-576894000Y111820000D03*
%TD*%
%TO.C,ENC1*%
X-627694000Y116820000D03*
X-624894000Y111820000D03*
D11*
X-619894000Y111820000D03*
D10*
X-624894000Y116820000D03*
X-627694000Y111820000D03*
D11*
X-617094000Y111820000D03*
%TD*%
D10*
%TO.C,ENC15*%
X-526094000Y78720000D03*
D11*
X-518294000Y73720000D03*
D10*
X-523294000Y73720000D03*
X-523294000Y78720000D03*
X-526094000Y73720000D03*
D11*
X-515494000Y73720000D03*
%TD*%
D10*
%TO.C,ENC8*%
X-576894000Y97770000D03*
D11*
X-569094000Y92770000D03*
D10*
X-574094000Y97770000D03*
X-574094000Y92770000D03*
D11*
X-566294000Y92770000D03*
D10*
X-576894000Y92770000D03*
%TD*%
%TO.C,ENC6*%
X-602294000Y78720000D03*
D11*
X-594494000Y73720000D03*
D10*
X-599494000Y73720000D03*
X-599494000Y78720000D03*
D11*
X-591694000Y73720000D03*
D10*
X-602294000Y73720000D03*
%TD*%
%TO.C,ENC14*%
X-526094000Y97770000D03*
X-523294000Y97770000D03*
X-523294000Y92770000D03*
D11*
X-518294000Y92770000D03*
D10*
X-526094000Y92770000D03*
D11*
X-515494000Y92770000D03*
%TD*%
D10*
%TO.C,ENC5*%
X-602294000Y97770000D03*
D11*
X-594494000Y92770000D03*
D10*
X-599494000Y92770000D03*
X-599494000Y97770000D03*
X-602294000Y92770000D03*
D11*
X-591694000Y92770000D03*
%TD*%
D10*
%TO.C,ENC13*%
X-526094000Y116839990D03*
X-523294000Y116839990D03*
D11*
X-518294000Y111839990D03*
D10*
X-523294000Y111839990D03*
X-526094000Y111839990D03*
D11*
X-515494000Y111839990D03*
%TD*%
D10*
%TO.C,ENC9*%
X-576894000Y78720000D03*
X-574094000Y73720000D03*
X-574094000Y78720000D03*
D11*
X-569094000Y73720000D03*
X-566294000Y73720000D03*
D10*
X-576894000Y73720000D03*
%TD*%
%TO.C,ENC12*%
X-551494000Y78720000D03*
D11*
X-543694000Y73720000D03*
D10*
X-548694000Y73720000D03*
X-548694000Y78720000D03*
X-551494000Y73720000D03*
D11*
X-540894000Y73720000D03*
%TD*%
D10*
%TO.C,ENC11*%
X-551494000Y97770000D03*
X-548694000Y92770000D03*
X-548694000Y97770000D03*
D11*
X-543694000Y92770000D03*
X-540894000Y92770000D03*
D10*
X-551494000Y92770000D03*
%TD*%
%TO.C,ENC2*%
X-627694000Y97770000D03*
X-624894000Y97770000D03*
D11*
X-619894000Y92770000D03*
D10*
X-624894000Y92770000D03*
D11*
X-617094000Y92770000D03*
D10*
X-627694000Y92770000D03*
%TD*%
%TO.C,ENC3*%
X-627694000Y78720000D03*
D11*
X-619894000Y73720000D03*
D10*
X-624894000Y78720000D03*
X-624894000Y73720000D03*
X-627694000Y73720000D03*
D11*
X-617094000Y73720000D03*
%TD*%
M02*
