%TF.GenerationSoftware,KiCad,Pcbnew,(6.0.0)*%
%TF.CreationDate,2022-05-23T19:24:34+02:00*%
%TF.ProjectId,matrix,6d617472-6978-42e6-9b69-6361645f7063,rev?*%
%TF.SameCoordinates,Original*%
%TF.FileFunction,Legend,Top*%
%TF.FilePolarity,Positive*%
%FSLAX46Y46*%
G04 Gerber Fmt 4.6, Leading zero omitted, Abs format (unit mm)*
G04 Created by KiCad (PCBNEW (6.0.0)) date 2022-05-23 19:24:34*
%MOMM*%
%LPD*%
G01*
G04 APERTURE LIST*
%ADD10C,0.150000*%
%ADD11C,0.254000*%
%ADD12C,0.203200*%
%ADD13C,0.120000*%
%ADD14C,2.000000*%
%ADD15R,3.200000X2.000000*%
%ADD16C,1.700000*%
%ADD17O,1.700000X1.700000*%
%ADD18C,5.600000*%
%ADD19C,3.600000*%
%ADD20R,1.600000X1.600000*%
%ADD21C,1.600000*%
G04 APERTURE END LIST*
D10*
X-563245000Y49530000D02*
X-565150000Y48260000D01*
D11*
X-561340000Y48260000D02*
X-565150000Y48260000D01*
X-590550000Y48895000D02*
X-588645000Y47625000D01*
X-565150000Y48260000D02*
X-563245000Y46990000D01*
D10*
X-582930000Y57150000D02*
X-582930000Y39370000D01*
D11*
X-565150000Y48260000D02*
X-563245000Y49530000D01*
X-590550000Y48895000D02*
X-588645000Y50165000D01*
X-586740000Y48895000D02*
X-590550000Y48895000D01*
D10*
X-588645000Y50165000D02*
X-590550000Y48895000D01*
D11*
X-524993809Y60803064D02*
X-524570476Y60803064D01*
X-524389047Y60137826D02*
X-524993809Y60137826D01*
X-524993809Y61407826D01*
X-524389047Y61407826D01*
X-523844761Y60984492D02*
X-523844761Y60137826D01*
X-523844761Y60863540D02*
X-523784285Y60924016D01*
X-523663333Y60984492D01*
X-523481904Y60984492D01*
X-523360952Y60924016D01*
X-523300476Y60803064D01*
X-523300476Y60137826D01*
X-522151428Y60198302D02*
X-522272380Y60137826D01*
X-522514285Y60137826D01*
X-522635238Y60198302D01*
X-522695714Y60258778D01*
X-522756190Y60379730D01*
X-522756190Y60742588D01*
X-522695714Y60863540D01*
X-522635238Y60924016D01*
X-522514285Y60984492D01*
X-522272380Y60984492D01*
X-522151428Y60924016D01*
X-521425714Y60137826D02*
X-521546666Y60198302D01*
X-521607142Y60258778D01*
X-521667619Y60379730D01*
X-521667619Y60742588D01*
X-521607142Y60863540D01*
X-521546666Y60924016D01*
X-521425714Y60984492D01*
X-521244285Y60984492D01*
X-521123333Y60924016D01*
X-521062857Y60863540D01*
X-521002380Y60742588D01*
X-521002380Y60379730D01*
X-521062857Y60258778D01*
X-521123333Y60198302D01*
X-521244285Y60137826D01*
X-521425714Y60137826D01*
X-519913809Y60137826D02*
X-519913809Y61407826D01*
X-519913809Y60198302D02*
X-520034761Y60137826D01*
X-520276666Y60137826D01*
X-520397619Y60198302D01*
X-520458095Y60258778D01*
X-520518571Y60379730D01*
X-520518571Y60742588D01*
X-520458095Y60863540D01*
X-520397619Y60924016D01*
X-520276666Y60984492D01*
X-520034761Y60984492D01*
X-519913809Y60924016D01*
X-518825238Y60198302D02*
X-518946190Y60137826D01*
X-519188095Y60137826D01*
X-519309047Y60198302D01*
X-519369523Y60319254D01*
X-519369523Y60803064D01*
X-519309047Y60924016D01*
X-519188095Y60984492D01*
X-518946190Y60984492D01*
X-518825238Y60924016D01*
X-518764761Y60803064D01*
X-518764761Y60682111D01*
X-519369523Y60561159D01*
X-518220476Y60137826D02*
X-518220476Y60984492D01*
X-518220476Y60742588D02*
X-518160000Y60863540D01*
X-518099523Y60924016D01*
X-517978571Y60984492D01*
X-517857619Y60984492D01*
X-516466666Y60137826D02*
X-516466666Y61407826D01*
X-516043333Y60500683D01*
X-515620000Y61407826D01*
X-515620000Y60137826D01*
X-514470952Y60137826D02*
X-514470952Y60803064D01*
X-514531428Y60924016D01*
X-514652380Y60984492D01*
X-514894285Y60984492D01*
X-515015238Y60924016D01*
X-514470952Y60198302D02*
X-514591904Y60137826D01*
X-514894285Y60137826D01*
X-515015238Y60198302D01*
X-515075714Y60319254D01*
X-515075714Y60440207D01*
X-515015238Y60561159D01*
X-514894285Y60621635D01*
X-514591904Y60621635D01*
X-514470952Y60682111D01*
X-514047619Y60984492D02*
X-513563809Y60984492D01*
X-513866190Y61407826D02*
X-513866190Y60319254D01*
X-513805714Y60198302D01*
X-513684761Y60137826D01*
X-513563809Y60137826D01*
X-513140476Y60137826D02*
X-513140476Y60984492D01*
X-513140476Y60742588D02*
X-513080000Y60863540D01*
X-513019523Y60924016D01*
X-512898571Y60984492D01*
X-512777619Y60984492D01*
X-512354285Y60137826D02*
X-512354285Y60984492D01*
X-512354285Y61407826D02*
X-512414761Y61347350D01*
X-512354285Y61286873D01*
X-512293809Y61347350D01*
X-512354285Y61407826D01*
X-512354285Y61286873D01*
X-511870476Y60137826D02*
X-511205238Y60984492D01*
X-511870476Y60984492D02*
X-511205238Y60137826D01*
X-524721666Y58093126D02*
X-524721666Y59363126D01*
X-524237857Y59363126D01*
X-524116904Y59302650D01*
X-524056428Y59242173D01*
X-523995952Y59121221D01*
X-523995952Y58939792D01*
X-524056428Y58818840D01*
X-524116904Y58758364D01*
X-524237857Y58697888D01*
X-524721666Y58697888D01*
X-523451666Y58093126D02*
X-523451666Y58939792D01*
X-523451666Y58697888D02*
X-523391190Y58818840D01*
X-523330714Y58879316D01*
X-523209761Y58939792D01*
X-523088809Y58939792D01*
X-522484047Y58093126D02*
X-522605000Y58153602D01*
X-522665476Y58214078D01*
X-522725952Y58335030D01*
X-522725952Y58697888D01*
X-522665476Y58818840D01*
X-522605000Y58879316D01*
X-522484047Y58939792D01*
X-522302619Y58939792D01*
X-522181666Y58879316D01*
X-522121190Y58818840D01*
X-522060714Y58697888D01*
X-522060714Y58335030D01*
X-522121190Y58214078D01*
X-522181666Y58153602D01*
X-522302619Y58093126D01*
X-522484047Y58093126D01*
X-521697857Y58939792D02*
X-521214047Y58939792D01*
X-521516428Y59363126D02*
X-521516428Y58274554D01*
X-521455952Y58153602D01*
X-521335000Y58093126D01*
X-521214047Y58093126D01*
X-520609285Y58093126D02*
X-520730238Y58153602D01*
X-520790714Y58214078D01*
X-520851190Y58335030D01*
X-520851190Y58697888D01*
X-520790714Y58818840D01*
X-520730238Y58879316D01*
X-520609285Y58939792D01*
X-520427857Y58939792D01*
X-520306904Y58879316D01*
X-520246428Y58818840D01*
X-520185952Y58697888D01*
X-520185952Y58335030D01*
X-520246428Y58214078D01*
X-520306904Y58153602D01*
X-520427857Y58093126D01*
X-520609285Y58093126D01*
X-519641666Y58093126D02*
X-519641666Y59363126D01*
X-519641666Y58879316D02*
X-519520714Y58939792D01*
X-519278809Y58939792D01*
X-519157857Y58879316D01*
X-519097380Y58818840D01*
X-519036904Y58697888D01*
X-519036904Y58335030D01*
X-519097380Y58214078D01*
X-519157857Y58153602D01*
X-519278809Y58093126D01*
X-519520714Y58093126D01*
X-519641666Y58153602D01*
X-518311190Y58093126D02*
X-518432142Y58153602D01*
X-518492619Y58214078D01*
X-518553095Y58335030D01*
X-518553095Y58697888D01*
X-518492619Y58818840D01*
X-518432142Y58879316D01*
X-518311190Y58939792D01*
X-518129761Y58939792D01*
X-518008809Y58879316D01*
X-517948333Y58818840D01*
X-517887857Y58697888D01*
X-517887857Y58335030D01*
X-517948333Y58214078D01*
X-518008809Y58153602D01*
X-518129761Y58093126D01*
X-518311190Y58093126D01*
X-516799285Y58093126D02*
X-516799285Y58758364D01*
X-516859761Y58879316D01*
X-516980714Y58939792D01*
X-517222619Y58939792D01*
X-517343571Y58879316D01*
X-516799285Y58153602D02*
X-516920238Y58093126D01*
X-517222619Y58093126D01*
X-517343571Y58153602D01*
X-517404047Y58274554D01*
X-517404047Y58395507D01*
X-517343571Y58516459D01*
X-517222619Y58576935D01*
X-516920238Y58576935D01*
X-516799285Y58637411D01*
X-516194523Y58093126D02*
X-516194523Y58939792D01*
X-516194523Y58697888D02*
X-516134047Y58818840D01*
X-516073571Y58879316D01*
X-515952619Y58939792D01*
X-515831666Y58939792D01*
X-514864047Y58093126D02*
X-514864047Y59363126D01*
X-514864047Y58153602D02*
X-514985000Y58093126D01*
X-515226904Y58093126D01*
X-515347857Y58153602D01*
X-515408333Y58214078D01*
X-515468809Y58335030D01*
X-515468809Y58697888D01*
X-515408333Y58818840D01*
X-515347857Y58879316D01*
X-515226904Y58939792D01*
X-514985000Y58939792D01*
X-514864047Y58879316D01*
X-513473095Y59363126D02*
X-513049761Y58093126D01*
X-512626428Y59363126D01*
X-511537857Y58093126D02*
X-512263571Y58093126D01*
X-511900714Y58093126D02*
X-511900714Y59363126D01*
X-512021666Y59181697D01*
X-512142619Y59060745D01*
X-512263571Y59000269D01*
D10*
X-559347619Y44498095D02*
X-559347619Y45117142D01*
X-558966666Y44783809D01*
X-558966666Y44926666D01*
X-558919047Y45021904D01*
X-558871428Y45069523D01*
X-558776190Y45117142D01*
X-558538095Y45117142D01*
X-558442857Y45069523D01*
X-558395238Y45021904D01*
X-558347619Y44926666D01*
X-558347619Y44640952D01*
X-558395238Y44545714D01*
X-558442857Y44498095D01*
X-559347619Y46021904D02*
X-559347619Y45545714D01*
X-558871428Y45498095D01*
X-558919047Y45545714D01*
X-558966666Y45640952D01*
X-558966666Y45879047D01*
X-558919047Y45974285D01*
X-558871428Y46021904D01*
X-558776190Y46069523D01*
X-558538095Y46069523D01*
X-558442857Y46021904D01*
X-558395238Y45974285D01*
X-558347619Y45879047D01*
X-558347619Y45640952D01*
X-558395238Y45545714D01*
X-558442857Y45498095D01*
X-559395238Y47212380D02*
X-558109523Y46355238D01*
X-559347619Y47450476D02*
X-559347619Y48069523D01*
X-558966666Y47736190D01*
X-558966666Y47879047D01*
X-558919047Y47974285D01*
X-558871428Y48021904D01*
X-558776190Y48069523D01*
X-558538095Y48069523D01*
X-558442857Y48021904D01*
X-558395238Y47974285D01*
X-558347619Y47879047D01*
X-558347619Y47593333D01*
X-558395238Y47498095D01*
X-558442857Y47450476D01*
X-559347619Y48926666D02*
X-559347619Y48736190D01*
X-559300000Y48640952D01*
X-559252380Y48593333D01*
X-559109523Y48498095D01*
X-558919047Y48450476D01*
X-558538095Y48450476D01*
X-558442857Y48498095D01*
X-558395238Y48545714D01*
X-558347619Y48640952D01*
X-558347619Y48831428D01*
X-558395238Y48926666D01*
X-558442857Y48974285D01*
X-558538095Y49021904D01*
X-558776190Y49021904D01*
X-558871428Y48974285D01*
X-558919047Y48926666D01*
X-558966666Y48831428D01*
X-558966666Y48640952D01*
X-558919047Y48545714D01*
X-558871428Y48498095D01*
X-558776190Y48450476D01*
X-559395238Y50164761D02*
X-558109523Y49307619D01*
X-559014285Y50926666D02*
X-558347619Y50926666D01*
X-559395238Y50688571D02*
X-558680952Y50450476D01*
X-558680952Y51069523D01*
X-558347619Y51974285D02*
X-558347619Y51402857D01*
X-558347619Y51688571D02*
X-559347619Y51688571D01*
X-559204761Y51593333D01*
X-559109523Y51498095D01*
X-559061904Y51402857D01*
X-584382619Y45117142D02*
X-584382619Y44640952D01*
X-585382619Y44640952D01*
X-584477857Y46021904D02*
X-584430238Y45974285D01*
X-584382619Y45831428D01*
X-584382619Y45736190D01*
X-584430238Y45593333D01*
X-584525476Y45498095D01*
X-584620714Y45450476D01*
X-584811190Y45402857D01*
X-584954047Y45402857D01*
X-585144523Y45450476D01*
X-585239761Y45498095D01*
X-585335000Y45593333D01*
X-585382619Y45736190D01*
X-585382619Y45831428D01*
X-585335000Y45974285D01*
X-585287380Y46021904D01*
X-585430238Y47164761D02*
X-584144523Y46307619D01*
X-585382619Y47402857D02*
X-585382619Y48021904D01*
X-585001666Y47688571D01*
X-585001666Y47831428D01*
X-584954047Y47926666D01*
X-584906428Y47974285D01*
X-584811190Y48021904D01*
X-584573095Y48021904D01*
X-584477857Y47974285D01*
X-584430238Y47926666D01*
X-584382619Y47831428D01*
X-584382619Y47545714D01*
X-584430238Y47450476D01*
X-584477857Y47402857D01*
X-585287380Y48402857D02*
X-585335000Y48450476D01*
X-585382619Y48545714D01*
X-585382619Y48783809D01*
X-585335000Y48879047D01*
X-585287380Y48926666D01*
X-585192142Y48974285D01*
X-585096904Y48974285D01*
X-584954047Y48926666D01*
X-584382619Y48355238D01*
X-584382619Y48974285D01*
X-585430238Y50117142D02*
X-584144523Y49260000D01*
X-585049285Y50879047D02*
X-584382619Y50879047D01*
X-585430238Y50640952D02*
X-584715952Y50402857D01*
X-584715952Y51021904D01*
X-585382619Y51593333D02*
X-585382619Y51688571D01*
X-585335000Y51783809D01*
X-585287380Y51831428D01*
X-585192142Y51879047D01*
X-585001666Y51926666D01*
X-584763571Y51926666D01*
X-584573095Y51879047D01*
X-584477857Y51831428D01*
X-584430238Y51783809D01*
X-584382619Y51688571D01*
X-584382619Y51593333D01*
X-584430238Y51498095D01*
X-584477857Y51450476D01*
X-584573095Y51402857D01*
X-584763571Y51355238D01*
X-585001666Y51355238D01*
X-585192142Y51402857D01*
X-585287380Y51450476D01*
X-585335000Y51498095D01*
X-585382619Y51593333D01*
D12*
X-525151047Y45260380D02*
X-525247809Y45308761D01*
X-525296190Y45405523D01*
X-525296190Y46276380D01*
X-524328571Y45937714D02*
X-524328571Y45260380D01*
X-524764000Y45937714D02*
X-524764000Y45405523D01*
X-524715619Y45308761D01*
X-524618857Y45260380D01*
X-524473714Y45260380D01*
X-524376952Y45308761D01*
X-524328571Y45357142D01*
X-523844761Y45937714D02*
X-523844761Y45260380D01*
X-523844761Y45840952D02*
X-523796380Y45889333D01*
X-523699619Y45937714D01*
X-523554476Y45937714D01*
X-523457714Y45889333D01*
X-523409333Y45792571D01*
X-523409333Y45260380D01*
X-522732000Y46276380D02*
X-522538476Y46276380D01*
X-522441714Y46228000D01*
X-522344952Y46131238D01*
X-522296571Y45937714D01*
X-522296571Y45599047D01*
X-522344952Y45405523D01*
X-522441714Y45308761D01*
X-522538476Y45260380D01*
X-522732000Y45260380D01*
X-522828761Y45308761D01*
X-522925523Y45405523D01*
X-522973904Y45599047D01*
X-522973904Y45937714D01*
X-522925523Y46131238D01*
X-522828761Y46228000D01*
X-522732000Y46276380D01*
X-521861142Y45937714D02*
X-521861142Y44921714D01*
X-521861142Y45889333D02*
X-521764380Y45937714D01*
X-521570857Y45937714D01*
X-521474095Y45889333D01*
X-521425714Y45840952D01*
X-521377333Y45744190D01*
X-521377333Y45453904D01*
X-521425714Y45357142D01*
X-521474095Y45308761D01*
X-521570857Y45260380D01*
X-521764380Y45260380D01*
X-521861142Y45308761D01*
X-521087047Y45937714D02*
X-520700000Y45937714D01*
X-520941904Y46276380D02*
X-520941904Y45405523D01*
X-520893523Y45308761D01*
X-520796761Y45260380D01*
X-520700000Y45260380D01*
X-520361333Y45260380D02*
X-520361333Y45937714D01*
X-520361333Y46276380D02*
X-520409714Y46228000D01*
X-520361333Y46179619D01*
X-520312952Y46228000D01*
X-520361333Y46276380D01*
X-520361333Y46179619D01*
X-519442095Y45308761D02*
X-519538857Y45260380D01*
X-519732380Y45260380D01*
X-519829142Y45308761D01*
X-519877523Y45357142D01*
X-519925904Y45453904D01*
X-519925904Y45744190D01*
X-519877523Y45840952D01*
X-519829142Y45889333D01*
X-519732380Y45937714D01*
X-519538857Y45937714D01*
X-519442095Y45889333D01*
X-519055047Y45308761D02*
X-518958285Y45260380D01*
X-518764761Y45260380D01*
X-518668000Y45308761D01*
X-518619619Y45405523D01*
X-518619619Y45453904D01*
X-518668000Y45550666D01*
X-518764761Y45599047D01*
X-518909904Y45599047D01*
X-519006666Y45647428D01*
X-519055047Y45744190D01*
X-519055047Y45792571D01*
X-519006666Y45889333D01*
X-518909904Y45937714D01*
X-518764761Y45937714D01*
X-518668000Y45889333D01*
X-517458476Y46179619D02*
X-517410095Y46228000D01*
X-517313333Y46276380D01*
X-517071428Y46276380D01*
X-516974666Y46228000D01*
X-516926285Y46179619D01*
X-516877904Y46082857D01*
X-516877904Y45986095D01*
X-516926285Y45840952D01*
X-517506857Y45260380D01*
X-516877904Y45260380D01*
X-516248952Y46276380D02*
X-516152190Y46276380D01*
X-516055428Y46228000D01*
X-516007047Y46179619D01*
X-515958666Y46082857D01*
X-515910285Y45889333D01*
X-515910285Y45647428D01*
X-515958666Y45453904D01*
X-516007047Y45357142D01*
X-516055428Y45308761D01*
X-516152190Y45260380D01*
X-516248952Y45260380D01*
X-516345714Y45308761D01*
X-516394095Y45357142D01*
X-516442476Y45453904D01*
X-516490857Y45647428D01*
X-516490857Y45889333D01*
X-516442476Y46082857D01*
X-516394095Y46179619D01*
X-516345714Y46228000D01*
X-516248952Y46276380D01*
X-515523238Y46179619D02*
X-515474857Y46228000D01*
X-515378095Y46276380D01*
X-515136190Y46276380D01*
X-515039428Y46228000D01*
X-514991047Y46179619D01*
X-514942666Y46082857D01*
X-514942666Y45986095D01*
X-514991047Y45840952D01*
X-515571619Y45260380D01*
X-514942666Y45260380D01*
X-514555619Y46179619D02*
X-514507238Y46228000D01*
X-514410476Y46276380D01*
X-514168571Y46276380D01*
X-514071809Y46228000D01*
X-514023428Y46179619D01*
X-513975047Y46082857D01*
X-513975047Y45986095D01*
X-514023428Y45840952D01*
X-514604000Y45260380D01*
X-513975047Y45260380D01*
X-512813904Y46324761D02*
X-513684761Y45018476D01*
X-512281714Y46276380D02*
X-512184952Y46276380D01*
X-512088190Y46228000D01*
X-512039809Y46179619D01*
X-511991428Y46082857D01*
X-511943047Y45889333D01*
X-511943047Y45647428D01*
X-511991428Y45453904D01*
X-512039809Y45357142D01*
X-512088190Y45308761D01*
X-512184952Y45260380D01*
X-512281714Y45260380D01*
X-512378476Y45308761D01*
X-512426857Y45357142D01*
X-512475238Y45453904D01*
X-512523619Y45647428D01*
X-512523619Y45889333D01*
X-512475238Y46082857D01*
X-512426857Y46179619D01*
X-512378476Y46228000D01*
X-512281714Y46276380D01*
X-511023809Y46276380D02*
X-511507619Y46276380D01*
X-511556000Y45792571D01*
X-511507619Y45840952D01*
X-511410857Y45889333D01*
X-511168952Y45889333D01*
X-511072190Y45840952D01*
X-511023809Y45792571D01*
X-510975428Y45695809D01*
X-510975428Y45453904D01*
X-511023809Y45357142D01*
X-511072190Y45308761D01*
X-511168952Y45260380D01*
X-511410857Y45260380D01*
X-511507619Y45308761D01*
X-511556000Y45357142D01*
D10*
%TO.C,ENC4*%
X-594458285Y121356428D02*
X-594124952Y121356428D01*
X-593982095Y120832619D02*
X-594458285Y120832619D01*
X-594458285Y121832619D01*
X-593982095Y121832619D01*
X-593553523Y120832619D02*
X-593553523Y121832619D01*
X-592982095Y120832619D01*
X-592982095Y121832619D01*
X-591934476Y120927857D02*
X-591982095Y120880238D01*
X-592124952Y120832619D01*
X-592220190Y120832619D01*
X-592363047Y120880238D01*
X-592458285Y120975476D01*
X-592505904Y121070714D01*
X-592553523Y121261190D01*
X-592553523Y121404047D01*
X-592505904Y121594523D01*
X-592458285Y121689761D01*
X-592363047Y121785000D01*
X-592220190Y121832619D01*
X-592124952Y121832619D01*
X-591982095Y121785000D01*
X-591934476Y121737380D01*
X-591077333Y121499285D02*
X-591077333Y120832619D01*
X-591315428Y121880238D02*
X-591553523Y121165952D01*
X-590934476Y121165952D01*
%TO.C,ENC10*%
X-543224404Y121356428D02*
X-542891071Y121356428D01*
X-542748214Y120832619D02*
X-543224404Y120832619D01*
X-543224404Y121832619D01*
X-542748214Y121832619D01*
X-542319642Y120832619D02*
X-542319642Y121832619D01*
X-541748214Y120832619D01*
X-541748214Y121832619D01*
X-540700595Y120927857D02*
X-540748214Y120880238D01*
X-540891071Y120832619D01*
X-540986309Y120832619D01*
X-541129166Y120880238D01*
X-541224404Y120975476D01*
X-541272023Y121070714D01*
X-541319642Y121261190D01*
X-541319642Y121404047D01*
X-541272023Y121594523D01*
X-541224404Y121689761D01*
X-541129166Y121785000D01*
X-540986309Y121832619D01*
X-540891071Y121832619D01*
X-540748214Y121785000D01*
X-540700595Y121737380D01*
X-539748214Y120832619D02*
X-540319642Y120832619D01*
X-540033928Y120832619D02*
X-540033928Y121832619D01*
X-540129166Y121689761D01*
X-540224404Y121594523D01*
X-540319642Y121546904D01*
X-539129166Y121832619D02*
X-539033928Y121832619D01*
X-538938690Y121785000D01*
X-538891071Y121737380D01*
X-538843452Y121642142D01*
X-538795833Y121451666D01*
X-538795833Y121213571D01*
X-538843452Y121023095D01*
X-538891071Y120927857D01*
X-538938690Y120880238D01*
X-539033928Y120832619D01*
X-539129166Y120832619D01*
X-539224404Y120880238D01*
X-539272023Y120927857D01*
X-539319642Y121023095D01*
X-539367261Y121213571D01*
X-539367261Y121451666D01*
X-539319642Y121642142D01*
X-539272023Y121737380D01*
X-539224404Y121785000D01*
X-539129166Y121832619D01*
%TO.C,ENC7*%
X-568769285Y121356428D02*
X-568435952Y121356428D01*
X-568293095Y120832619D02*
X-568769285Y120832619D01*
X-568769285Y121832619D01*
X-568293095Y121832619D01*
X-567864523Y120832619D02*
X-567864523Y121832619D01*
X-567293095Y120832619D01*
X-567293095Y121832619D01*
X-566245476Y120927857D02*
X-566293095Y120880238D01*
X-566435952Y120832619D01*
X-566531190Y120832619D01*
X-566674047Y120880238D01*
X-566769285Y120975476D01*
X-566816904Y121070714D01*
X-566864523Y121261190D01*
X-566864523Y121404047D01*
X-566816904Y121594523D01*
X-566769285Y121689761D01*
X-566674047Y121785000D01*
X-566531190Y121832619D01*
X-566435952Y121832619D01*
X-566293095Y121785000D01*
X-566245476Y121737380D01*
X-565912142Y121832619D02*
X-565245476Y121832619D01*
X-565674047Y120832619D01*
%TO.C,J2*%
X-557017619Y58086666D02*
X-556303333Y58086666D01*
X-556160476Y58039047D01*
X-556065238Y57943809D01*
X-556017619Y57800952D01*
X-556017619Y57705714D01*
X-556922380Y58515238D02*
X-556970000Y58562857D01*
X-557017619Y58658095D01*
X-557017619Y58896190D01*
X-556970000Y58991428D01*
X-556922380Y59039047D01*
X-556827142Y59086666D01*
X-556731904Y59086666D01*
X-556589047Y59039047D01*
X-556017619Y58467619D01*
X-556017619Y59086666D01*
%TO.C,ENC1*%
X-619569285Y121356428D02*
X-619235952Y121356428D01*
X-619093095Y120832619D02*
X-619569285Y120832619D01*
X-619569285Y121832619D01*
X-619093095Y121832619D01*
X-618664523Y120832619D02*
X-618664523Y121832619D01*
X-618093095Y120832619D01*
X-618093095Y121832619D01*
X-617045476Y120927857D02*
X-617093095Y120880238D01*
X-617235952Y120832619D01*
X-617331190Y120832619D01*
X-617474047Y120880238D01*
X-617569285Y120975476D01*
X-617616904Y121070714D01*
X-617664523Y121261190D01*
X-617664523Y121404047D01*
X-617616904Y121594523D01*
X-617569285Y121689761D01*
X-617474047Y121785000D01*
X-617331190Y121832619D01*
X-617235952Y121832619D01*
X-617093095Y121785000D01*
X-617045476Y121737380D01*
X-616093095Y120832619D02*
X-616664523Y120832619D01*
X-616378809Y120832619D02*
X-616378809Y121832619D01*
X-616474047Y121689761D01*
X-616569285Y121594523D01*
X-616664523Y121546904D01*
%TO.C,ENC15*%
X-517824404Y83256428D02*
X-517491071Y83256428D01*
X-517348214Y82732619D02*
X-517824404Y82732619D01*
X-517824404Y83732619D01*
X-517348214Y83732619D01*
X-516919642Y82732619D02*
X-516919642Y83732619D01*
X-516348214Y82732619D01*
X-516348214Y83732619D01*
X-515300595Y82827857D02*
X-515348214Y82780238D01*
X-515491071Y82732619D01*
X-515586309Y82732619D01*
X-515729166Y82780238D01*
X-515824404Y82875476D01*
X-515872023Y82970714D01*
X-515919642Y83161190D01*
X-515919642Y83304047D01*
X-515872023Y83494523D01*
X-515824404Y83589761D01*
X-515729166Y83685000D01*
X-515586309Y83732619D01*
X-515491071Y83732619D01*
X-515348214Y83685000D01*
X-515300595Y83637380D01*
X-514348214Y82732619D02*
X-514919642Y82732619D01*
X-514633928Y82732619D02*
X-514633928Y83732619D01*
X-514729166Y83589761D01*
X-514824404Y83494523D01*
X-514919642Y83446904D01*
X-513443452Y83732619D02*
X-513919642Y83732619D01*
X-513967261Y83256428D01*
X-513919642Y83304047D01*
X-513824404Y83351666D01*
X-513586309Y83351666D01*
X-513491071Y83304047D01*
X-513443452Y83256428D01*
X-513395833Y83161190D01*
X-513395833Y82923095D01*
X-513443452Y82827857D01*
X-513491071Y82780238D01*
X-513586309Y82732619D01*
X-513824404Y82732619D01*
X-513919642Y82780238D01*
X-513967261Y82827857D01*
%TO.C,ENC8*%
X-568769285Y102306428D02*
X-568435952Y102306428D01*
X-568293095Y101782619D02*
X-568769285Y101782619D01*
X-568769285Y102782619D01*
X-568293095Y102782619D01*
X-567864523Y101782619D02*
X-567864523Y102782619D01*
X-567293095Y101782619D01*
X-567293095Y102782619D01*
X-566245476Y101877857D02*
X-566293095Y101830238D01*
X-566435952Y101782619D01*
X-566531190Y101782619D01*
X-566674047Y101830238D01*
X-566769285Y101925476D01*
X-566816904Y102020714D01*
X-566864523Y102211190D01*
X-566864523Y102354047D01*
X-566816904Y102544523D01*
X-566769285Y102639761D01*
X-566674047Y102735000D01*
X-566531190Y102782619D01*
X-566435952Y102782619D01*
X-566293095Y102735000D01*
X-566245476Y102687380D01*
X-565674047Y102354047D02*
X-565769285Y102401666D01*
X-565816904Y102449285D01*
X-565864523Y102544523D01*
X-565864523Y102592142D01*
X-565816904Y102687380D01*
X-565769285Y102735000D01*
X-565674047Y102782619D01*
X-565483571Y102782619D01*
X-565388333Y102735000D01*
X-565340714Y102687380D01*
X-565293095Y102592142D01*
X-565293095Y102544523D01*
X-565340714Y102449285D01*
X-565388333Y102401666D01*
X-565483571Y102354047D01*
X-565674047Y102354047D01*
X-565769285Y102306428D01*
X-565816904Y102258809D01*
X-565864523Y102163571D01*
X-565864523Y101973095D01*
X-565816904Y101877857D01*
X-565769285Y101830238D01*
X-565674047Y101782619D01*
X-565483571Y101782619D01*
X-565388333Y101830238D01*
X-565340714Y101877857D01*
X-565293095Y101973095D01*
X-565293095Y102163571D01*
X-565340714Y102258809D01*
X-565388333Y102306428D01*
X-565483571Y102354047D01*
%TO.C,ENC6*%
X-594278404Y83256428D02*
X-593945071Y83256428D01*
X-593802214Y82732619D02*
X-594278404Y82732619D01*
X-594278404Y83732619D01*
X-593802214Y83732619D01*
X-593373642Y82732619D02*
X-593373642Y83732619D01*
X-592802214Y82732619D01*
X-592802214Y83732619D01*
X-591754595Y82827857D02*
X-591802214Y82780238D01*
X-591945071Y82732619D01*
X-592040309Y82732619D01*
X-592183166Y82780238D01*
X-592278404Y82875476D01*
X-592326023Y82970714D01*
X-592373642Y83161190D01*
X-592373642Y83304047D01*
X-592326023Y83494523D01*
X-592278404Y83589761D01*
X-592183166Y83685000D01*
X-592040309Y83732619D01*
X-591945071Y83732619D01*
X-591802214Y83685000D01*
X-591754595Y83637380D01*
X-590897452Y83732619D02*
X-591087928Y83732619D01*
X-591183166Y83685000D01*
X-591230785Y83637380D01*
X-591326023Y83494523D01*
X-591373642Y83304047D01*
X-591373642Y82923095D01*
X-591326023Y82827857D01*
X-591278404Y82780238D01*
X-591183166Y82732619D01*
X-590992690Y82732619D01*
X-590897452Y82780238D01*
X-590849833Y82827857D01*
X-590802214Y82923095D01*
X-590802214Y83161190D01*
X-590849833Y83256428D01*
X-590897452Y83304047D01*
X-590992690Y83351666D01*
X-591183166Y83351666D01*
X-591278404Y83304047D01*
X-591326023Y83256428D01*
X-591373642Y83161190D01*
%TO.C,ENC14*%
X-518078404Y102306428D02*
X-517745071Y102306428D01*
X-517602214Y101782619D02*
X-518078404Y101782619D01*
X-518078404Y102782619D01*
X-517602214Y102782619D01*
X-517173642Y101782619D02*
X-517173642Y102782619D01*
X-516602214Y101782619D01*
X-516602214Y102782619D01*
X-515554595Y101877857D02*
X-515602214Y101830238D01*
X-515745071Y101782619D01*
X-515840309Y101782619D01*
X-515983166Y101830238D01*
X-516078404Y101925476D01*
X-516126023Y102020714D01*
X-516173642Y102211190D01*
X-516173642Y102354047D01*
X-516126023Y102544523D01*
X-516078404Y102639761D01*
X-515983166Y102735000D01*
X-515840309Y102782619D01*
X-515745071Y102782619D01*
X-515602214Y102735000D01*
X-515554595Y102687380D01*
X-514602214Y101782619D02*
X-515173642Y101782619D01*
X-514887928Y101782619D02*
X-514887928Y102782619D01*
X-514983166Y102639761D01*
X-515078404Y102544523D01*
X-515173642Y102496904D01*
X-513745071Y102449285D02*
X-513745071Y101782619D01*
X-513983166Y102830238D02*
X-514221261Y102115952D01*
X-513602214Y102115952D01*
%TO.C,ENC5*%
X-594169285Y102306428D02*
X-593835952Y102306428D01*
X-593693095Y101782619D02*
X-594169285Y101782619D01*
X-594169285Y102782619D01*
X-593693095Y102782619D01*
X-593264523Y101782619D02*
X-593264523Y102782619D01*
X-592693095Y101782619D01*
X-592693095Y102782619D01*
X-591645476Y101877857D02*
X-591693095Y101830238D01*
X-591835952Y101782619D01*
X-591931190Y101782619D01*
X-592074047Y101830238D01*
X-592169285Y101925476D01*
X-592216904Y102020714D01*
X-592264523Y102211190D01*
X-592264523Y102354047D01*
X-592216904Y102544523D01*
X-592169285Y102639761D01*
X-592074047Y102735000D01*
X-591931190Y102782619D01*
X-591835952Y102782619D01*
X-591693095Y102735000D01*
X-591645476Y102687380D01*
X-590740714Y102782619D02*
X-591216904Y102782619D01*
X-591264523Y102306428D01*
X-591216904Y102354047D01*
X-591121666Y102401666D01*
X-590883571Y102401666D01*
X-590788333Y102354047D01*
X-590740714Y102306428D01*
X-590693095Y102211190D01*
X-590693095Y101973095D01*
X-590740714Y101877857D01*
X-590788333Y101830238D01*
X-590883571Y101782619D01*
X-591121666Y101782619D01*
X-591216904Y101830238D01*
X-591264523Y101877857D01*
%TO.C,ENC13*%
X-518078404Y121356418D02*
X-517745071Y121356418D01*
X-517602214Y120832609D02*
X-518078404Y120832609D01*
X-518078404Y121832609D01*
X-517602214Y121832609D01*
X-517173642Y120832609D02*
X-517173642Y121832609D01*
X-516602214Y120832609D01*
X-516602214Y121832609D01*
X-515554595Y120927847D02*
X-515602214Y120880228D01*
X-515745071Y120832609D01*
X-515840309Y120832609D01*
X-515983166Y120880228D01*
X-516078404Y120975466D01*
X-516126023Y121070704D01*
X-516173642Y121261180D01*
X-516173642Y121404037D01*
X-516126023Y121594513D01*
X-516078404Y121689751D01*
X-515983166Y121784990D01*
X-515840309Y121832609D01*
X-515745071Y121832609D01*
X-515602214Y121784990D01*
X-515554595Y121737370D01*
X-514602214Y120832609D02*
X-515173642Y120832609D01*
X-514887928Y120832609D02*
X-514887928Y121832609D01*
X-514983166Y121689751D01*
X-515078404Y121594513D01*
X-515173642Y121546894D01*
X-514268880Y121832609D02*
X-513649833Y121832609D01*
X-513983166Y121451656D01*
X-513840309Y121451656D01*
X-513745071Y121404037D01*
X-513697452Y121356418D01*
X-513649833Y121261180D01*
X-513649833Y121023085D01*
X-513697452Y120927847D01*
X-513745071Y120880228D01*
X-513840309Y120832609D01*
X-514126023Y120832609D01*
X-514221261Y120880228D01*
X-514268880Y120927847D01*
%TO.C,ENC9*%
X-568878404Y83256428D02*
X-568545071Y83256428D01*
X-568402214Y82732619D02*
X-568878404Y82732619D01*
X-568878404Y83732619D01*
X-568402214Y83732619D01*
X-567973642Y82732619D02*
X-567973642Y83732619D01*
X-567402214Y82732619D01*
X-567402214Y83732619D01*
X-566354595Y82827857D02*
X-566402214Y82780238D01*
X-566545071Y82732619D01*
X-566640309Y82732619D01*
X-566783166Y82780238D01*
X-566878404Y82875476D01*
X-566926023Y82970714D01*
X-566973642Y83161190D01*
X-566973642Y83304047D01*
X-566926023Y83494523D01*
X-566878404Y83589761D01*
X-566783166Y83685000D01*
X-566640309Y83732619D01*
X-566545071Y83732619D01*
X-566402214Y83685000D01*
X-566354595Y83637380D01*
X-565878404Y82732619D02*
X-565687928Y82732619D01*
X-565592690Y82780238D01*
X-565545071Y82827857D01*
X-565449833Y82970714D01*
X-565402214Y83161190D01*
X-565402214Y83542142D01*
X-565449833Y83637380D01*
X-565497452Y83685000D01*
X-565592690Y83732619D01*
X-565783166Y83732619D01*
X-565878404Y83685000D01*
X-565926023Y83637380D01*
X-565973642Y83542142D01*
X-565973642Y83304047D01*
X-565926023Y83208809D01*
X-565878404Y83161190D01*
X-565783166Y83113571D01*
X-565592690Y83113571D01*
X-565497452Y83161190D01*
X-565449833Y83208809D01*
X-565402214Y83304047D01*
%TO.C,ENC12*%
X-543478404Y83256428D02*
X-543145071Y83256428D01*
X-543002214Y82732619D02*
X-543478404Y82732619D01*
X-543478404Y83732619D01*
X-543002214Y83732619D01*
X-542573642Y82732619D02*
X-542573642Y83732619D01*
X-542002214Y82732619D01*
X-542002214Y83732619D01*
X-540954595Y82827857D02*
X-541002214Y82780238D01*
X-541145071Y82732619D01*
X-541240309Y82732619D01*
X-541383166Y82780238D01*
X-541478404Y82875476D01*
X-541526023Y82970714D01*
X-541573642Y83161190D01*
X-541573642Y83304047D01*
X-541526023Y83494523D01*
X-541478404Y83589761D01*
X-541383166Y83685000D01*
X-541240309Y83732619D01*
X-541145071Y83732619D01*
X-541002214Y83685000D01*
X-540954595Y83637380D01*
X-540002214Y82732619D02*
X-540573642Y82732619D01*
X-540287928Y82732619D02*
X-540287928Y83732619D01*
X-540383166Y83589761D01*
X-540478404Y83494523D01*
X-540573642Y83446904D01*
X-539621261Y83637380D02*
X-539573642Y83685000D01*
X-539478404Y83732619D01*
X-539240309Y83732619D01*
X-539145071Y83685000D01*
X-539097452Y83637380D01*
X-539049833Y83542142D01*
X-539049833Y83446904D01*
X-539097452Y83304047D01*
X-539668880Y82732619D01*
X-539049833Y82732619D01*
%TO.C,ENC11*%
X-543224404Y102306428D02*
X-542891071Y102306428D01*
X-542748214Y101782619D02*
X-543224404Y101782619D01*
X-543224404Y102782619D01*
X-542748214Y102782619D01*
X-542319642Y101782619D02*
X-542319642Y102782619D01*
X-541748214Y101782619D01*
X-541748214Y102782619D01*
X-540700595Y101877857D02*
X-540748214Y101830238D01*
X-540891071Y101782619D01*
X-540986309Y101782619D01*
X-541129166Y101830238D01*
X-541224404Y101925476D01*
X-541272023Y102020714D01*
X-541319642Y102211190D01*
X-541319642Y102354047D01*
X-541272023Y102544523D01*
X-541224404Y102639761D01*
X-541129166Y102735000D01*
X-540986309Y102782619D01*
X-540891071Y102782619D01*
X-540748214Y102735000D01*
X-540700595Y102687380D01*
X-539748214Y101782619D02*
X-540319642Y101782619D01*
X-540033928Y101782619D02*
X-540033928Y102782619D01*
X-540129166Y102639761D01*
X-540224404Y102544523D01*
X-540319642Y102496904D01*
X-538795833Y101782619D02*
X-539367261Y101782619D01*
X-539081547Y101782619D02*
X-539081547Y102782619D01*
X-539176785Y102639761D01*
X-539272023Y102544523D01*
X-539367261Y102496904D01*
%TO.C,J1*%
X-557017619Y60626666D02*
X-556303333Y60626666D01*
X-556160476Y60579047D01*
X-556065238Y60483809D01*
X-556017619Y60340952D01*
X-556017619Y60245714D01*
X-556017619Y61626666D02*
X-556017619Y61055238D01*
X-556017619Y61340952D02*
X-557017619Y61340952D01*
X-556874761Y61245714D01*
X-556779523Y61150476D01*
X-556731904Y61055238D01*
%TO.C,ENC2*%
X-619569285Y102306428D02*
X-619235952Y102306428D01*
X-619093095Y101782619D02*
X-619569285Y101782619D01*
X-619569285Y102782619D01*
X-619093095Y102782619D01*
X-618664523Y101782619D02*
X-618664523Y102782619D01*
X-618093095Y101782619D01*
X-618093095Y102782619D01*
X-617045476Y101877857D02*
X-617093095Y101830238D01*
X-617235952Y101782619D01*
X-617331190Y101782619D01*
X-617474047Y101830238D01*
X-617569285Y101925476D01*
X-617616904Y102020714D01*
X-617664523Y102211190D01*
X-617664523Y102354047D01*
X-617616904Y102544523D01*
X-617569285Y102639761D01*
X-617474047Y102735000D01*
X-617331190Y102782619D01*
X-617235952Y102782619D01*
X-617093095Y102735000D01*
X-617045476Y102687380D01*
X-616664523Y102687380D02*
X-616616904Y102735000D01*
X-616521666Y102782619D01*
X-616283571Y102782619D01*
X-616188333Y102735000D01*
X-616140714Y102687380D01*
X-616093095Y102592142D01*
X-616093095Y102496904D01*
X-616140714Y102354047D01*
X-616712142Y101782619D01*
X-616093095Y101782619D01*
%TO.C,U1*%
X-588771904Y58967619D02*
X-588771904Y58158095D01*
X-588724285Y58062857D01*
X-588676666Y58015238D01*
X-588581428Y57967619D01*
X-588390952Y57967619D01*
X-588295714Y58015238D01*
X-588248095Y58062857D01*
X-588200476Y58158095D01*
X-588200476Y58967619D01*
X-587200476Y57967619D02*
X-587771904Y57967619D01*
X-587486190Y57967619D02*
X-587486190Y58967619D01*
X-587581428Y58824761D01*
X-587676666Y58729523D01*
X-587771904Y58681904D01*
%TO.C,ENC3*%
X-619678404Y83256428D02*
X-619345071Y83256428D01*
X-619202214Y82732619D02*
X-619678404Y82732619D01*
X-619678404Y83732619D01*
X-619202214Y83732619D01*
X-618773642Y82732619D02*
X-618773642Y83732619D01*
X-618202214Y82732619D01*
X-618202214Y83732619D01*
X-617154595Y82827857D02*
X-617202214Y82780238D01*
X-617345071Y82732619D01*
X-617440309Y82732619D01*
X-617583166Y82780238D01*
X-617678404Y82875476D01*
X-617726023Y82970714D01*
X-617773642Y83161190D01*
X-617773642Y83304047D01*
X-617726023Y83494523D01*
X-617678404Y83589761D01*
X-617583166Y83685000D01*
X-617440309Y83732619D01*
X-617345071Y83732619D01*
X-617202214Y83685000D01*
X-617154595Y83637380D01*
X-616821261Y83732619D02*
X-616202214Y83732619D01*
X-616535547Y83351666D01*
X-616392690Y83351666D01*
X-616297452Y83304047D01*
X-616249833Y83256428D01*
X-616202214Y83161190D01*
X-616202214Y82923095D01*
X-616249833Y82827857D01*
X-616297452Y82780238D01*
X-616392690Y82732619D01*
X-616678404Y82732619D01*
X-616773642Y82780238D01*
X-616821261Y82827857D01*
D13*
%TO.C,ENC4*%
X-590694000Y120220000D02*
X-590694000Y117820000D01*
X-590694000Y110820000D02*
X-590694000Y108420000D01*
X-598794000Y108420000D02*
X-602894000Y108420000D01*
X-602894000Y120220000D02*
X-602894000Y108420000D01*
X-590694000Y108420000D02*
X-594794000Y108420000D01*
X-598794000Y120220000D02*
X-602894000Y120220000D01*
X-594794000Y120220000D02*
X-590694000Y120220000D01*
X-590694000Y115620000D02*
X-590694000Y113020000D01*
X-593900000Y114300000D02*
G75*
G03*
X-593900000Y114300000I-3000000J0D01*
G01*
%TO.C,ENC10*%
X-539894000Y120220000D02*
X-539894000Y117820000D01*
X-539894000Y110820000D02*
X-539894000Y108420000D01*
X-539894000Y108420000D02*
X-543994000Y108420000D01*
X-547994000Y120220000D02*
X-552094000Y120220000D01*
X-543994000Y120220000D02*
X-539894000Y120220000D01*
X-552094000Y120220000D02*
X-552094000Y108420000D01*
X-547994000Y108420000D02*
X-552094000Y108420000D01*
X-539894000Y115620000D02*
X-539894000Y113020000D01*
X-543100000Y114300000D02*
G75*
G03*
X-543100000Y114300000I-3000000J0D01*
G01*
%TO.C,ENC7*%
X-573394000Y108420000D02*
X-577494000Y108420000D01*
X-565294000Y120220000D02*
X-565294000Y117820000D01*
X-569394000Y120220000D02*
X-565294000Y120220000D01*
X-573394000Y120220000D02*
X-577494000Y120220000D01*
X-577494000Y120220000D02*
X-577494000Y108420000D01*
X-565294000Y110820000D02*
X-565294000Y108420000D01*
X-565294000Y108420000D02*
X-569394000Y108420000D01*
X-565294000Y115620000D02*
X-565294000Y113020000D01*
X-568500000Y114300000D02*
G75*
G03*
X-568500000Y114300000I-3000000J0D01*
G01*
%TO.C,ENC1*%
X-624194000Y108420000D02*
X-628294000Y108420000D01*
X-616094000Y110820000D02*
X-616094000Y108420000D01*
X-616094000Y115620000D02*
X-616094000Y113020000D01*
X-616094000Y108420000D02*
X-620194000Y108420000D01*
X-624194000Y120220000D02*
X-628294000Y120220000D01*
X-620194000Y120220000D02*
X-616094000Y120220000D01*
X-628294000Y120220000D02*
X-628294000Y108420000D01*
X-616094000Y120220000D02*
X-616094000Y117820000D01*
X-619300000Y114300000D02*
G75*
G03*
X-619300000Y114300000I-3000000J0D01*
G01*
%TO.C,ENC15*%
X-514494000Y77520000D02*
X-514494000Y74920000D01*
X-514494000Y72720000D02*
X-514494000Y70320000D01*
X-518594000Y82120000D02*
X-514494000Y82120000D01*
X-514494000Y70320000D02*
X-518594000Y70320000D01*
X-522594000Y70320000D02*
X-526694000Y70320000D01*
X-522594000Y82120000D02*
X-526694000Y82120000D01*
X-526694000Y82120000D02*
X-526694000Y70320000D01*
X-514494000Y82120000D02*
X-514494000Y79720000D01*
X-517700000Y76200000D02*
G75*
G03*
X-517700000Y76200000I-3000000J0D01*
G01*
%TO.C,ENC8*%
X-565294000Y96570000D02*
X-565294000Y93970000D01*
X-565294000Y89370000D02*
X-569394000Y89370000D01*
X-565294000Y101170000D02*
X-565294000Y98770000D01*
X-573394000Y101170000D02*
X-577494000Y101170000D01*
X-569394000Y101170000D02*
X-565294000Y101170000D01*
X-565294000Y91770000D02*
X-565294000Y89370000D01*
X-573394000Y89370000D02*
X-577494000Y89370000D01*
X-577494000Y101170000D02*
X-577494000Y89370000D01*
X-568500000Y95250000D02*
G75*
G03*
X-568500000Y95250000I-3000000J0D01*
G01*
%TO.C,ENC6*%
X-598794000Y70320000D02*
X-602894000Y70320000D01*
X-594794000Y82120000D02*
X-590694000Y82120000D01*
X-602894000Y82120000D02*
X-602894000Y70320000D01*
X-590694000Y70320000D02*
X-594794000Y70320000D01*
X-590694000Y82120000D02*
X-590694000Y79720000D01*
X-590694000Y72720000D02*
X-590694000Y70320000D01*
X-598794000Y82120000D02*
X-602894000Y82120000D01*
X-590694000Y77520000D02*
X-590694000Y74920000D01*
X-593900000Y76200000D02*
G75*
G03*
X-593900000Y76200000I-3000000J0D01*
G01*
%TO.C,ENC14*%
X-514494000Y89370000D02*
X-518594000Y89370000D01*
X-522594000Y89370000D02*
X-526694000Y89370000D01*
X-514494000Y91770000D02*
X-514494000Y89370000D01*
X-514494000Y96570000D02*
X-514494000Y93970000D01*
X-522594000Y101170000D02*
X-526694000Y101170000D01*
X-518594000Y101170000D02*
X-514494000Y101170000D01*
X-526694000Y101170000D02*
X-526694000Y89370000D01*
X-514494000Y101170000D02*
X-514494000Y98770000D01*
X-517700000Y95250000D02*
G75*
G03*
X-517700000Y95250000I-3000000J0D01*
G01*
%TO.C,ENC5*%
X-590694000Y91770000D02*
X-590694000Y89370000D01*
X-602894000Y101170000D02*
X-602894000Y89370000D01*
X-590694000Y89370000D02*
X-594794000Y89370000D01*
X-598794000Y101170000D02*
X-602894000Y101170000D01*
X-594794000Y101170000D02*
X-590694000Y101170000D01*
X-590694000Y96570000D02*
X-590694000Y93970000D01*
X-590694000Y101170000D02*
X-590694000Y98770000D01*
X-598794000Y89370000D02*
X-602894000Y89370000D01*
X-593900000Y95250000D02*
G75*
G03*
X-593900000Y95250000I-3000000J0D01*
G01*
%TO.C,ENC13*%
X-522594000Y108439990D02*
X-526694000Y108439990D01*
X-514494000Y110839990D02*
X-514494000Y108439990D01*
X-518594000Y120239990D02*
X-514494000Y120239990D01*
X-522594000Y120239990D02*
X-526694000Y120239990D01*
X-514494000Y120239990D02*
X-514494000Y117839990D01*
X-526694000Y120239990D02*
X-526694000Y108439990D01*
X-514494000Y108439990D02*
X-518594000Y108439990D01*
X-514494000Y115639990D02*
X-514494000Y113039990D01*
X-517700000Y114319990D02*
G75*
G03*
X-517700000Y114319990I-3000000J0D01*
G01*
%TO.C,ENC9*%
X-565294000Y72720000D02*
X-565294000Y70320000D01*
X-565294000Y82120000D02*
X-565294000Y79720000D01*
X-573394000Y70320000D02*
X-577494000Y70320000D01*
X-565294000Y70320000D02*
X-569394000Y70320000D01*
X-565294000Y77520000D02*
X-565294000Y74920000D01*
X-569394000Y82120000D02*
X-565294000Y82120000D01*
X-573394000Y82120000D02*
X-577494000Y82120000D01*
X-577494000Y82120000D02*
X-577494000Y70320000D01*
X-568500000Y76200000D02*
G75*
G03*
X-568500000Y76200000I-3000000J0D01*
G01*
%TO.C,G\u002A\u002A\u002A*%
G36*
X-521942198Y52777125D02*
G01*
X-521960528Y53140501D01*
X-521956655Y53503104D01*
X-521930940Y53857182D01*
X-521883746Y54194983D01*
X-521815437Y54508756D01*
X-521801188Y54561154D01*
X-521683823Y54911418D01*
X-521535500Y55238330D01*
X-521357135Y55541142D01*
X-521149645Y55819108D01*
X-520913946Y56071479D01*
X-520650957Y56297509D01*
X-520361592Y56496452D01*
X-520046769Y56667558D01*
X-519707405Y56810082D01*
X-519344415Y56923276D01*
X-518958718Y57006393D01*
X-518765693Y57035399D01*
X-518636739Y57047859D01*
X-518479463Y57056271D01*
X-518303592Y57060701D01*
X-518118849Y57061215D01*
X-517934963Y57057877D01*
X-517761658Y57050754D01*
X-517608661Y57039911D01*
X-517494982Y57026822D01*
X-517102269Y56951879D01*
X-516732860Y56846903D01*
X-516387469Y56712413D01*
X-516066812Y56548927D01*
X-515771604Y56356964D01*
X-515502561Y56137043D01*
X-515260398Y55889680D01*
X-515045830Y55615396D01*
X-514859573Y55314708D01*
X-514711468Y55009674D01*
X-514587337Y54673633D01*
X-514491398Y54313957D01*
X-514424272Y53934707D01*
X-514386584Y53539942D01*
X-514378955Y53133722D01*
X-514388096Y52901895D01*
X-514396499Y52774307D01*
X-514406137Y52647158D01*
X-514416130Y52530910D01*
X-514425596Y52436026D01*
X-514431342Y52388607D01*
X-514453305Y52228522D01*
X-514360381Y52125169D01*
X-514203283Y51923094D01*
X-514082253Y51706255D01*
X-513997100Y51474153D01*
X-513947635Y51226287D01*
X-513933522Y51005154D01*
X-513935126Y50906789D01*
X-513940650Y50813206D01*
X-513949140Y50737214D01*
X-513956072Y50702308D01*
X-514040462Y50466163D01*
X-514159827Y50241155D01*
X-514310712Y50031328D01*
X-514489663Y49840723D01*
X-514693227Y49673382D01*
X-514917951Y49533348D01*
X-514983269Y49500033D01*
X-515163630Y49412292D01*
X-515196444Y49308195D01*
X-515226989Y49225775D01*
X-515272558Y49120724D01*
X-515327893Y49003813D01*
X-515387737Y48885812D01*
X-515446833Y48777492D01*
X-515493480Y48699616D01*
X-515683901Y48434930D01*
X-515907997Y48183214D01*
X-516161572Y47947808D01*
X-516440430Y47732057D01*
X-516740372Y47539302D01*
X-517057203Y47372885D01*
X-517280770Y47276227D01*
X-517554965Y47179800D01*
X-517812659Y47113628D01*
X-518052099Y47077983D01*
X-518271529Y47073132D01*
X-518454386Y47096133D01*
X-518709168Y47161560D01*
X-518975853Y47252224D01*
X-519241489Y47363211D01*
X-519493121Y47489605D01*
X-519496640Y47491547D01*
X-519819058Y47689035D01*
X-520113644Y47909107D01*
X-520378861Y48150052D01*
X-520613171Y48410158D01*
X-520815035Y48687711D01*
X-520982917Y48981001D01*
X-521115277Y49288314D01*
X-521118588Y49297466D01*
X-521146180Y49371552D01*
X-521168788Y49418444D01*
X-521194286Y49447850D01*
X-521230547Y49469476D01*
X-521273039Y49487883D01*
X-521411196Y49557377D01*
X-521560733Y49653638D01*
X-521713133Y49769800D01*
X-521859878Y49898997D01*
X-521992450Y50034365D01*
X-522078423Y50137064D01*
X-522214294Y50340652D01*
X-522311633Y50549179D01*
X-522370814Y50763935D01*
X-522392210Y50986209D01*
X-522381093Y51181000D01*
X-522334007Y51437335D01*
X-522259164Y51671375D01*
X-522157636Y51880581D01*
X-522030498Y52062416D01*
X-521987624Y52111140D01*
X-521873446Y52234145D01*
X-521901238Y52420304D01*
X-520462331Y52420304D01*
X-520440531Y52134318D01*
X-520383744Y51857323D01*
X-520293926Y51591927D01*
X-520173029Y51340734D01*
X-520023008Y51106351D01*
X-519845816Y50891383D01*
X-519643408Y50698436D01*
X-519417736Y50530115D01*
X-519170756Y50389027D01*
X-518904420Y50277777D01*
X-518620683Y50198971D01*
X-518552299Y50185551D01*
X-518418008Y50168364D01*
X-518260319Y50159431D01*
X-518094037Y50158774D01*
X-517933963Y50166417D01*
X-517794901Y50182381D01*
X-517783104Y50184369D01*
X-517490352Y50254445D01*
X-517214274Y50358461D01*
X-516957139Y50494229D01*
X-516721211Y50659555D01*
X-516508758Y50852249D01*
X-516322046Y51070119D01*
X-516163341Y51310975D01*
X-516034910Y51572625D01*
X-515939020Y51852878D01*
X-515903509Y52001616D01*
X-515877529Y52163599D01*
X-515862960Y52334188D01*
X-515859561Y52504936D01*
X-515867089Y52667392D01*
X-515885300Y52813106D01*
X-515913953Y52933630D01*
X-515931611Y52980658D01*
X-515992146Y53072672D01*
X-516077241Y53140377D01*
X-516178905Y53181087D01*
X-516289147Y53192110D01*
X-516399976Y53170759D01*
X-516442600Y53152593D01*
X-516511407Y53102200D01*
X-516575556Y53028466D01*
X-516623062Y52946435D01*
X-516636136Y52909650D01*
X-516646514Y52846481D01*
X-516645517Y52768358D01*
X-516634286Y52672030D01*
X-516618495Y52436111D01*
X-516639037Y52206633D01*
X-516693322Y51986572D01*
X-516778762Y51778909D01*
X-516892766Y51586622D01*
X-517032744Y51412690D01*
X-517196107Y51260090D01*
X-517380264Y51131803D01*
X-517582627Y51030806D01*
X-517800604Y50960078D01*
X-518031607Y50922598D01*
X-518160000Y50917231D01*
X-518398473Y50935439D01*
X-518623697Y50988044D01*
X-518833512Y51072016D01*
X-519025759Y51184325D01*
X-519198280Y51321941D01*
X-519348914Y51481835D01*
X-519475504Y51660977D01*
X-519575890Y51856337D01*
X-519647912Y52064886D01*
X-519689412Y52283593D01*
X-519698231Y52509429D01*
X-519672209Y52739364D01*
X-519613801Y52957256D01*
X-519516226Y53181474D01*
X-519388318Y53382597D01*
X-519232574Y53558729D01*
X-519051488Y53707975D01*
X-518847555Y53828439D01*
X-518623269Y53918225D01*
X-518381126Y53975438D01*
X-518252808Y53991354D01*
X-518160000Y53999508D01*
X-518160000Y53619280D01*
X-518159181Y53502739D01*
X-518156897Y53401309D01*
X-518153411Y53320786D01*
X-518148983Y53266964D01*
X-518143874Y53245637D01*
X-518143144Y53245564D01*
X-518121324Y53259533D01*
X-518072788Y53293993D01*
X-518001220Y53346165D01*
X-517910302Y53413267D01*
X-517803714Y53492520D01*
X-517685141Y53581142D01*
X-517558262Y53676354D01*
X-517426762Y53775375D01*
X-517294321Y53875425D01*
X-517164621Y53973722D01*
X-517041345Y54067487D01*
X-516928175Y54153939D01*
X-516828793Y54230297D01*
X-516746881Y54293782D01*
X-516686120Y54341612D01*
X-516650193Y54371007D01*
X-516641767Y54379321D01*
X-516657733Y54393396D01*
X-516701972Y54428536D01*
X-516771449Y54482425D01*
X-516863130Y54552742D01*
X-516973980Y54637171D01*
X-517100964Y54733394D01*
X-517241047Y54839091D01*
X-517391194Y54951945D01*
X-517402885Y54960715D01*
X-518160000Y55528557D01*
X-518160000Y54771193D01*
X-518221058Y54758981D01*
X-518283267Y54750688D01*
X-518353233Y54746809D01*
X-518359643Y54746770D01*
X-518413033Y54742814D01*
X-518491466Y54732212D01*
X-518581854Y54716860D01*
X-518627810Y54707920D01*
X-518912455Y54630395D01*
X-519181778Y54518013D01*
X-519433024Y54372916D01*
X-519663437Y54197248D01*
X-519870261Y53993151D01*
X-520050741Y53762770D01*
X-520202122Y53508248D01*
X-520222385Y53467634D01*
X-520321966Y53238097D01*
X-520392434Y53014737D01*
X-520438018Y52783350D01*
X-520447192Y52712677D01*
X-520462331Y52420304D01*
X-521901238Y52420304D01*
X-521901301Y52420726D01*
X-521942198Y52777125D01*
G37*
%TO.C,ENC12*%
X-539894000Y70320000D02*
X-543994000Y70320000D01*
X-539894000Y77520000D02*
X-539894000Y74920000D01*
X-539894000Y72720000D02*
X-539894000Y70320000D01*
X-539894000Y82120000D02*
X-539894000Y79720000D01*
X-547994000Y82120000D02*
X-552094000Y82120000D01*
X-547994000Y70320000D02*
X-552094000Y70320000D01*
X-543994000Y82120000D02*
X-539894000Y82120000D01*
X-552094000Y82120000D02*
X-552094000Y70320000D01*
X-543100000Y76200000D02*
G75*
G03*
X-543100000Y76200000I-3000000J0D01*
G01*
%TO.C,ENC11*%
X-539894000Y89370000D02*
X-543994000Y89370000D01*
X-552094000Y101170000D02*
X-552094000Y89370000D01*
X-539894000Y101170000D02*
X-539894000Y98770000D01*
X-539894000Y96570000D02*
X-539894000Y93970000D01*
X-539894000Y91770000D02*
X-539894000Y89370000D01*
X-543994000Y101170000D02*
X-539894000Y101170000D01*
X-547994000Y89370000D02*
X-552094000Y89370000D01*
X-547994000Y101170000D02*
X-552094000Y101170000D01*
X-543100000Y95250000D02*
G75*
G03*
X-543100000Y95250000I-3000000J0D01*
G01*
%TO.C,ENC2*%
X-624194000Y101170000D02*
X-628294000Y101170000D01*
X-616094000Y96570000D02*
X-616094000Y93970000D01*
X-620194000Y101170000D02*
X-616094000Y101170000D01*
X-616094000Y101170000D02*
X-616094000Y98770000D01*
X-616094000Y91770000D02*
X-616094000Y89370000D01*
X-628294000Y101170000D02*
X-628294000Y89370000D01*
X-616094000Y89370000D02*
X-620194000Y89370000D01*
X-624194000Y89370000D02*
X-628294000Y89370000D01*
X-619300000Y95250000D02*
G75*
G03*
X-619300000Y95250000I-3000000J0D01*
G01*
D10*
%TO.C,U1*%
X-619760000Y44450000D02*
X-619760000Y52070000D01*
X-619760000Y52070000D02*
X-618490000Y52070000D01*
X-613410000Y44450000D02*
X-618490000Y44450000D01*
X-557530000Y39370000D02*
X-618490000Y39370000D01*
X-613410000Y52070000D02*
X-618490000Y52070000D01*
X-613410000Y44450000D02*
X-613410000Y52070000D01*
X-618490000Y44450000D02*
X-619760000Y44450000D01*
X-618490000Y57150000D02*
X-557530000Y57150000D01*
X-618490000Y39370000D02*
X-618490000Y57150000D01*
X-557530000Y57150000D02*
X-557530000Y39370000D01*
D13*
%TO.C,ENC3*%
X-628294000Y82120000D02*
X-628294000Y70320000D01*
X-616094000Y72720000D02*
X-616094000Y70320000D01*
X-616094000Y77520000D02*
X-616094000Y74920000D01*
X-624194000Y70320000D02*
X-628294000Y70320000D01*
X-616094000Y70320000D02*
X-620194000Y70320000D01*
X-624194000Y82120000D02*
X-628294000Y82120000D01*
X-616094000Y82120000D02*
X-616094000Y79720000D01*
X-620194000Y82120000D02*
X-616094000Y82120000D01*
X-619300000Y76200000D02*
G75*
G03*
X-619300000Y76200000I-3000000J0D01*
G01*
%TD*%
%LPC*%
D14*
%TO.C,ENC4*%
X-604294000Y116820000D03*
X-589794000Y116820000D03*
X-589794000Y111820000D03*
X-604294000Y114320000D03*
X-604294000Y111820000D03*
X-607060000Y116840000D03*
X-586740000Y116840000D03*
X-607060000Y111760000D03*
X-586740000Y111760000D03*
X-601980000Y121920000D03*
X-601980000Y106680000D03*
D15*
X-596794000Y108720000D03*
X-596794000Y119920000D03*
D14*
X-607060000Y114300000D03*
X-586740000Y114300000D03*
%TD*%
D16*
%TO.C,REF\u002A\u002A*%
X-548640000Y60960000D03*
X-548640000Y60960000D03*
D17*
X-548640000Y58420000D03*
X-548640000Y55880000D03*
X-548640000Y53340000D03*
X-548640000Y50800000D03*
X-548640000Y48260000D03*
X-548640000Y45720000D03*
X-548640000Y43180000D03*
X-548640000Y40640000D03*
X-548640000Y38100000D03*
X-548640000Y35560000D03*
%TD*%
D14*
%TO.C,ENC10*%
X-553494000Y116820000D03*
X-553494000Y114320000D03*
X-538994000Y111820000D03*
X-538994000Y116820000D03*
X-553494000Y111820000D03*
X-556260000Y116840000D03*
X-535940000Y116840000D03*
X-556260000Y111760000D03*
X-535940000Y111760000D03*
X-551180000Y121920000D03*
X-551180000Y106680000D03*
D15*
X-545994000Y108720000D03*
X-545994000Y119920000D03*
D14*
X-556260000Y114300000D03*
X-535940000Y114300000D03*
%TD*%
D16*
%TO.C,REF\u002A\u002A*%
X-541020000Y60960000D03*
X-541020000Y60960000D03*
D17*
X-541020000Y58420000D03*
X-541020000Y55880000D03*
X-541020000Y53340000D03*
X-541020000Y50800000D03*
X-541020000Y48260000D03*
X-541020000Y45720000D03*
X-541020000Y43180000D03*
X-541020000Y40640000D03*
X-541020000Y38100000D03*
X-541020000Y35560000D03*
%TD*%
D18*
%TO.C,REF\u002A\u002A*%
X-637540000Y38100000D03*
X-637540000Y38100000D03*
D19*
X-637540000Y38100000D03*
%TD*%
D16*
%TO.C,REF\u002A\u002A*%
X-556260000Y60960000D03*
X-556260000Y60960000D03*
D17*
X-556260000Y58420000D03*
X-556260000Y55880000D03*
X-556260000Y53340000D03*
X-556260000Y50800000D03*
X-556260000Y48260000D03*
X-556260000Y45720000D03*
X-556260000Y43180000D03*
X-556260000Y40640000D03*
X-556260000Y38100000D03*
X-556260000Y35560000D03*
%TD*%
D14*
%TO.C,ENC7*%
X-578894000Y116820000D03*
X-564394000Y116820000D03*
X-564394000Y111820000D03*
X-578894000Y114320000D03*
X-578894000Y111820000D03*
X-581660000Y116840000D03*
X-561340000Y116840000D03*
X-581660000Y111760000D03*
X-561340000Y111760000D03*
X-576580000Y121920000D03*
X-576580000Y106680000D03*
D15*
X-571394000Y108720000D03*
X-571394000Y119920000D03*
D14*
X-581660000Y114300000D03*
X-561340000Y114300000D03*
%TD*%
D16*
%TO.C,J2*%
X-558800000Y58420000D03*
D17*
X-561340000Y58420000D03*
X-563880000Y58420000D03*
X-566420000Y58420000D03*
X-568960000Y58420000D03*
X-571500000Y58420000D03*
X-574040000Y58420000D03*
X-576580000Y58420000D03*
X-579120000Y58420000D03*
X-581660000Y58420000D03*
X-584200000Y58420000D03*
X-586740000Y58420000D03*
X-589280000Y58420000D03*
X-591820000Y58420000D03*
X-594360000Y58420000D03*
X-596900000Y58420000D03*
X-599440000Y58420000D03*
X-601980000Y58420000D03*
X-604520000Y58420000D03*
X-607060000Y58420000D03*
X-609600000Y58420000D03*
X-612140000Y58420000D03*
X-614680000Y58420000D03*
X-617220000Y58420000D03*
%TD*%
D16*
%TO.C,REF\u002A\u002A*%
X-533400000Y60960000D03*
X-533400000Y60960000D03*
D17*
X-533400000Y58420000D03*
X-533400000Y55880000D03*
X-533400000Y53340000D03*
X-533400000Y50800000D03*
X-533400000Y48260000D03*
X-533400000Y45720000D03*
X-533400000Y43180000D03*
X-533400000Y40640000D03*
X-533400000Y38100000D03*
X-533400000Y35560000D03*
%TD*%
D14*
%TO.C,ENC1*%
X-629694000Y116820000D03*
X-615194000Y116820000D03*
X-629694000Y114320000D03*
X-615194000Y111820000D03*
X-629694000Y111820000D03*
X-632460000Y116840000D03*
X-612140000Y116840000D03*
X-632460000Y111760000D03*
X-612140000Y111760000D03*
X-627380000Y121920000D03*
X-627380000Y106680000D03*
D15*
X-622194000Y119920000D03*
X-622194000Y108720000D03*
D14*
X-632460000Y114300000D03*
X-612140000Y114300000D03*
%TD*%
D16*
%TO.C,REF\u002A\u002A*%
X-535940000Y60960000D03*
X-535940000Y60960000D03*
D17*
X-535940000Y58420000D03*
X-535940000Y55880000D03*
X-535940000Y53340000D03*
X-535940000Y50800000D03*
X-535940000Y48260000D03*
X-535940000Y45720000D03*
X-535940000Y43180000D03*
X-535940000Y40640000D03*
X-535940000Y38100000D03*
X-535940000Y35560000D03*
%TD*%
D14*
%TO.C,ENC15*%
X-528094000Y78720000D03*
X-513594000Y78720000D03*
X-528094000Y76220000D03*
X-513594000Y73720000D03*
X-528094000Y73720000D03*
X-530860000Y78740000D03*
X-510540000Y78740000D03*
X-530860000Y73660000D03*
X-510540000Y73660000D03*
X-525780000Y83820000D03*
X-525780000Y68580000D03*
D15*
X-520594000Y81820000D03*
X-520594000Y70620000D03*
D14*
X-530860000Y76200000D03*
X-510540000Y76200000D03*
%TD*%
D16*
%TO.C,REF\u002A\u002A*%
X-551180000Y60960000D03*
X-551180000Y60960000D03*
D17*
X-551180000Y58420000D03*
X-551180000Y55880000D03*
X-551180000Y53340000D03*
X-551180000Y50800000D03*
X-551180000Y48260000D03*
X-551180000Y45720000D03*
X-551180000Y43180000D03*
X-551180000Y40640000D03*
X-551180000Y38100000D03*
X-551180000Y35560000D03*
%TD*%
D14*
%TO.C,ENC8*%
X-564394000Y92770000D03*
X-564394000Y97770000D03*
X-578894000Y97770000D03*
X-578894000Y95270000D03*
X-578894000Y92770000D03*
X-581660000Y97790000D03*
X-561340000Y97790000D03*
X-581660000Y92710000D03*
X-561340000Y92710000D03*
X-576580000Y102870000D03*
X-576580000Y87630000D03*
D15*
X-571394000Y89670000D03*
X-571394000Y100870000D03*
D14*
X-581660000Y95250000D03*
X-561340000Y95250000D03*
%TD*%
D16*
%TO.C,REF\u002A\u002A*%
X-553720000Y60960000D03*
X-553720000Y60960000D03*
D17*
X-553720000Y58420000D03*
X-553720000Y55880000D03*
X-553720000Y53340000D03*
X-553720000Y50800000D03*
X-553720000Y48260000D03*
X-553720000Y45720000D03*
X-553720000Y43180000D03*
X-553720000Y40640000D03*
X-553720000Y38100000D03*
X-553720000Y35560000D03*
%TD*%
D14*
%TO.C,ENC6*%
X-604294000Y78720000D03*
X-604294000Y76220000D03*
X-589794000Y73720000D03*
X-589794000Y78720000D03*
X-604294000Y73720000D03*
X-607060000Y78740000D03*
X-586740000Y78740000D03*
X-607060000Y73660000D03*
X-586740000Y73660000D03*
X-601980000Y83820000D03*
X-601980000Y68580000D03*
D15*
X-596794000Y70620000D03*
X-596794000Y81820000D03*
D14*
X-607060000Y76200000D03*
X-586740000Y76200000D03*
%TD*%
%TO.C,ENC14*%
X-528094000Y97770000D03*
X-513594000Y92770000D03*
X-528094000Y95270000D03*
X-513594000Y97770000D03*
X-528094000Y92770000D03*
X-530860000Y97790000D03*
X-510540000Y97790000D03*
X-530860000Y92710000D03*
X-510540000Y92710000D03*
X-525780000Y102870000D03*
X-525780000Y87630000D03*
D15*
X-520594000Y89670000D03*
X-520594000Y100870000D03*
D14*
X-530860000Y95250000D03*
X-510540000Y95250000D03*
%TD*%
D18*
%TO.C,REF\u002A\u002A*%
X-513080000Y38100000D03*
X-513080000Y38100000D03*
D19*
X-513080000Y38100000D03*
%TD*%
D14*
%TO.C,ENC5*%
X-589794000Y92770000D03*
X-604294000Y97770000D03*
X-589794000Y97770000D03*
X-604294000Y95270000D03*
X-604294000Y92770000D03*
X-607060000Y97790000D03*
X-586740000Y97790000D03*
X-607060000Y92710000D03*
X-586740000Y92710000D03*
X-601980000Y102870000D03*
X-601980000Y87630000D03*
D15*
X-596794000Y100870000D03*
X-596794000Y89670000D03*
D14*
X-607060000Y95250000D03*
X-586740000Y95250000D03*
%TD*%
%TO.C,ENC13*%
X-513594000Y111839990D03*
X-528094000Y116839990D03*
X-528094000Y114339990D03*
X-513594000Y116839990D03*
X-528094000Y111839990D03*
X-530860000Y116859990D03*
X-510540000Y116859990D03*
X-530860000Y111779990D03*
X-510540000Y111779990D03*
X-525780000Y121939990D03*
X-525780000Y106699990D03*
D15*
X-520594000Y108739990D03*
X-520594000Y119939990D03*
D14*
X-530860000Y114319990D03*
X-510540000Y114319990D03*
%TD*%
%TO.C,ENC9*%
X-578894000Y76220000D03*
X-564394000Y73720000D03*
X-564394000Y78720000D03*
X-578894000Y78720000D03*
X-578894000Y73720000D03*
X-581660000Y78740000D03*
X-561340000Y78740000D03*
X-581660000Y73660000D03*
X-561340000Y73660000D03*
X-576580000Y83820000D03*
X-576580000Y68580000D03*
D15*
X-571394000Y81820000D03*
X-571394000Y70620000D03*
D14*
X-581660000Y76200000D03*
X-561340000Y76200000D03*
%TD*%
%TO.C,ENC12*%
X-553494000Y76220000D03*
X-538994000Y73720000D03*
X-538994000Y78720000D03*
X-553494000Y78720000D03*
X-553494000Y73720000D03*
X-556260000Y78740000D03*
X-535940000Y78740000D03*
X-556260000Y73660000D03*
X-535940000Y73660000D03*
X-551180000Y83820000D03*
X-551180000Y68580000D03*
D15*
X-545994000Y81820000D03*
X-545994000Y70620000D03*
D14*
X-556260000Y76200000D03*
X-535940000Y76200000D03*
%TD*%
%TO.C,ENC11*%
X-553494000Y97770000D03*
X-553494000Y95270000D03*
X-538994000Y92770000D03*
X-538994000Y97770000D03*
X-553494000Y92770000D03*
X-556260000Y97790000D03*
X-535940000Y97790000D03*
X-556260000Y92710000D03*
X-535940000Y92710000D03*
X-551180000Y102870000D03*
X-551180000Y87630000D03*
D15*
X-545994000Y89670000D03*
X-545994000Y100870000D03*
D14*
X-556260000Y95250000D03*
X-535940000Y95250000D03*
%TD*%
D16*
%TO.C,REF\u002A\u002A*%
X-530860000Y60960000D03*
X-530860000Y60960000D03*
D17*
X-530860000Y58420000D03*
X-530860000Y55880000D03*
X-530860000Y53340000D03*
X-530860000Y50800000D03*
X-530860000Y48260000D03*
X-530860000Y45720000D03*
X-530860000Y43180000D03*
X-530860000Y40640000D03*
X-530860000Y38100000D03*
X-530860000Y35560000D03*
%TD*%
D16*
%TO.C,J1*%
X-558800000Y60960000D03*
D17*
X-561340000Y60960000D03*
X-563880000Y60960000D03*
X-566420000Y60960000D03*
X-568960000Y60960000D03*
X-571500000Y60960000D03*
X-574040000Y60960000D03*
X-576580000Y60960000D03*
X-579120000Y60960000D03*
X-581660000Y60960000D03*
X-584200000Y60960000D03*
X-586740000Y60960000D03*
X-589280000Y60960000D03*
X-591820000Y60960000D03*
X-594360000Y60960000D03*
X-596900000Y60960000D03*
X-599440000Y60960000D03*
X-601980000Y60960000D03*
X-604520000Y60960000D03*
X-607060000Y60960000D03*
X-609600000Y60960000D03*
X-612140000Y60960000D03*
X-614680000Y60960000D03*
X-617220000Y60960000D03*
%TD*%
D14*
%TO.C,ENC2*%
X-629694000Y95270000D03*
X-615194000Y97770000D03*
X-615194000Y92770000D03*
X-629694000Y97770000D03*
X-629694000Y92770000D03*
X-632460000Y97790000D03*
X-612140000Y97790000D03*
X-632460000Y92710000D03*
X-612140000Y92710000D03*
X-627380000Y102870000D03*
X-627380000Y87630000D03*
D15*
X-622194000Y100870000D03*
X-622194000Y89670000D03*
D14*
X-632460000Y95250000D03*
X-612140000Y95250000D03*
%TD*%
D20*
%TO.C,U1*%
X-617220000Y40640000D03*
D21*
X-614680000Y40640000D03*
X-612140000Y40640000D03*
X-609600000Y40640000D03*
X-607060000Y40640000D03*
X-604520000Y40640000D03*
X-601980000Y40640000D03*
X-599440000Y40640000D03*
X-596900000Y40640000D03*
X-594360000Y40640000D03*
X-591820000Y40640000D03*
X-589280000Y40640000D03*
X-586740000Y40640000D03*
X-584200000Y40640000D03*
X-581660000Y40640000D03*
X-579120000Y40640000D03*
X-576580000Y40640000D03*
X-574040000Y40640000D03*
X-571500000Y40640000D03*
X-568960000Y40640000D03*
X-566420000Y40640000D03*
X-563880000Y40640000D03*
X-561340000Y40640000D03*
X-558800000Y40640000D03*
X-558800000Y55880000D03*
X-561340000Y55880000D03*
X-563880000Y55880000D03*
X-566420000Y55880000D03*
X-568960000Y55880000D03*
X-571500000Y55880000D03*
X-574040000Y55880000D03*
X-576580000Y55880000D03*
X-579120000Y55880000D03*
X-581660000Y55880000D03*
X-584200000Y55880000D03*
X-586740000Y55880000D03*
X-589280000Y55880000D03*
X-591820000Y55880000D03*
X-594360000Y55880000D03*
X-596900000Y55880000D03*
X-599440000Y55880000D03*
X-601980000Y55880000D03*
X-604520000Y55880000D03*
X-607060000Y55880000D03*
X-609600000Y55880000D03*
X-612140000Y55880000D03*
X-614680000Y55880000D03*
X-617220000Y55880000D03*
%TD*%
D16*
%TO.C,J3*%
X-617220000Y38100000D03*
D17*
X-614680000Y38100000D03*
X-612140000Y38100000D03*
X-609600000Y38100000D03*
X-607060000Y38100000D03*
X-604520000Y38100000D03*
X-601980000Y38100000D03*
X-599440000Y38100000D03*
X-596900000Y38100000D03*
X-594360000Y38100000D03*
X-591820000Y38100000D03*
X-589280000Y38100000D03*
X-586740000Y38100000D03*
X-584200000Y38100000D03*
X-581660000Y38100000D03*
X-579120000Y38100000D03*
X-576580000Y38100000D03*
X-574040000Y38100000D03*
X-571500000Y38100000D03*
X-568960000Y38100000D03*
X-566420000Y38100000D03*
X-563880000Y38100000D03*
X-561340000Y38100000D03*
X-558800000Y38100000D03*
%TD*%
D16*
%TO.C,REF\u002A\u002A*%
X-538480000Y60960000D03*
X-538480000Y60960000D03*
D17*
X-538480000Y58420000D03*
X-538480000Y55880000D03*
X-538480000Y53340000D03*
X-538480000Y50800000D03*
X-538480000Y48260000D03*
X-538480000Y45720000D03*
X-538480000Y43180000D03*
X-538480000Y40640000D03*
X-538480000Y38100000D03*
X-538480000Y35560000D03*
%TD*%
D14*
%TO.C,ENC3*%
X-629694000Y76220000D03*
X-615194000Y73720000D03*
X-629694000Y78720000D03*
X-615194000Y78720000D03*
X-629694000Y73720000D03*
X-632460000Y78740000D03*
X-612140000Y78740000D03*
X-632460000Y73660000D03*
X-612140000Y73660000D03*
X-627380000Y83820000D03*
X-627380000Y68580000D03*
D15*
X-622194000Y70620000D03*
X-622194000Y81820000D03*
D14*
X-632460000Y76200000D03*
X-612140000Y76200000D03*
%TD*%
D16*
%TO.C,J4*%
X-617220000Y35560000D03*
D17*
X-614680000Y35560000D03*
X-612140000Y35560000D03*
X-609600000Y35560000D03*
X-607060000Y35560000D03*
X-604520000Y35560000D03*
X-601980000Y35560000D03*
X-599440000Y35560000D03*
X-596900000Y35560000D03*
X-594360000Y35560000D03*
X-591820000Y35560000D03*
X-589280000Y35560000D03*
X-586740000Y35560000D03*
X-584200000Y35560000D03*
X-581660000Y35560000D03*
X-579120000Y35560000D03*
X-576580000Y35560000D03*
X-574040000Y35560000D03*
X-571500000Y35560000D03*
X-568960000Y35560000D03*
X-566420000Y35560000D03*
X-563880000Y35560000D03*
X-561340000Y35560000D03*
X-558800000Y35560000D03*
%TD*%
D16*
%TO.C,REF\u002A\u002A*%
X-546100000Y60960000D03*
X-546100000Y60960000D03*
D17*
X-546100000Y58420000D03*
X-546100000Y55880000D03*
X-546100000Y53340000D03*
X-546100000Y50800000D03*
X-546100000Y48260000D03*
X-546100000Y45720000D03*
X-546100000Y43180000D03*
X-546100000Y40640000D03*
X-546100000Y38100000D03*
X-546100000Y35560000D03*
%TD*%
D16*
%TO.C,REF\u002A\u002A*%
X-543560000Y60960000D03*
X-543560000Y60960000D03*
D17*
X-543560000Y58420000D03*
X-543560000Y55880000D03*
X-543560000Y53340000D03*
X-543560000Y50800000D03*
X-543560000Y48260000D03*
X-543560000Y45720000D03*
X-543560000Y43180000D03*
X-543560000Y40640000D03*
X-543560000Y38100000D03*
X-543560000Y35560000D03*
%TD*%
M02*
