M48
; DRILL file {KiCad (6.0.0)} date Tue Aug  9 18:08:16 2022
; FORMAT={-:-/ absolute / inch / decimal}
; #@! TF.CreationDate,2022-08-09T18:08:16+02:00
; #@! TF.GenerationSoftware,Kicad,Pcbnew,(6.0.0)
; #@! TF.FileFunction,Plated,1,2,PTH
FMAT,2
INCH
; #@! TA.AperFunction,Plated,PTH,ComponentDrill
T1C0.0394
; #@! TA.AperFunction,Plated,PTH,ComponentDrill
T2C0.0433
; #@! TA.AperFunction,Plated,PTH,ComponentDrill
T3C0.0591
; #@! TA.AperFunction,Plated,PTH,ComponentDrill
T4C0.1260
%
G90
G05
T1
X-24.9Y4.6
X-24.9Y4.5
X-24.9Y4.4
X-24.9Y3.85
X-24.9Y3.75
X-24.9Y3.65
X-24.9Y3.1
X-24.9Y3.0
X-24.9Y2.9
X-24.7911Y4.5992
X-24.7911Y4.5008
X-24.7911Y4.4024
X-24.7911Y3.8492
X-24.7911Y3.7508
X-24.7911Y3.6524
X-24.7911Y3.0992
X-24.7911Y3.0008
X-24.7911Y2.9024
X-24.7Y4.8
X-24.7Y4.2
X-24.7Y4.05
X-24.7Y3.45
X-24.7Y3.3
X-24.7Y2.7
X-24.3Y2.4
X-24.3Y2.3
X-24.3Y1.5
X-24.3Y1.4
X-24.2202Y4.5992
X-24.2202Y4.4024
X-24.2202Y3.8492
X-24.2202Y3.6524
X-24.2202Y3.0992
X-24.2202Y2.9024
X-24.2Y2.4
X-24.2Y2.3
X-24.2Y1.5
X-24.2Y1.4
X-24.1Y4.6
X-24.1Y4.5
X-24.1Y4.4
X-24.1Y3.85
X-24.1Y3.75
X-24.1Y3.65
X-24.1Y3.1
X-24.1Y3.0
X-24.1Y2.9
X-24.1Y2.4
X-24.1Y2.3
X-24.1Y1.5
X-24.1Y1.4
X-24.0Y2.4
X-24.0Y2.3
X-24.0Y1.5
X-24.0Y1.4
X-23.9Y4.6
X-23.9Y4.5
X-23.9Y4.4
X-23.9Y3.85
X-23.9Y3.75
X-23.9Y3.65
X-23.9Y3.1
X-23.9Y3.0
X-23.9Y2.9
X-23.9Y2.4
X-23.9Y2.3
X-23.9Y1.5
X-23.9Y1.4
X-23.8Y2.4
X-23.8Y2.3
X-23.8Y1.5
X-23.8Y1.4
X-23.7911Y4.5992
X-23.7911Y4.5008
X-23.7911Y4.4024
X-23.7911Y3.8492
X-23.7911Y3.7508
X-23.7911Y3.6524
X-23.7911Y3.0992
X-23.7911Y3.0008
X-23.7911Y2.9024
X-23.7Y4.8
X-23.7Y4.2
X-23.7Y4.05
X-23.7Y3.45
X-23.7Y3.3
X-23.7Y2.7
X-23.7Y2.4
X-23.7Y2.3
X-23.7Y1.5
X-23.7Y1.4
X-23.6Y2.4
X-23.6Y2.3
X-23.6Y1.5
X-23.6Y1.4
X-23.5Y2.4
X-23.5Y2.3
X-23.5Y1.5
X-23.5Y1.4
X-23.4Y2.4
X-23.4Y2.3
X-23.4Y1.5
X-23.4Y1.4
X-23.3Y2.4
X-23.3Y2.3
X-23.3Y1.5
X-23.3Y1.4
X-23.2202Y4.5992
X-23.2202Y4.4024
X-23.2202Y3.8492
X-23.2202Y3.6524
X-23.2202Y3.0992
X-23.2202Y2.9024
X-23.2Y2.4
X-23.2Y2.3
X-23.2Y1.5
X-23.2Y1.4
X-23.1Y4.6
X-23.1Y4.5
X-23.1Y4.4
X-23.1Y3.85
X-23.1Y3.75
X-23.1Y3.65
X-23.1Y3.1
X-23.1Y3.0
X-23.1Y2.9
X-23.1Y2.4
X-23.1Y2.3
X-23.1Y1.5
X-23.1Y1.4
X-23.0Y2.4
X-23.0Y2.3
X-23.0Y1.5
X-23.0Y1.4
X-22.9Y4.6
X-22.9Y4.5
X-22.9Y4.4
X-22.9Y3.85
X-22.9Y3.75
X-22.9Y3.65
X-22.9Y3.1
X-22.9Y3.0
X-22.9Y2.9
X-22.9Y2.4
X-22.9Y2.3
X-22.9Y1.5
X-22.9Y1.4
X-22.8Y2.4
X-22.8Y2.3
X-22.8Y1.5
X-22.8Y1.4
X-22.7911Y4.5992
X-22.7911Y4.5008
X-22.7911Y4.4024
X-22.7911Y3.8492
X-22.7911Y3.7508
X-22.7911Y3.6524
X-22.7911Y3.0992
X-22.7911Y3.0008
X-22.7911Y2.9024
X-22.7Y4.8
X-22.7Y4.2
X-22.7Y4.05
X-22.7Y3.45
X-22.7Y3.3
X-22.7Y2.7
X-22.7Y2.4
X-22.7Y2.3
X-22.7Y1.5
X-22.7Y1.4
X-22.6Y2.4
X-22.6Y2.3
X-22.6Y1.5
X-22.6Y1.4
X-22.5Y2.4
X-22.5Y2.3
X-22.5Y1.5
X-22.5Y1.4
X-22.4Y2.4
X-22.4Y2.3
X-22.4Y1.5
X-22.4Y1.4
X-22.3Y2.4
X-22.3Y2.3
X-22.3Y1.5
X-22.3Y1.4
X-22.2202Y4.5992
X-22.2202Y4.4024
X-22.2202Y3.8492
X-22.2202Y3.6524
X-22.2202Y3.0992
X-22.2202Y2.9024
X-22.2Y2.4
X-22.2Y2.3
X-22.2Y1.5
X-22.2Y1.4
X-22.1Y4.6
X-22.1Y4.5
X-22.1Y4.4
X-22.1Y3.85
X-22.1Y3.75
X-22.1Y3.65
X-22.1Y3.1
X-22.1Y3.0
X-22.1Y2.9
X-22.1Y2.4
X-22.1Y2.3
X-22.1Y1.5
X-22.1Y1.4
X-22.0Y2.4
X-22.0Y2.3
X-22.0Y1.5
X-22.0Y1.4
X-21.9Y4.6
X-21.9Y4.5
X-21.9Y4.4
X-21.9Y3.85
X-21.9Y3.75
X-21.9Y3.65
X-21.9Y3.1
X-21.9Y3.0
X-21.9Y2.9
X-21.9Y2.4
X-21.9Y2.4
X-21.9Y2.3
X-21.9Y2.2
X-21.9Y2.1
X-21.9Y2.0
X-21.9Y1.9
X-21.9Y1.8
X-21.9Y1.7
X-21.9Y1.6
X-21.9Y1.5
X-21.9Y1.4
X-21.8Y2.4
X-21.8Y2.4
X-21.8Y2.3
X-21.8Y2.2
X-21.8Y2.1
X-21.8Y2.0
X-21.8Y1.9
X-21.8Y1.8
X-21.8Y1.7
X-21.8Y1.6
X-21.8Y1.5
X-21.8Y1.4
X-21.7911Y4.5992
X-21.7911Y4.5008
X-21.7911Y4.4024
X-21.7911Y3.8492
X-21.7911Y3.7508
X-21.7911Y3.6524
X-21.7911Y3.0992
X-21.7911Y3.0008
X-21.7911Y2.9024
X-21.7Y4.8
X-21.7Y4.2
X-21.7Y4.05
X-21.7Y3.45
X-21.7Y3.3
X-21.7Y2.7
X-21.7Y2.4
X-21.7Y2.4
X-21.7Y2.3
X-21.7Y2.2
X-21.7Y2.1
X-21.7Y2.0
X-21.7Y1.9
X-21.7Y1.8
X-21.7Y1.7
X-21.7Y1.6
X-21.7Y1.5
X-21.7Y1.4
X-21.6Y2.4
X-21.6Y2.4
X-21.6Y2.3
X-21.6Y2.2
X-21.6Y2.1
X-21.6Y2.0
X-21.6Y1.9
X-21.6Y1.8
X-21.6Y1.7
X-21.6Y1.6
X-21.6Y1.5
X-21.6Y1.4
X-21.5Y2.4
X-21.5Y2.4
X-21.5Y2.3
X-21.5Y2.2
X-21.5Y2.1
X-21.5Y2.0
X-21.5Y1.9
X-21.5Y1.8
X-21.5Y1.7
X-21.5Y1.6
X-21.5Y1.5
X-21.5Y1.4
X-21.4Y2.4
X-21.4Y2.4
X-21.4Y2.3
X-21.4Y2.2
X-21.4Y2.1
X-21.4Y2.0
X-21.4Y1.9
X-21.4Y1.8
X-21.4Y1.7
X-21.4Y1.6
X-21.4Y1.5
X-21.4Y1.4
X-21.3Y2.4
X-21.3Y2.4
X-21.3Y2.3
X-21.3Y2.2
X-21.3Y2.1
X-21.3Y2.0
X-21.3Y1.9
X-21.3Y1.8
X-21.3Y1.7
X-21.3Y1.6
X-21.3Y1.5
X-21.3Y1.4
X-21.2202Y4.5992
X-21.2202Y4.4024
X-21.2202Y3.8492
X-21.2202Y3.6524
X-21.2202Y3.0992
X-21.2202Y2.9024
X-21.2Y2.4
X-21.2Y2.4
X-21.2Y2.3
X-21.2Y2.2
X-21.2Y2.1
X-21.2Y2.0
X-21.2Y1.9
X-21.2Y1.8
X-21.2Y1.7
X-21.2Y1.6
X-21.2Y1.5
X-21.2Y1.4
X-21.1Y4.6
X-21.1Y4.5
X-21.1Y4.4
X-21.1Y3.85
X-21.1Y3.75
X-21.1Y3.65
X-21.1Y3.1
X-21.1Y3.0
X-21.1Y2.9
X-21.1Y2.4
X-21.1Y2.4
X-21.1Y2.3
X-21.1Y2.2
X-21.1Y2.1
X-21.1Y2.0
X-21.1Y1.9
X-21.1Y1.8
X-21.1Y1.7
X-21.1Y1.6
X-21.1Y1.5
X-21.1Y1.4
X-21.0Y2.4
X-21.0Y2.4
X-21.0Y2.3
X-21.0Y2.2
X-21.0Y2.1
X-21.0Y2.0
X-21.0Y1.9
X-21.0Y1.8
X-21.0Y1.7
X-21.0Y1.6
X-21.0Y1.5
X-21.0Y1.4
X-20.9Y4.6008
X-20.9Y4.5008
X-20.9Y4.4008
X-20.9Y3.85
X-20.9Y3.75
X-20.9Y3.65
X-20.9Y3.1
X-20.9Y3.0
X-20.9Y2.9
X-20.9Y2.4
X-20.9Y2.4
X-20.9Y2.3
X-20.9Y2.2
X-20.9Y2.1
X-20.9Y2.0
X-20.9Y1.9
X-20.9Y1.8
X-20.9Y1.7
X-20.9Y1.6
X-20.9Y1.5
X-20.9Y1.4
X-20.7911Y4.6
X-20.7911Y4.5016
X-20.7911Y4.4031
X-20.7911Y3.8492
X-20.7911Y3.7508
X-20.7911Y3.6524
X-20.7911Y3.0992
X-20.7911Y3.0008
X-20.7911Y2.9024
X-20.7Y4.8008
X-20.7Y4.2008
X-20.7Y4.05
X-20.7Y3.45
X-20.7Y3.3
X-20.7Y2.7
X-20.2202Y4.6
X-20.2202Y4.4031
X-20.2202Y3.8492
X-20.2202Y3.6524
X-20.2202Y3.0992
X-20.2202Y2.9024
X-20.1Y4.6008
X-20.1Y4.5008
X-20.1Y4.4008
X-20.1Y3.85
X-20.1Y3.75
X-20.1Y3.65
X-20.1Y3.1
X-20.1Y3.0
X-20.1Y2.9
T2
X-24.3Y2.2
X-24.3Y1.6
X-24.2Y2.2
X-24.2Y1.6
X-24.1Y2.2
X-24.1Y1.6
X-24.0Y2.2
X-24.0Y1.6
X-23.9Y2.2
X-23.9Y1.6
X-23.8Y2.2
X-23.8Y1.6
X-23.7Y2.2
X-23.7Y1.6
X-23.6Y2.2
X-23.6Y1.6
X-23.5Y2.2
X-23.5Y1.6
X-23.4Y2.2
X-23.4Y1.6
X-23.3Y2.2
X-23.3Y1.6
X-23.2Y2.2
X-23.2Y1.6
X-23.1Y2.2
X-23.1Y1.6
X-23.0Y2.2
X-23.0Y1.6
X-22.9Y2.2
X-22.9Y1.6
X-22.8Y2.2
X-22.8Y1.6
X-22.7Y2.2
X-22.7Y1.6
X-22.6Y2.2
X-22.6Y1.6
X-22.5Y2.2
X-22.5Y1.6
X-22.4Y2.2
X-22.4Y1.6
X-22.3Y2.2
X-22.3Y1.6
X-22.2Y2.2
X-22.2Y1.6
X-22.1Y2.2
X-22.1Y1.6
X-22.0Y2.2
X-22.0Y1.6
T4
X-25.1Y1.5
X-20.2Y1.5
T3
G00X-24.5214Y4.7213
M15
G01X-24.4702Y4.7213
M16
G05
G00X-24.5214Y4.2803
M15
G01X-24.4702Y4.2803
M16
G05
G00X-24.5214Y3.9713
M15
G01X-24.4702Y3.9713
M16
G05
G00X-24.5214Y3.5303
M15
G01X-24.4702Y3.5303
M16
G05
G00X-24.5214Y3.2213
M15
G01X-24.4702Y3.2213
M16
G05
G00X-24.5214Y2.7803
M15
G01X-24.4702Y2.7803
M16
G05
G00X-23.5214Y4.7213
M15
G01X-23.4702Y4.7213
M16
G05
G00X-23.5214Y4.2803
M15
G01X-23.4702Y4.2803
M16
G05
G00X-23.5214Y3.9713
M15
G01X-23.4702Y3.9713
M16
G05
G00X-23.5214Y3.5303
M15
G01X-23.4702Y3.5303
M16
G05
G00X-23.5214Y3.2213
M15
G01X-23.4702Y3.2213
M16
G05
G00X-23.5214Y2.7803
M15
G01X-23.4702Y2.7803
M16
G05
G00X-22.5214Y4.7213
M15
G01X-22.4702Y4.7213
M16
G05
G00X-22.5214Y4.2803
M15
G01X-22.4702Y4.2803
M16
G05
G00X-22.5214Y3.9713
M15
G01X-22.4702Y3.9713
M16
G05
G00X-22.5214Y3.5303
M15
G01X-22.4702Y3.5303
M16
G05
G00X-22.5214Y3.2213
M15
G01X-22.4702Y3.2213
M16
G05
G00X-22.5214Y2.7803
M15
G01X-22.4702Y2.7803
M16
G05
G00X-21.5214Y4.7213
M15
G01X-21.4702Y4.7213
M16
G05
G00X-21.5214Y4.2803
M15
G01X-21.4702Y4.2803
M16
G05
G00X-21.5214Y3.9713
M15
G01X-21.4702Y3.9713
M16
G05
G00X-21.5214Y3.5303
M15
G01X-21.4702Y3.5303
M16
G05
G00X-21.5214Y3.2213
M15
G01X-21.4702Y3.2213
M16
G05
G00X-21.5214Y2.7803
M15
G01X-21.4702Y2.7803
M16
G05
G00X-20.5214Y4.722
M15
G01X-20.4702Y4.722
M16
G05
G00X-20.5214Y4.2811
M15
G01X-20.4702Y4.2811
M16
G05
G00X-20.5214Y3.9713
M15
G01X-20.4702Y3.9713
M16
G05
G00X-20.5214Y3.5303
M15
G01X-20.4702Y3.5303
M16
G05
G00X-20.5214Y3.2213
M15
G01X-20.4702Y3.2213
M16
G05
G00X-20.5214Y2.7803
M15
G01X-20.4702Y2.7803
M16
G05
T0
M30
