%TF.GenerationSoftware,KiCad,Pcbnew,(6.0.0)*%
%TF.CreationDate,2022-05-23T19:24:34+02:00*%
%TF.ProjectId,matrix,6d617472-6978-42e6-9b69-6361645f7063,rev?*%
%TF.SameCoordinates,Original*%
%TF.FileFunction,Soldermask,Bot*%
%TF.FilePolarity,Negative*%
%FSLAX46Y46*%
G04 Gerber Fmt 4.6, Leading zero omitted, Abs format (unit mm)*
G04 Created by KiCad (PCBNEW (6.0.0)) date 2022-05-23 19:24:34*
%MOMM*%
%LPD*%
G01*
G04 APERTURE LIST*
G04 Aperture macros list*
%AMRoundRect*
0 Rectangle with rounded corners*
0 $1 Rounding radius*
0 $2 $3 $4 $5 $6 $7 $8 $9 X,Y pos of 4 corners*
0 Add a 4 corners polygon primitive as box body*
4,1,4,$2,$3,$4,$5,$6,$7,$8,$9,$2,$3,0*
0 Add four circle primitives for the rounded corners*
1,1,$1+$1,$2,$3*
1,1,$1+$1,$4,$5*
1,1,$1+$1,$6,$7*
1,1,$1+$1,$8,$9*
0 Add four rect primitives between the rounded corners*
20,1,$1+$1,$2,$3,$4,$5,0*
20,1,$1+$1,$4,$5,$6,$7,0*
20,1,$1+$1,$6,$7,$8,$9,0*
20,1,$1+$1,$8,$9,$2,$3,0*%
G04 Aperture macros list end*
%ADD10C,2.000000*%
%ADD11RoundRect,0.250000X-0.375000X-0.625000X0.375000X-0.625000X0.375000X0.625000X-0.375000X0.625000X0*%
%ADD12RoundRect,0.250000X0.375000X0.625000X-0.375000X0.625000X-0.375000X-0.625000X0.375000X-0.625000X0*%
%ADD13R,3.200000X2.000000*%
%ADD14C,1.700000*%
%ADD15O,1.700000X1.700000*%
%ADD16C,5.599999*%
%ADD17C,3.600000*%
%ADD18R,1.600000X1.600000*%
%ADD19C,1.600000*%
G04 APERTURE END LIST*
D10*
%TO.C,ENC4*%
X-604294000Y116820000D03*
X-589794000Y116820000D03*
X-589794000Y111820000D03*
X-604294000Y114320000D03*
D11*
X-602294000Y116820000D03*
D10*
X-604294000Y111820000D03*
D11*
X-599494000Y111820000D03*
D12*
X-594494000Y111820000D03*
D11*
X-599494000Y116820000D03*
D10*
X-607060000Y116840000D03*
X-586740000Y116840000D03*
X-607060000Y111760000D03*
X-586740000Y111760000D03*
X-601980000Y121920000D03*
X-601980000Y106680000D03*
D12*
X-591694000Y111820000D03*
D11*
X-602294000Y111820000D03*
D13*
X-596794000Y108720000D03*
X-596794000Y119920000D03*
D10*
X-607060000Y114300000D03*
X-586740000Y114300000D03*
%TD*%
D14*
%TO.C,REF\u002A\u002A*%
X-548640000Y60960000D03*
X-548640000Y60960000D03*
D15*
X-548640000Y58420000D03*
X-548640000Y55880000D03*
X-548640000Y53340000D03*
X-548640000Y50800000D03*
X-548640000Y48260000D03*
X-548640000Y45720000D03*
X-548640000Y43180000D03*
X-548640000Y40640000D03*
X-548640000Y38100000D03*
X-548640000Y35560000D03*
%TD*%
D10*
%TO.C,ENC10*%
X-553494000Y116820000D03*
X-553494000Y114320000D03*
X-538994000Y111820000D03*
X-538994000Y116820000D03*
D11*
X-551494000Y116820000D03*
D10*
X-553494000Y111820000D03*
D11*
X-548694000Y116820000D03*
X-548694000Y111820000D03*
D12*
X-543694000Y111820000D03*
D10*
X-556260000Y116840000D03*
X-535940000Y116840000D03*
X-556260000Y111760000D03*
X-535940000Y111760000D03*
X-551180000Y121920000D03*
X-551180000Y106680000D03*
D11*
X-551494000Y111820000D03*
D12*
X-540894000Y111820000D03*
D13*
X-545994000Y108720000D03*
X-545994000Y119920000D03*
D10*
X-556260000Y114300000D03*
X-535940000Y114300000D03*
%TD*%
D14*
%TO.C,REF\u002A\u002A*%
X-541020000Y60960000D03*
X-541020000Y60960000D03*
D15*
X-541020000Y58420000D03*
X-541020000Y55880000D03*
X-541020000Y53340000D03*
X-541020000Y50800000D03*
X-541020000Y48260000D03*
X-541020000Y45720000D03*
X-541020000Y43180000D03*
X-541020000Y40640000D03*
X-541020000Y38100000D03*
X-541020000Y35560000D03*
%TD*%
D16*
%TO.C,REF\u002A\u002A*%
X-637540000Y38100000D03*
D17*
X-637540000Y38100000D03*
%TD*%
D14*
%TO.C,REF\u002A\u002A*%
X-556260000Y60960000D03*
X-556260000Y60960000D03*
D15*
X-556260000Y58420000D03*
X-556260000Y55880000D03*
X-556260000Y53340000D03*
X-556260000Y50800000D03*
X-556260000Y48260000D03*
X-556260000Y45720000D03*
X-556260000Y43180000D03*
X-556260000Y40640000D03*
X-556260000Y38100000D03*
X-556260000Y35560000D03*
%TD*%
D10*
%TO.C,ENC7*%
X-578894000Y116820000D03*
D11*
X-576894000Y116820000D03*
D10*
X-564394000Y116820000D03*
X-564394000Y111820000D03*
X-578894000Y114320000D03*
X-578894000Y111820000D03*
D12*
X-569094000Y111820000D03*
D11*
X-574094000Y111820000D03*
X-574094000Y116820000D03*
D10*
X-581660000Y116840000D03*
X-561340000Y116840000D03*
X-581660000Y111760000D03*
X-561340000Y111760000D03*
X-576580000Y121920000D03*
X-576580000Y106680000D03*
D12*
X-566294000Y111820000D03*
D11*
X-576894000Y111820000D03*
D13*
X-571394000Y108720000D03*
X-571394000Y119920000D03*
D10*
X-581660000Y114300000D03*
X-561340000Y114300000D03*
%TD*%
D14*
%TO.C,J2*%
X-558800000Y58420000D03*
D15*
X-561340000Y58420000D03*
X-563880000Y58420000D03*
X-566420000Y58420000D03*
X-568960000Y58420000D03*
X-571500000Y58420000D03*
X-574040000Y58420000D03*
X-576580000Y58420000D03*
X-579120000Y58420000D03*
X-581660000Y58420000D03*
X-584200000Y58420000D03*
X-586740000Y58420000D03*
X-589280000Y58420000D03*
X-591820000Y58420000D03*
X-594360000Y58420000D03*
X-596900000Y58420000D03*
X-599440000Y58420000D03*
X-601980000Y58420000D03*
X-604520000Y58420000D03*
X-607060000Y58420000D03*
X-609600000Y58420000D03*
X-612140000Y58420000D03*
X-614680000Y58420000D03*
X-617220000Y58420000D03*
%TD*%
D14*
%TO.C,REF\u002A\u002A*%
X-533400000Y60960000D03*
X-533400000Y60960000D03*
D15*
X-533400000Y58420000D03*
X-533400000Y55880000D03*
X-533400000Y53340000D03*
X-533400000Y50800000D03*
X-533400000Y48260000D03*
X-533400000Y45720000D03*
X-533400000Y43180000D03*
X-533400000Y40640000D03*
X-533400000Y38100000D03*
X-533400000Y35560000D03*
%TD*%
D11*
%TO.C,ENC1*%
X-627694000Y116820000D03*
D10*
X-629694000Y116820000D03*
X-615194000Y116820000D03*
X-629694000Y114320000D03*
X-615194000Y111820000D03*
X-629694000Y111820000D03*
D11*
X-624894000Y111820000D03*
D12*
X-619894000Y111820000D03*
D11*
X-624894000Y116820000D03*
D10*
X-632460000Y116840000D03*
X-612140000Y116840000D03*
X-632460000Y111760000D03*
X-612140000Y111760000D03*
X-627380000Y121920000D03*
X-627380000Y106680000D03*
D11*
X-627694000Y111820000D03*
D12*
X-617094000Y111820000D03*
D13*
X-622194000Y119920000D03*
X-622194000Y108720000D03*
D10*
X-632460000Y114300000D03*
X-612140000Y114300000D03*
%TD*%
D14*
%TO.C,REF\u002A\u002A*%
X-535940000Y60960000D03*
X-535940000Y60960000D03*
D15*
X-535940000Y58420000D03*
X-535940000Y55880000D03*
X-535940000Y53340000D03*
X-535940000Y50800000D03*
X-535940000Y48260000D03*
X-535940000Y45720000D03*
X-535940000Y43180000D03*
X-535940000Y40640000D03*
X-535940000Y38100000D03*
X-535940000Y35560000D03*
%TD*%
D10*
%TO.C,ENC15*%
X-528094000Y78720000D03*
X-513594000Y78720000D03*
D11*
X-526094000Y78720000D03*
D10*
X-528094000Y76220000D03*
X-513594000Y73720000D03*
X-528094000Y73720000D03*
D12*
X-518294000Y73720000D03*
D11*
X-523294000Y73720000D03*
X-523294000Y78720000D03*
D10*
X-530860000Y78740000D03*
X-510540000Y78740000D03*
X-530860000Y73660000D03*
X-510540000Y73660000D03*
X-525780000Y83820000D03*
X-525780000Y68580000D03*
D11*
X-526094000Y73720000D03*
D12*
X-515494000Y73720000D03*
D13*
X-520594000Y81820000D03*
X-520594000Y70620000D03*
D10*
X-530860000Y76200000D03*
X-510540000Y76200000D03*
%TD*%
D14*
%TO.C,REF\u002A\u002A*%
X-551180000Y60960000D03*
X-551180000Y60960000D03*
D15*
X-551180000Y58420000D03*
X-551180000Y55880000D03*
X-551180000Y53340000D03*
X-551180000Y50800000D03*
X-551180000Y48260000D03*
X-551180000Y45720000D03*
X-551180000Y43180000D03*
X-551180000Y40640000D03*
X-551180000Y38100000D03*
X-551180000Y35560000D03*
%TD*%
D10*
%TO.C,ENC8*%
X-564394000Y92770000D03*
D11*
X-576894000Y97770000D03*
D10*
X-564394000Y97770000D03*
X-578894000Y97770000D03*
X-578894000Y95270000D03*
X-578894000Y92770000D03*
D12*
X-569094000Y92770000D03*
D11*
X-574094000Y97770000D03*
X-574094000Y92770000D03*
D10*
X-581660000Y97790000D03*
X-561340000Y97790000D03*
X-581660000Y92710000D03*
X-561340000Y92710000D03*
X-576580000Y102870000D03*
X-576580000Y87630000D03*
D12*
X-566294000Y92770000D03*
D11*
X-576894000Y92770000D03*
D13*
X-571394000Y89670000D03*
X-571394000Y100870000D03*
D10*
X-581660000Y95250000D03*
X-561340000Y95250000D03*
%TD*%
D14*
%TO.C,REF\u002A\u002A*%
X-553720000Y60960000D03*
X-553720000Y60960000D03*
D15*
X-553720000Y58420000D03*
X-553720000Y55880000D03*
X-553720000Y53340000D03*
X-553720000Y50800000D03*
X-553720000Y48260000D03*
X-553720000Y45720000D03*
X-553720000Y43180000D03*
X-553720000Y40640000D03*
X-553720000Y38100000D03*
X-553720000Y35560000D03*
%TD*%
D10*
%TO.C,ENC6*%
X-604294000Y78720000D03*
X-604294000Y76220000D03*
X-589794000Y73720000D03*
X-589794000Y78720000D03*
D11*
X-602294000Y78720000D03*
D10*
X-604294000Y73720000D03*
D12*
X-594494000Y73720000D03*
D11*
X-599494000Y73720000D03*
X-599494000Y78720000D03*
D10*
X-607060000Y78740000D03*
X-586740000Y78740000D03*
X-607060000Y73660000D03*
X-586740000Y73660000D03*
X-601980000Y83820000D03*
X-601980000Y68580000D03*
D12*
X-591694000Y73720000D03*
D11*
X-602294000Y73720000D03*
D13*
X-596794000Y70620000D03*
X-596794000Y81820000D03*
D10*
X-607060000Y76200000D03*
X-586740000Y76200000D03*
%TD*%
%TO.C,ENC14*%
X-528094000Y97770000D03*
D11*
X-526094000Y97770000D03*
D10*
X-513594000Y92770000D03*
X-528094000Y95270000D03*
X-513594000Y97770000D03*
X-528094000Y92770000D03*
D11*
X-523294000Y97770000D03*
X-523294000Y92770000D03*
D12*
X-518294000Y92770000D03*
D10*
X-530860000Y97790000D03*
X-510540000Y97790000D03*
X-530860000Y92710000D03*
X-510540000Y92710000D03*
X-525780000Y102870000D03*
X-525780000Y87630000D03*
D11*
X-526094000Y92770000D03*
D12*
X-515494000Y92770000D03*
D13*
X-520594000Y89670000D03*
X-520594000Y100870000D03*
D10*
X-530860000Y95250000D03*
X-510540000Y95250000D03*
%TD*%
D17*
%TO.C,REF\u002A\u002A*%
X-513080000Y38100000D03*
D16*
X-513080000Y38100000D03*
%TD*%
D10*
%TO.C,ENC5*%
X-589794000Y92770000D03*
X-604294000Y97770000D03*
X-589794000Y97770000D03*
X-604294000Y95270000D03*
D11*
X-602294000Y97770000D03*
D10*
X-604294000Y92770000D03*
D12*
X-594494000Y92770000D03*
D11*
X-599494000Y92770000D03*
X-599494000Y97770000D03*
D10*
X-607060000Y97790000D03*
X-586740000Y97790000D03*
X-607060000Y92710000D03*
X-586740000Y92710000D03*
X-601980000Y102870000D03*
X-601980000Y87630000D03*
D11*
X-602294000Y92770000D03*
D12*
X-591694000Y92770000D03*
D13*
X-596794000Y100870000D03*
X-596794000Y89670000D03*
D10*
X-607060000Y95250000D03*
X-586740000Y95250000D03*
%TD*%
%TO.C,ENC13*%
X-513594000Y111839990D03*
D11*
X-526094000Y116839990D03*
D10*
X-528094000Y116839990D03*
X-528094000Y114339990D03*
X-513594000Y116839990D03*
X-528094000Y111839990D03*
D11*
X-523294000Y116839990D03*
D12*
X-518294000Y111839990D03*
D11*
X-523294000Y111839990D03*
D10*
X-530860000Y116859990D03*
X-510540000Y116859990D03*
X-530860000Y111779990D03*
X-510540000Y111779990D03*
X-525780000Y121939990D03*
X-525780000Y106699990D03*
D11*
X-526094000Y111839990D03*
D12*
X-515494000Y111839990D03*
D13*
X-520594000Y108739990D03*
X-520594000Y119939990D03*
D10*
X-530860000Y114319990D03*
X-510540000Y114319990D03*
%TD*%
%TO.C,ENC9*%
X-578894000Y76220000D03*
X-564394000Y73720000D03*
D11*
X-576894000Y78720000D03*
D10*
X-564394000Y78720000D03*
X-578894000Y78720000D03*
X-578894000Y73720000D03*
D11*
X-574094000Y73720000D03*
X-574094000Y78720000D03*
D12*
X-569094000Y73720000D03*
D10*
X-581660000Y78740000D03*
X-561340000Y78740000D03*
X-581660000Y73660000D03*
X-561340000Y73660000D03*
X-576580000Y83820000D03*
X-576580000Y68580000D03*
D12*
X-566294000Y73720000D03*
D11*
X-576894000Y73720000D03*
D13*
X-571394000Y81820000D03*
X-571394000Y70620000D03*
D10*
X-581660000Y76200000D03*
X-561340000Y76200000D03*
%TD*%
%TO.C,ENC12*%
X-553494000Y76220000D03*
X-538994000Y73720000D03*
X-538994000Y78720000D03*
X-553494000Y78720000D03*
D11*
X-551494000Y78720000D03*
D10*
X-553494000Y73720000D03*
D12*
X-543694000Y73720000D03*
D11*
X-548694000Y73720000D03*
X-548694000Y78720000D03*
D10*
X-556260000Y78740000D03*
X-535940000Y78740000D03*
X-556260000Y73660000D03*
X-535940000Y73660000D03*
X-551180000Y83820000D03*
X-551180000Y68580000D03*
D11*
X-551494000Y73720000D03*
D12*
X-540894000Y73720000D03*
D13*
X-545994000Y81820000D03*
X-545994000Y70620000D03*
D10*
X-556260000Y76200000D03*
X-535940000Y76200000D03*
%TD*%
%TO.C,ENC11*%
X-553494000Y97770000D03*
X-553494000Y95270000D03*
D11*
X-551494000Y97770000D03*
D10*
X-538994000Y92770000D03*
X-538994000Y97770000D03*
X-553494000Y92770000D03*
D11*
X-548694000Y92770000D03*
X-548694000Y97770000D03*
D12*
X-543694000Y92770000D03*
D10*
X-556260000Y97790000D03*
X-535940000Y97790000D03*
X-556260000Y92710000D03*
X-535940000Y92710000D03*
X-551180000Y102870000D03*
X-551180000Y87630000D03*
D12*
X-540894000Y92770000D03*
D11*
X-551494000Y92770000D03*
D13*
X-545994000Y89670000D03*
X-545994000Y100870000D03*
D10*
X-556260000Y95250000D03*
X-535940000Y95250000D03*
%TD*%
D14*
%TO.C,REF\u002A\u002A*%
X-530860000Y60960000D03*
X-530860000Y60960000D03*
D15*
X-530860000Y58420000D03*
X-530860000Y55880000D03*
X-530860000Y53340000D03*
X-530860000Y50800000D03*
X-530860000Y48260000D03*
X-530860000Y45720000D03*
X-530860000Y43180000D03*
X-530860000Y40640000D03*
X-530860000Y38100000D03*
X-530860000Y35560000D03*
%TD*%
D14*
%TO.C,J1*%
X-558800000Y60960000D03*
D15*
X-561340000Y60960000D03*
X-563880000Y60960000D03*
X-566420000Y60960000D03*
X-568960000Y60960000D03*
X-571500000Y60960000D03*
X-574040000Y60960000D03*
X-576580000Y60960000D03*
X-579120000Y60960000D03*
X-581660000Y60960000D03*
X-584200000Y60960000D03*
X-586740000Y60960000D03*
X-589280000Y60960000D03*
X-591820000Y60960000D03*
X-594360000Y60960000D03*
X-596900000Y60960000D03*
X-599440000Y60960000D03*
X-601980000Y60960000D03*
X-604520000Y60960000D03*
X-607060000Y60960000D03*
X-609600000Y60960000D03*
X-612140000Y60960000D03*
X-614680000Y60960000D03*
X-617220000Y60960000D03*
%TD*%
D10*
%TO.C,ENC2*%
X-629694000Y95270000D03*
X-615194000Y97770000D03*
D11*
X-627694000Y97770000D03*
D10*
X-615194000Y92770000D03*
X-629694000Y97770000D03*
X-629694000Y92770000D03*
D11*
X-624894000Y97770000D03*
D12*
X-619894000Y92770000D03*
D11*
X-624894000Y92770000D03*
D10*
X-632460000Y97790000D03*
X-612140000Y97790000D03*
X-632460000Y92710000D03*
X-612140000Y92710000D03*
X-627380000Y102870000D03*
X-627380000Y87630000D03*
D12*
X-617094000Y92770000D03*
D11*
X-627694000Y92770000D03*
D13*
X-622194000Y100870000D03*
X-622194000Y89670000D03*
D10*
X-632460000Y95250000D03*
X-612140000Y95250000D03*
%TD*%
D18*
%TO.C,U1*%
X-617220000Y40640000D03*
D19*
X-614680000Y40640000D03*
X-612140000Y40640000D03*
X-609600000Y40640000D03*
X-607060000Y40640000D03*
X-604520000Y40640000D03*
X-601980000Y40640000D03*
X-599440000Y40640000D03*
X-596900000Y40640000D03*
X-594360000Y40640000D03*
X-591820000Y40640000D03*
X-589280000Y40640000D03*
X-586740000Y40640000D03*
X-584200000Y40640000D03*
X-581660000Y40640000D03*
X-579120000Y40640000D03*
X-576580000Y40640000D03*
X-574040000Y40640000D03*
X-571500000Y40640000D03*
X-568960000Y40640000D03*
X-566420000Y40640000D03*
X-563880000Y40640000D03*
X-561340000Y40640000D03*
X-558800000Y40640000D03*
X-558800000Y55880000D03*
X-561340000Y55880000D03*
X-563880000Y55880000D03*
X-566420000Y55880000D03*
X-568960000Y55880000D03*
X-571500000Y55880000D03*
X-574040000Y55880000D03*
X-576580000Y55880000D03*
X-579120000Y55880000D03*
X-581660000Y55880000D03*
X-584200000Y55880000D03*
X-586740000Y55880000D03*
X-589280000Y55880000D03*
X-591820000Y55880000D03*
X-594360000Y55880000D03*
X-596900000Y55880000D03*
X-599440000Y55880000D03*
X-601980000Y55880000D03*
X-604520000Y55880000D03*
X-607060000Y55880000D03*
X-609600000Y55880000D03*
X-612140000Y55880000D03*
X-614680000Y55880000D03*
X-617220000Y55880000D03*
%TD*%
D14*
%TO.C,J3*%
X-617220000Y38100000D03*
D15*
X-614680000Y38100000D03*
X-612140000Y38100000D03*
X-609600000Y38100000D03*
X-607060000Y38100000D03*
X-604520000Y38100000D03*
X-601980000Y38100000D03*
X-599440000Y38100000D03*
X-596900000Y38100000D03*
X-594360000Y38100000D03*
X-591820000Y38100000D03*
X-589280000Y38100000D03*
X-586740000Y38100000D03*
X-584200000Y38100000D03*
X-581660000Y38100000D03*
X-579120000Y38100000D03*
X-576580000Y38100000D03*
X-574040000Y38100000D03*
X-571500000Y38100000D03*
X-568960000Y38100000D03*
X-566420000Y38100000D03*
X-563880000Y38100000D03*
X-561340000Y38100000D03*
X-558800000Y38100000D03*
%TD*%
D14*
%TO.C,REF\u002A\u002A*%
X-538480000Y60960000D03*
X-538480000Y60960000D03*
D15*
X-538480000Y58420000D03*
X-538480000Y55880000D03*
X-538480000Y53340000D03*
X-538480000Y50800000D03*
X-538480000Y48260000D03*
X-538480000Y45720000D03*
X-538480000Y43180000D03*
X-538480000Y40640000D03*
X-538480000Y38100000D03*
X-538480000Y35560000D03*
%TD*%
D10*
%TO.C,ENC3*%
X-629694000Y76220000D03*
X-615194000Y73720000D03*
D11*
X-627694000Y78720000D03*
D10*
X-629694000Y78720000D03*
X-615194000Y78720000D03*
X-629694000Y73720000D03*
D12*
X-619894000Y73720000D03*
D11*
X-624894000Y78720000D03*
X-624894000Y73720000D03*
D10*
X-632460000Y78740000D03*
X-612140000Y78740000D03*
X-632460000Y73660000D03*
X-612140000Y73660000D03*
X-627380000Y83820000D03*
X-627380000Y68580000D03*
D11*
X-627694000Y73720000D03*
D12*
X-617094000Y73720000D03*
D13*
X-622194000Y70620000D03*
X-622194000Y81820000D03*
D10*
X-632460000Y76200000D03*
X-612140000Y76200000D03*
%TD*%
D14*
%TO.C,J4*%
X-617220000Y35560000D03*
D15*
X-614680000Y35560000D03*
X-612140000Y35560000D03*
X-609600000Y35560000D03*
X-607060000Y35560000D03*
X-604520000Y35560000D03*
X-601980000Y35560000D03*
X-599440000Y35560000D03*
X-596900000Y35560000D03*
X-594360000Y35560000D03*
X-591820000Y35560000D03*
X-589280000Y35560000D03*
X-586740000Y35560000D03*
X-584200000Y35560000D03*
X-581660000Y35560000D03*
X-579120000Y35560000D03*
X-576580000Y35560000D03*
X-574040000Y35560000D03*
X-571500000Y35560000D03*
X-568960000Y35560000D03*
X-566420000Y35560000D03*
X-563880000Y35560000D03*
X-561340000Y35560000D03*
X-558800000Y35560000D03*
%TD*%
D14*
%TO.C,REF\u002A\u002A*%
X-546100000Y60960000D03*
X-546100000Y60960000D03*
D15*
X-546100000Y58420000D03*
X-546100000Y55880000D03*
X-546100000Y53340000D03*
X-546100000Y50800000D03*
X-546100000Y48260000D03*
X-546100000Y45720000D03*
X-546100000Y43180000D03*
X-546100000Y40640000D03*
X-546100000Y38100000D03*
X-546100000Y35560000D03*
%TD*%
D14*
%TO.C,REF\u002A\u002A*%
X-543560000Y60960000D03*
X-543560000Y60960000D03*
D15*
X-543560000Y58420000D03*
X-543560000Y55880000D03*
X-543560000Y53340000D03*
X-543560000Y50800000D03*
X-543560000Y48260000D03*
X-543560000Y45720000D03*
X-543560000Y43180000D03*
X-543560000Y40640000D03*
X-543560000Y38100000D03*
X-543560000Y35560000D03*
%TD*%
M02*
