G04 EAGLE Gerber RS-274X export*
G75*
%MOMM*%
%FSLAX34Y34*%
%LPD*%
%INTop Copper*%
%IPPOS*%
%AMOC8*
5,1,8,0,0,1.08239X$1,22.5*%
G01*
%ADD10P,1.632244X8X22.500000*%
%ADD11R,3.616000X3.616000*%
%ADD12P,1.632244X8X202.500000*%
%ADD13C,0.381000*%
%ADD14C,0.152400*%
%ADD15C,0.756400*%

G36*
X720913Y10179D02*
X720913Y10179D01*
X721026Y10195D01*
X721034Y10199D01*
X721044Y10200D01*
X721144Y10254D01*
X721246Y10305D01*
X721253Y10311D01*
X721261Y10316D01*
X721339Y10398D01*
X721420Y10479D01*
X721424Y10487D01*
X721430Y10494D01*
X721478Y10598D01*
X721529Y10699D01*
X721530Y10709D01*
X721534Y10717D01*
X721546Y10830D01*
X721562Y10943D01*
X721560Y10952D01*
X721561Y10961D01*
X721537Y11073D01*
X721515Y11185D01*
X721511Y11193D01*
X721509Y11202D01*
X721450Y11299D01*
X721394Y11399D01*
X721386Y11407D01*
X721383Y11413D01*
X721365Y11428D01*
X721275Y11517D01*
X720215Y12363D01*
X713392Y22370D01*
X709822Y33944D01*
X709822Y46056D01*
X713392Y57630D01*
X713434Y57691D01*
X713434Y57692D01*
X714472Y59214D01*
X715510Y60736D01*
X715510Y60737D01*
X717067Y63020D01*
X718105Y64543D01*
X719143Y66065D01*
X720215Y67637D01*
X729684Y75188D01*
X740958Y79613D01*
X753036Y80519D01*
X754370Y80214D01*
X757705Y79453D01*
X761040Y78692D01*
X764375Y77930D01*
X764376Y77930D01*
X764845Y77823D01*
X775334Y71767D01*
X778520Y68333D01*
X778588Y68281D01*
X778650Y68222D01*
X778684Y68206D01*
X778714Y68183D01*
X778795Y68154D01*
X778873Y68118D01*
X778911Y68114D01*
X778946Y68101D01*
X779032Y68100D01*
X779117Y68091D01*
X779154Y68099D01*
X779192Y68099D01*
X779274Y68125D01*
X779358Y68143D01*
X779390Y68163D01*
X779426Y68174D01*
X779495Y68226D01*
X779569Y68269D01*
X779594Y68298D01*
X779624Y68321D01*
X779673Y68391D01*
X779729Y68456D01*
X779743Y68492D01*
X779765Y68523D01*
X779789Y68605D01*
X779821Y68685D01*
X779826Y68733D01*
X779834Y68759D01*
X779832Y68789D01*
X779839Y68851D01*
X779839Y179685D01*
X779828Y179756D01*
X779826Y179828D01*
X779808Y179877D01*
X779800Y179928D01*
X779766Y179991D01*
X779741Y180059D01*
X779709Y180099D01*
X779684Y180145D01*
X779632Y180195D01*
X779587Y180251D01*
X779544Y180279D01*
X779506Y180315D01*
X779441Y180345D01*
X779381Y180384D01*
X779330Y180396D01*
X779283Y180418D01*
X779212Y180426D01*
X779142Y180444D01*
X779090Y180440D01*
X779039Y180445D01*
X778968Y180430D01*
X778897Y180425D01*
X778849Y180404D01*
X778808Y180395D01*
X741288Y180395D01*
X740395Y181288D01*
X740395Y218712D01*
X741288Y219605D01*
X778823Y219605D01*
X778873Y219582D01*
X778925Y219576D01*
X778974Y219561D01*
X779046Y219563D01*
X779117Y219555D01*
X779168Y219566D01*
X779220Y219567D01*
X779288Y219592D01*
X779358Y219607D01*
X779402Y219634D01*
X779451Y219651D01*
X779507Y219696D01*
X779569Y219733D01*
X779603Y219772D01*
X779643Y219805D01*
X779682Y219865D01*
X779729Y219920D01*
X779748Y219968D01*
X779776Y220012D01*
X779794Y220081D01*
X779821Y220148D01*
X779829Y220219D01*
X779837Y220250D01*
X779835Y220274D01*
X779839Y220315D01*
X779839Y379685D01*
X779828Y379756D01*
X779826Y379828D01*
X779808Y379877D01*
X779800Y379928D01*
X779766Y379991D01*
X779741Y380059D01*
X779709Y380099D01*
X779684Y380145D01*
X779632Y380195D01*
X779587Y380251D01*
X779544Y380279D01*
X779506Y380315D01*
X779441Y380345D01*
X779381Y380384D01*
X779330Y380396D01*
X779283Y380418D01*
X779212Y380426D01*
X779142Y380444D01*
X779090Y380440D01*
X779039Y380445D01*
X778968Y380430D01*
X778897Y380425D01*
X778849Y380404D01*
X778808Y380395D01*
X741288Y380395D01*
X740395Y381288D01*
X740395Y418712D01*
X741288Y419605D01*
X778823Y419605D01*
X778873Y419582D01*
X778925Y419576D01*
X778974Y419561D01*
X779046Y419563D01*
X779117Y419555D01*
X779168Y419566D01*
X779220Y419567D01*
X779288Y419592D01*
X779358Y419607D01*
X779402Y419634D01*
X779451Y419651D01*
X779507Y419696D01*
X779569Y419733D01*
X779603Y419772D01*
X779643Y419805D01*
X779682Y419865D01*
X779729Y419920D01*
X779748Y419968D01*
X779776Y420012D01*
X779794Y420081D01*
X779821Y420148D01*
X779829Y420219D01*
X779837Y420250D01*
X779835Y420274D01*
X779839Y420315D01*
X779839Y491149D01*
X779825Y491233D01*
X779820Y491319D01*
X779806Y491354D01*
X779800Y491391D01*
X779759Y491467D01*
X779727Y491547D01*
X779702Y491575D01*
X779684Y491609D01*
X779622Y491668D01*
X779566Y491733D01*
X779534Y491752D01*
X779506Y491778D01*
X779428Y491814D01*
X779354Y491858D01*
X779317Y491866D01*
X779283Y491882D01*
X779198Y491891D01*
X779114Y491909D01*
X779076Y491905D01*
X779039Y491909D01*
X778955Y491891D01*
X778869Y491881D01*
X778835Y491865D01*
X778798Y491857D01*
X778725Y491813D01*
X778647Y491776D01*
X778610Y491744D01*
X778587Y491731D01*
X778567Y491707D01*
X778520Y491667D01*
X775334Y488232D01*
X764845Y482177D01*
X753036Y479481D01*
X740958Y480387D01*
X729684Y484812D01*
X720215Y492363D01*
X713392Y502370D01*
X709822Y513944D01*
X709822Y526056D01*
X713392Y537630D01*
X713672Y538040D01*
X714710Y539563D01*
X716267Y541846D01*
X716267Y541847D01*
X717305Y543369D01*
X718343Y544891D01*
X718343Y544892D01*
X718862Y545653D01*
X719900Y547175D01*
X720215Y547637D01*
X721275Y548483D01*
X721352Y548567D01*
X721430Y548650D01*
X721434Y548658D01*
X721440Y548665D01*
X721486Y548769D01*
X721534Y548873D01*
X721535Y548882D01*
X721539Y548891D01*
X721548Y549004D01*
X721561Y549117D01*
X721559Y549127D01*
X721560Y549136D01*
X721533Y549247D01*
X721509Y549358D01*
X721504Y549366D01*
X721502Y549375D01*
X721441Y549471D01*
X721383Y549569D01*
X721376Y549575D01*
X721371Y549583D01*
X721282Y549655D01*
X721196Y549729D01*
X721187Y549732D01*
X721180Y549738D01*
X721074Y549778D01*
X720967Y549821D01*
X720956Y549822D01*
X720950Y549825D01*
X720926Y549825D01*
X720801Y549839D01*
X68868Y549839D01*
X68811Y549830D01*
X68753Y549831D01*
X68690Y549810D01*
X68625Y549800D01*
X68574Y549773D01*
X68519Y549755D01*
X68466Y549715D01*
X68408Y549684D01*
X68368Y549643D01*
X68322Y549608D01*
X68284Y549554D01*
X68238Y549506D01*
X68214Y549454D01*
X68181Y549407D01*
X68162Y549343D01*
X68135Y549283D01*
X68128Y549226D01*
X68112Y549171D01*
X68115Y549104D01*
X68107Y549039D01*
X68120Y548982D01*
X68122Y548925D01*
X68146Y548863D01*
X68160Y548798D01*
X68189Y548749D01*
X68210Y548695D01*
X68270Y548614D01*
X68286Y548587D01*
X68296Y548578D01*
X68310Y548560D01*
X73572Y542889D01*
X78827Y531977D01*
X80632Y520000D01*
X78827Y508023D01*
X73572Y497111D01*
X65334Y488233D01*
X54845Y482177D01*
X43036Y479481D01*
X30958Y480387D01*
X19684Y484812D01*
X11397Y491420D01*
X11371Y491435D01*
X11350Y491455D01*
X11264Y491495D01*
X11182Y491541D01*
X11153Y491546D01*
X11127Y491558D01*
X11033Y491569D01*
X10940Y491586D01*
X10911Y491582D01*
X10883Y491586D01*
X10790Y491565D01*
X10697Y491552D01*
X10671Y491539D01*
X10642Y491533D01*
X10561Y491485D01*
X10477Y491443D01*
X10456Y491422D01*
X10431Y491407D01*
X10370Y491335D01*
X10303Y491268D01*
X10290Y491242D01*
X10271Y491220D01*
X10236Y491132D01*
X10194Y491048D01*
X10190Y491019D01*
X10179Y490992D01*
X10161Y490825D01*
X10161Y420315D01*
X10172Y420244D01*
X10174Y420172D01*
X10192Y420123D01*
X10200Y420072D01*
X10234Y420009D01*
X10259Y419941D01*
X10291Y419901D01*
X10316Y419855D01*
X10368Y419805D01*
X10413Y419749D01*
X10456Y419721D01*
X10494Y419685D01*
X10559Y419655D01*
X10619Y419616D01*
X10670Y419604D01*
X10717Y419582D01*
X10788Y419574D01*
X10858Y419556D01*
X10910Y419560D01*
X10961Y419555D01*
X11032Y419570D01*
X11103Y419575D01*
X11151Y419596D01*
X11192Y419605D01*
X48712Y419605D01*
X49605Y418712D01*
X49605Y381288D01*
X48712Y380395D01*
X11177Y380395D01*
X11127Y380418D01*
X11075Y380424D01*
X11026Y380439D01*
X10954Y380437D01*
X10883Y380445D01*
X10832Y380434D01*
X10780Y380433D01*
X10712Y380408D01*
X10642Y380393D01*
X10598Y380366D01*
X10549Y380349D01*
X10493Y380304D01*
X10431Y380267D01*
X10397Y380228D01*
X10357Y380195D01*
X10318Y380135D01*
X10271Y380080D01*
X10252Y380032D01*
X10224Y379988D01*
X10206Y379919D01*
X10179Y379852D01*
X10171Y379781D01*
X10163Y379750D01*
X10165Y379726D01*
X10161Y379685D01*
X10161Y220315D01*
X10172Y220244D01*
X10174Y220172D01*
X10192Y220123D01*
X10200Y220072D01*
X10234Y220009D01*
X10259Y219941D01*
X10291Y219901D01*
X10316Y219855D01*
X10368Y219805D01*
X10413Y219749D01*
X10456Y219721D01*
X10494Y219685D01*
X10559Y219655D01*
X10619Y219616D01*
X10670Y219604D01*
X10717Y219582D01*
X10788Y219574D01*
X10858Y219556D01*
X10910Y219560D01*
X10961Y219555D01*
X11032Y219570D01*
X11103Y219575D01*
X11151Y219596D01*
X11192Y219605D01*
X48712Y219605D01*
X49605Y218712D01*
X49605Y181288D01*
X48712Y180395D01*
X11177Y180395D01*
X11127Y180418D01*
X11075Y180424D01*
X11026Y180439D01*
X10954Y180437D01*
X10883Y180445D01*
X10832Y180434D01*
X10780Y180433D01*
X10712Y180408D01*
X10642Y180393D01*
X10598Y180366D01*
X10549Y180349D01*
X10493Y180304D01*
X10431Y180267D01*
X10397Y180228D01*
X10357Y180195D01*
X10318Y180135D01*
X10271Y180080D01*
X10252Y180032D01*
X10224Y179988D01*
X10206Y179919D01*
X10179Y179852D01*
X10171Y179781D01*
X10163Y179750D01*
X10165Y179726D01*
X10161Y179685D01*
X10161Y69175D01*
X10165Y69146D01*
X10163Y69117D01*
X10185Y69025D01*
X10200Y68932D01*
X10214Y68906D01*
X10221Y68878D01*
X10271Y68798D01*
X10316Y68715D01*
X10337Y68695D01*
X10352Y68670D01*
X10425Y68610D01*
X10494Y68545D01*
X10520Y68533D01*
X10543Y68515D01*
X10631Y68481D01*
X10717Y68442D01*
X10746Y68438D01*
X10773Y68428D01*
X10868Y68425D01*
X10961Y68414D01*
X10990Y68421D01*
X11019Y68420D01*
X11109Y68447D01*
X11202Y68467D01*
X11227Y68482D01*
X11255Y68490D01*
X11397Y68580D01*
X19684Y75188D01*
X30958Y79613D01*
X43036Y80519D01*
X44370Y80214D01*
X47705Y79453D01*
X51040Y78692D01*
X54375Y77930D01*
X54376Y77930D01*
X54845Y77823D01*
X65334Y71767D01*
X73572Y62889D01*
X78827Y51977D01*
X80632Y40000D01*
X78827Y28023D01*
X73572Y17111D01*
X68310Y11440D01*
X68278Y11392D01*
X68238Y11350D01*
X68210Y11290D01*
X68174Y11235D01*
X68159Y11179D01*
X68135Y11127D01*
X68127Y11061D01*
X68110Y10997D01*
X68114Y10940D01*
X68107Y10883D01*
X68121Y10818D01*
X68126Y10752D01*
X68147Y10698D01*
X68160Y10642D01*
X68194Y10585D01*
X68219Y10524D01*
X68256Y10480D01*
X68286Y10431D01*
X68336Y10388D01*
X68379Y10338D01*
X68429Y10309D01*
X68473Y10271D01*
X68534Y10246D01*
X68591Y10213D01*
X68647Y10201D01*
X68701Y10179D01*
X68801Y10168D01*
X68832Y10162D01*
X68846Y10163D01*
X68868Y10161D01*
X720801Y10161D01*
X720913Y10179D01*
G37*
%LPC*%
G36*
X332545Y20735D02*
X332545Y20735D01*
X327235Y26045D01*
X327235Y33555D01*
X330226Y36546D01*
X330268Y36604D01*
X330318Y36656D01*
X330339Y36703D01*
X330370Y36745D01*
X330391Y36814D01*
X330421Y36879D01*
X330427Y36931D01*
X330442Y36981D01*
X330440Y37052D01*
X330448Y37123D01*
X330437Y37174D01*
X330436Y37226D01*
X330411Y37294D01*
X330396Y37364D01*
X330369Y37409D01*
X330351Y37457D01*
X330307Y37513D01*
X330270Y37575D01*
X330230Y37609D01*
X330198Y37649D01*
X330137Y37688D01*
X330083Y37735D01*
X330035Y37754D01*
X329991Y37782D01*
X329921Y37800D01*
X329855Y37827D01*
X329783Y37835D01*
X329752Y37843D01*
X329729Y37841D01*
X329688Y37845D01*
X328779Y37845D01*
X320420Y46204D01*
X320420Y50063D01*
X320409Y50134D01*
X320407Y50205D01*
X320389Y50254D01*
X320381Y50306D01*
X320347Y50369D01*
X320322Y50436D01*
X320290Y50477D01*
X320265Y50523D01*
X320213Y50572D01*
X320169Y50628D01*
X320125Y50657D01*
X320087Y50693D01*
X320022Y50723D01*
X319962Y50761D01*
X319911Y50774D01*
X319864Y50796D01*
X319793Y50804D01*
X319723Y50822D01*
X319671Y50817D01*
X319620Y50823D01*
X319549Y50808D01*
X319478Y50802D01*
X319430Y50782D01*
X319379Y50771D01*
X319318Y50734D01*
X319252Y50706D01*
X319196Y50661D01*
X319168Y50645D01*
X319153Y50627D01*
X319121Y50601D01*
X314655Y46135D01*
X307145Y46135D01*
X301835Y51445D01*
X301835Y58955D01*
X307145Y64265D01*
X314655Y64265D01*
X319121Y59799D01*
X319179Y59757D01*
X319231Y59707D01*
X319278Y59686D01*
X319320Y59655D01*
X319389Y59634D01*
X319454Y59604D01*
X319506Y59598D01*
X319556Y59583D01*
X319627Y59585D01*
X319698Y59577D01*
X319749Y59588D01*
X319801Y59589D01*
X319869Y59614D01*
X319939Y59629D01*
X319984Y59656D01*
X320032Y59674D01*
X320088Y59718D01*
X320150Y59755D01*
X320184Y59795D01*
X320224Y59827D01*
X320263Y59888D01*
X320310Y59942D01*
X320329Y59990D01*
X320357Y60034D01*
X320375Y60104D01*
X320402Y60170D01*
X320410Y60242D01*
X320418Y60273D01*
X320416Y60296D01*
X320420Y60337D01*
X320420Y61764D01*
X320406Y61854D01*
X320398Y61945D01*
X320386Y61975D01*
X320381Y62007D01*
X320338Y62087D01*
X320302Y62171D01*
X320276Y62203D01*
X320265Y62224D01*
X320242Y62246D01*
X320197Y62302D01*
X279145Y103354D01*
X279145Y119488D01*
X279134Y119559D01*
X279132Y119630D01*
X279114Y119679D01*
X279106Y119731D01*
X279072Y119794D01*
X279047Y119861D01*
X279015Y119902D01*
X278990Y119948D01*
X278938Y119997D01*
X278894Y120053D01*
X278850Y120082D01*
X278812Y120118D01*
X278747Y120148D01*
X278687Y120186D01*
X278636Y120199D01*
X278589Y120221D01*
X278518Y120229D01*
X278448Y120247D01*
X278396Y120242D01*
X278345Y120248D01*
X278274Y120233D01*
X278203Y120227D01*
X278155Y120207D01*
X278104Y120196D01*
X278043Y120159D01*
X277977Y120131D01*
X277921Y120086D01*
X277893Y120070D01*
X277878Y120052D01*
X277846Y120026D01*
X273755Y115935D01*
X266245Y115935D01*
X260935Y121245D01*
X260935Y128755D01*
X266245Y134065D01*
X271362Y134065D01*
X271433Y134076D01*
X271505Y134078D01*
X271553Y134096D01*
X271605Y134104D01*
X271668Y134138D01*
X271736Y134163D01*
X271776Y134195D01*
X271822Y134220D01*
X271872Y134272D01*
X271928Y134316D01*
X271956Y134360D01*
X271992Y134398D01*
X272022Y134463D01*
X272061Y134523D01*
X272073Y134574D01*
X272095Y134621D01*
X272103Y134692D01*
X272121Y134762D01*
X272117Y134814D01*
X272122Y134865D01*
X272107Y134936D01*
X272101Y135007D01*
X272081Y135055D01*
X272070Y135106D01*
X272033Y135167D01*
X272005Y135233D01*
X271960Y135289D01*
X271944Y135317D01*
X271926Y135332D01*
X271900Y135364D01*
X267080Y140184D01*
X267080Y260174D01*
X267077Y260194D01*
X267079Y260213D01*
X267057Y260315D01*
X267041Y260417D01*
X267031Y260434D01*
X267027Y260454D01*
X266974Y260543D01*
X266925Y260634D01*
X266911Y260648D01*
X266901Y260665D01*
X266822Y260732D01*
X266747Y260804D01*
X266729Y260812D01*
X266714Y260825D01*
X266618Y260864D01*
X266524Y260907D01*
X266504Y260909D01*
X266486Y260917D01*
X266319Y260935D01*
X266245Y260935D01*
X260935Y266245D01*
X260935Y273755D01*
X266245Y279065D01*
X273755Y279065D01*
X279065Y273755D01*
X279065Y266245D01*
X274163Y261343D01*
X274110Y261269D01*
X274050Y261200D01*
X274038Y261170D01*
X274019Y261143D01*
X273992Y261057D01*
X273958Y260972D01*
X273954Y260931D01*
X273947Y260908D01*
X273948Y260876D01*
X273940Y260805D01*
X273940Y143341D01*
X273954Y143251D01*
X273962Y143160D01*
X273974Y143130D01*
X273979Y143098D01*
X274022Y143018D01*
X274058Y142934D01*
X274084Y142902D01*
X274095Y142881D01*
X274118Y142859D01*
X274163Y142803D01*
X283773Y133193D01*
X285816Y131149D01*
X285832Y131137D01*
X285845Y131122D01*
X285932Y131066D01*
X286016Y131006D01*
X286035Y131000D01*
X286052Y130989D01*
X286152Y130964D01*
X286251Y130933D01*
X286271Y130934D01*
X286290Y130929D01*
X286393Y130937D01*
X286497Y130940D01*
X286516Y130946D01*
X286536Y130948D01*
X286630Y130988D01*
X286728Y131024D01*
X286744Y131037D01*
X286762Y131044D01*
X286893Y131149D01*
X290824Y135081D01*
X293477Y135081D01*
X293477Y125762D01*
X293480Y125742D01*
X293478Y125723D01*
X293500Y125621D01*
X293517Y125519D01*
X293526Y125502D01*
X293530Y125482D01*
X293583Y125393D01*
X293632Y125302D01*
X293646Y125288D01*
X293656Y125271D01*
X293735Y125204D01*
X293810Y125133D01*
X293828Y125124D01*
X293843Y125111D01*
X293939Y125073D01*
X294033Y125029D01*
X294053Y125027D01*
X294071Y125019D01*
X294238Y125001D01*
X295001Y125001D01*
X295001Y124999D01*
X294238Y124999D01*
X294218Y124996D01*
X294199Y124998D01*
X294097Y124976D01*
X293995Y124959D01*
X293978Y124950D01*
X293958Y124946D01*
X293869Y124893D01*
X293778Y124844D01*
X293764Y124830D01*
X293747Y124820D01*
X293680Y124741D01*
X293609Y124666D01*
X293600Y124648D01*
X293587Y124633D01*
X293548Y124537D01*
X293505Y124443D01*
X293503Y124423D01*
X293495Y124405D01*
X293477Y124238D01*
X293477Y114919D01*
X290824Y114919D01*
X287304Y118439D01*
X287246Y118481D01*
X287194Y118531D01*
X287147Y118553D01*
X287105Y118583D01*
X287036Y118604D01*
X286971Y118634D01*
X286919Y118640D01*
X286869Y118655D01*
X286798Y118653D01*
X286727Y118661D01*
X286676Y118650D01*
X286624Y118649D01*
X286556Y118624D01*
X286486Y118609D01*
X286441Y118582D01*
X286393Y118565D01*
X286337Y118520D01*
X286275Y118483D01*
X286241Y118443D01*
X286201Y118411D01*
X286162Y118351D01*
X286115Y118296D01*
X286096Y118248D01*
X286068Y118204D01*
X286050Y118134D01*
X286023Y118068D01*
X286015Y117997D01*
X286007Y117965D01*
X286009Y117942D01*
X286005Y117901D01*
X286005Y106511D01*
X286019Y106421D01*
X286027Y106330D01*
X286039Y106300D01*
X286044Y106268D01*
X286087Y106188D01*
X286123Y106104D01*
X286149Y106072D01*
X286160Y106051D01*
X286183Y106029D01*
X286228Y105973D01*
X327280Y64921D01*
X327280Y60837D01*
X327291Y60766D01*
X327293Y60695D01*
X327311Y60646D01*
X327319Y60594D01*
X327353Y60531D01*
X327378Y60464D01*
X327410Y60423D01*
X327435Y60377D01*
X327486Y60328D01*
X327531Y60272D01*
X327575Y60243D01*
X327613Y60207D01*
X327678Y60177D01*
X327738Y60139D01*
X327789Y60126D01*
X327836Y60104D01*
X327907Y60096D01*
X327977Y60078D01*
X328029Y60083D01*
X328080Y60077D01*
X328151Y60092D01*
X328222Y60098D01*
X328270Y60118D01*
X328321Y60129D01*
X328382Y60166D01*
X328448Y60194D01*
X328504Y60239D01*
X328532Y60255D01*
X328547Y60273D01*
X328579Y60299D01*
X332389Y64109D01*
X332442Y64183D01*
X332502Y64252D01*
X332514Y64282D01*
X332533Y64308D01*
X332560Y64395D01*
X332594Y64480D01*
X332598Y64521D01*
X332605Y64544D01*
X332604Y64576D01*
X332612Y64647D01*
X332612Y225721D01*
X332598Y225811D01*
X332590Y225902D01*
X332578Y225932D01*
X332573Y225964D01*
X332530Y226044D01*
X332494Y226128D01*
X332468Y226160D01*
X332457Y226181D01*
X332434Y226203D01*
X332389Y226259D01*
X250770Y307878D01*
X250696Y307931D01*
X250627Y307991D01*
X250597Y308003D01*
X250571Y308022D01*
X250484Y308049D01*
X250399Y308083D01*
X250358Y308087D01*
X250335Y308094D01*
X250303Y308093D01*
X250232Y308101D01*
X81764Y308101D01*
X74153Y315712D01*
X74079Y315765D01*
X74010Y315825D01*
X73980Y315837D01*
X73954Y315856D01*
X73867Y315883D01*
X73782Y315917D01*
X73741Y315921D01*
X73718Y315928D01*
X73686Y315927D01*
X73615Y315935D01*
X66245Y315935D01*
X60935Y321245D01*
X60935Y328755D01*
X66245Y334065D01*
X73755Y334065D01*
X79065Y328755D01*
X79065Y321151D01*
X79046Y321076D01*
X79015Y320977D01*
X79016Y320957D01*
X79011Y320938D01*
X79019Y320835D01*
X79022Y320731D01*
X79029Y320712D01*
X79030Y320692D01*
X79070Y320598D01*
X79106Y320500D01*
X79119Y320485D01*
X79126Y320466D01*
X79231Y320335D01*
X84383Y315184D01*
X84457Y315131D01*
X84526Y315071D01*
X84556Y315059D01*
X84582Y315040D01*
X84669Y315013D01*
X84754Y314979D01*
X84795Y314975D01*
X84818Y314968D01*
X84850Y314969D01*
X84921Y314961D01*
X88945Y314961D01*
X89016Y314972D01*
X89088Y314974D01*
X89137Y314992D01*
X89188Y315000D01*
X89251Y315034D01*
X89319Y315059D01*
X89359Y315091D01*
X89405Y315116D01*
X89455Y315168D01*
X89511Y315212D01*
X89539Y315256D01*
X89575Y315294D01*
X89605Y315359D01*
X89644Y315419D01*
X89656Y315470D01*
X89678Y315517D01*
X89686Y315588D01*
X89704Y315658D01*
X89700Y315710D01*
X89705Y315761D01*
X89690Y315832D01*
X89685Y315903D01*
X89664Y315951D01*
X89653Y316002D01*
X89616Y316063D01*
X89588Y316129D01*
X89544Y316185D01*
X89527Y316213D01*
X89509Y316228D01*
X89483Y316260D01*
X84919Y320824D01*
X84919Y323477D01*
X94238Y323477D01*
X94258Y323480D01*
X94277Y323478D01*
X94379Y323500D01*
X94481Y323517D01*
X94498Y323526D01*
X94518Y323530D01*
X94607Y323583D01*
X94698Y323632D01*
X94712Y323646D01*
X94729Y323656D01*
X94796Y323735D01*
X94867Y323810D01*
X94876Y323828D01*
X94889Y323843D01*
X94927Y323939D01*
X94971Y324033D01*
X94973Y324053D01*
X94981Y324071D01*
X94999Y324238D01*
X94999Y325001D01*
X95001Y325001D01*
X95001Y324238D01*
X95004Y324218D01*
X95002Y324199D01*
X95024Y324097D01*
X95041Y323995D01*
X95050Y323978D01*
X95054Y323958D01*
X95107Y323869D01*
X95156Y323778D01*
X95170Y323764D01*
X95180Y323747D01*
X95259Y323680D01*
X95334Y323609D01*
X95352Y323600D01*
X95367Y323587D01*
X95463Y323548D01*
X95557Y323505D01*
X95577Y323503D01*
X95595Y323495D01*
X95762Y323477D01*
X105081Y323477D01*
X105081Y320824D01*
X100517Y316260D01*
X100475Y316202D01*
X100425Y316150D01*
X100403Y316103D01*
X100373Y316061D01*
X100352Y315992D01*
X100322Y315927D01*
X100316Y315875D01*
X100301Y315825D01*
X100303Y315754D01*
X100295Y315683D01*
X100306Y315632D01*
X100307Y315580D01*
X100332Y315512D01*
X100347Y315442D01*
X100374Y315397D01*
X100391Y315349D01*
X100436Y315293D01*
X100473Y315231D01*
X100513Y315197D01*
X100545Y315157D01*
X100605Y315118D01*
X100660Y315071D01*
X100708Y315052D01*
X100752Y315024D01*
X100822Y315006D01*
X100888Y314979D01*
X100959Y314971D01*
X100991Y314963D01*
X101014Y314965D01*
X101055Y314961D01*
X115382Y314961D01*
X115453Y314972D01*
X115524Y314974D01*
X115573Y314992D01*
X115625Y315000D01*
X115688Y315034D01*
X115755Y315059D01*
X115796Y315091D01*
X115842Y315116D01*
X115891Y315168D01*
X115947Y315212D01*
X115976Y315256D01*
X116012Y315294D01*
X116042Y315359D01*
X116080Y315419D01*
X116093Y315470D01*
X116115Y315517D01*
X116123Y315588D01*
X116141Y315658D01*
X116136Y315710D01*
X116142Y315761D01*
X116127Y315832D01*
X116121Y315903D01*
X116101Y315951D01*
X116090Y316002D01*
X116053Y316063D01*
X116025Y316129D01*
X115980Y316185D01*
X115964Y316213D01*
X115946Y316228D01*
X115920Y316260D01*
X110935Y321245D01*
X110935Y328755D01*
X116245Y334065D01*
X123755Y334065D01*
X129065Y328755D01*
X129065Y321245D01*
X124080Y316260D01*
X124038Y316202D01*
X123988Y316150D01*
X123967Y316103D01*
X123936Y316061D01*
X123915Y315992D01*
X123885Y315927D01*
X123879Y315875D01*
X123864Y315825D01*
X123866Y315754D01*
X123858Y315683D01*
X123869Y315632D01*
X123870Y315580D01*
X123895Y315512D01*
X123910Y315442D01*
X123937Y315397D01*
X123955Y315349D01*
X123999Y315293D01*
X124036Y315231D01*
X124076Y315197D01*
X124108Y315157D01*
X124169Y315118D01*
X124223Y315071D01*
X124271Y315052D01*
X124315Y315024D01*
X124385Y315006D01*
X124451Y314979D01*
X124523Y314971D01*
X124554Y314963D01*
X124577Y314965D01*
X124618Y314961D01*
X253389Y314961D01*
X339472Y228878D01*
X339472Y219626D01*
X339483Y219555D01*
X339485Y219483D01*
X339503Y219434D01*
X339511Y219383D01*
X339545Y219320D01*
X339570Y219252D01*
X339602Y219212D01*
X339627Y219166D01*
X339679Y219116D01*
X339723Y219060D01*
X339767Y219032D01*
X339805Y218996D01*
X339870Y218966D01*
X339930Y218927D01*
X339981Y218915D01*
X340028Y218893D01*
X340099Y218885D01*
X340169Y218867D01*
X340221Y218871D01*
X340272Y218866D01*
X340343Y218881D01*
X340414Y218886D01*
X340462Y218907D01*
X340513Y218918D01*
X340574Y218955D01*
X340640Y218983D01*
X340696Y219028D01*
X340724Y219044D01*
X340739Y219062D01*
X340771Y219088D01*
X341288Y219605D01*
X378712Y219605D01*
X379605Y218712D01*
X379605Y181288D01*
X378712Y180395D01*
X341288Y180395D01*
X340771Y180912D01*
X340713Y180954D01*
X340661Y181004D01*
X340614Y181026D01*
X340572Y181056D01*
X340503Y181077D01*
X340438Y181107D01*
X340386Y181113D01*
X340336Y181128D01*
X340265Y181126D01*
X340194Y181134D01*
X340143Y181123D01*
X340091Y181122D01*
X340023Y181097D01*
X339953Y181082D01*
X339908Y181055D01*
X339860Y181038D01*
X339804Y180993D01*
X339742Y180956D01*
X339708Y180916D01*
X339668Y180884D01*
X339629Y180824D01*
X339582Y180769D01*
X339563Y180721D01*
X339535Y180677D01*
X339517Y180607D01*
X339490Y180541D01*
X339482Y180470D01*
X339474Y180438D01*
X339476Y180415D01*
X339472Y180374D01*
X339472Y65026D01*
X339475Y65006D01*
X339473Y64987D01*
X339495Y64885D01*
X339511Y64783D01*
X339521Y64766D01*
X339525Y64746D01*
X339578Y64657D01*
X339627Y64566D01*
X339641Y64552D01*
X339651Y64535D01*
X339730Y64468D01*
X339805Y64396D01*
X339823Y64388D01*
X339838Y64375D01*
X339934Y64336D01*
X340025Y64294D01*
X345365Y58955D01*
X345365Y51445D01*
X339924Y46004D01*
X339882Y45946D01*
X339832Y45894D01*
X339811Y45847D01*
X339780Y45805D01*
X339759Y45736D01*
X339729Y45671D01*
X339723Y45619D01*
X339708Y45569D01*
X339710Y45498D01*
X339702Y45427D01*
X339713Y45376D01*
X339714Y45324D01*
X339739Y45256D01*
X339754Y45186D01*
X339781Y45141D01*
X339799Y45093D01*
X339843Y45037D01*
X339880Y44975D01*
X339920Y44941D01*
X339952Y44901D01*
X340013Y44862D01*
X340067Y44815D01*
X340115Y44796D01*
X340159Y44768D01*
X340229Y44750D01*
X340295Y44723D01*
X340367Y44715D01*
X340398Y44707D01*
X340421Y44709D01*
X340462Y44705D01*
X351646Y44705D01*
X357263Y39088D01*
X357337Y39035D01*
X357406Y38975D01*
X357436Y38963D01*
X357462Y38944D01*
X357549Y38917D01*
X357634Y38883D01*
X357675Y38879D01*
X357698Y38872D01*
X357730Y38873D01*
X357801Y38865D01*
X365455Y38865D01*
X370765Y33555D01*
X370765Y26045D01*
X365455Y20735D01*
X357945Y20735D01*
X352635Y26045D01*
X352635Y33699D01*
X352621Y33789D01*
X352613Y33880D01*
X352601Y33910D01*
X352596Y33942D01*
X352553Y34022D01*
X352517Y34106D01*
X352491Y34138D01*
X352480Y34159D01*
X352457Y34181D01*
X352412Y34237D01*
X349027Y37622D01*
X348953Y37675D01*
X348884Y37735D01*
X348854Y37747D01*
X348828Y37766D01*
X348741Y37793D01*
X348656Y37827D01*
X348615Y37831D01*
X348592Y37838D01*
X348560Y37837D01*
X348489Y37845D01*
X342912Y37845D01*
X342841Y37834D01*
X342770Y37832D01*
X342721Y37814D01*
X342669Y37806D01*
X342606Y37772D01*
X342539Y37747D01*
X342498Y37715D01*
X342452Y37690D01*
X342403Y37638D01*
X342347Y37594D01*
X342318Y37550D01*
X342282Y37512D01*
X342252Y37447D01*
X342214Y37387D01*
X342201Y37336D01*
X342179Y37289D01*
X342171Y37218D01*
X342153Y37148D01*
X342158Y37096D01*
X342152Y37045D01*
X342167Y36974D01*
X342173Y36903D01*
X342193Y36855D01*
X342204Y36804D01*
X342241Y36743D01*
X342269Y36677D01*
X342314Y36621D01*
X342330Y36593D01*
X342348Y36578D01*
X342374Y36546D01*
X345365Y33555D01*
X345365Y26045D01*
X340055Y20735D01*
X332545Y20735D01*
G37*
%LPD*%
%LPC*%
G36*
X434145Y20735D02*
X434145Y20735D01*
X428835Y26045D01*
X428835Y33555D01*
X434182Y38901D01*
X434202Y38904D01*
X434219Y38914D01*
X434239Y38918D01*
X434328Y38971D01*
X434419Y39020D01*
X434433Y39034D01*
X434450Y39044D01*
X434517Y39123D01*
X434589Y39198D01*
X434597Y39216D01*
X434610Y39231D01*
X434645Y39318D01*
X440162Y44836D01*
X440204Y44894D01*
X440254Y44946D01*
X440276Y44993D01*
X440306Y45035D01*
X440327Y45104D01*
X440357Y45169D01*
X440363Y45221D01*
X440378Y45271D01*
X440376Y45342D01*
X440384Y45413D01*
X440373Y45464D01*
X440372Y45516D01*
X440347Y45584D01*
X440332Y45654D01*
X440305Y45699D01*
X440287Y45747D01*
X440243Y45803D01*
X440206Y45865D01*
X440166Y45899D01*
X440134Y45939D01*
X440073Y45978D01*
X440019Y46025D01*
X439971Y46044D01*
X439927Y46072D01*
X439857Y46090D01*
X439791Y46117D01*
X439719Y46125D01*
X439688Y46133D01*
X439665Y46131D01*
X439624Y46135D01*
X434145Y46135D01*
X428835Y51445D01*
X428835Y58955D01*
X434145Y64265D01*
X441655Y64265D01*
X445486Y60434D01*
X445544Y60392D01*
X445596Y60342D01*
X445643Y60321D01*
X445685Y60290D01*
X445754Y60269D01*
X445819Y60239D01*
X445871Y60233D01*
X445921Y60218D01*
X445992Y60220D01*
X446063Y60212D01*
X446114Y60223D01*
X446166Y60224D01*
X446234Y60249D01*
X446304Y60264D01*
X446349Y60291D01*
X446397Y60309D01*
X446453Y60353D01*
X446515Y60390D01*
X446549Y60430D01*
X446589Y60462D01*
X446628Y60523D01*
X446675Y60577D01*
X446694Y60625D01*
X446722Y60669D01*
X446740Y60739D01*
X446767Y60805D01*
X446775Y60877D01*
X446783Y60908D01*
X446781Y60931D01*
X446785Y60972D01*
X446785Y153567D01*
X466347Y173129D01*
X466400Y173203D01*
X466460Y173272D01*
X466472Y173302D01*
X466491Y173328D01*
X466518Y173415D01*
X466552Y173500D01*
X466556Y173541D01*
X466563Y173564D01*
X466562Y173596D01*
X466570Y173667D01*
X466570Y260295D01*
X466556Y260385D01*
X466548Y260476D01*
X466536Y260506D01*
X466531Y260538D01*
X466488Y260618D01*
X466452Y260702D01*
X466426Y260734D01*
X466415Y260755D01*
X466392Y260777D01*
X466347Y260833D01*
X460935Y266245D01*
X460935Y273755D01*
X466245Y279065D01*
X473755Y279065D01*
X479065Y273755D01*
X479065Y266245D01*
X473653Y260833D01*
X473600Y260759D01*
X473540Y260690D01*
X473528Y260660D01*
X473509Y260633D01*
X473482Y260547D01*
X473448Y260462D01*
X473444Y260421D01*
X473437Y260398D01*
X473438Y260366D01*
X473430Y260295D01*
X473430Y170510D01*
X453868Y150948D01*
X453815Y150874D01*
X453755Y150805D01*
X453743Y150775D01*
X453724Y150749D01*
X453697Y150662D01*
X453663Y150577D01*
X453659Y150536D01*
X453652Y150513D01*
X453653Y150481D01*
X453645Y150410D01*
X453645Y60202D01*
X453656Y60131D01*
X453658Y60060D01*
X453676Y60011D01*
X453684Y59959D01*
X453718Y59896D01*
X453743Y59829D01*
X453775Y59788D01*
X453800Y59742D01*
X453852Y59693D01*
X453896Y59637D01*
X453940Y59608D01*
X453978Y59572D01*
X454043Y59542D01*
X454103Y59504D01*
X454154Y59491D01*
X454201Y59469D01*
X454272Y59461D01*
X454342Y59443D01*
X454394Y59448D01*
X454445Y59442D01*
X454516Y59457D01*
X454587Y59463D01*
X454635Y59483D01*
X454686Y59494D01*
X454747Y59531D01*
X454813Y59559D01*
X454869Y59604D01*
X454897Y59620D01*
X454912Y59638D01*
X454944Y59664D01*
X459545Y64265D01*
X467055Y64265D01*
X471648Y59672D01*
X471706Y59630D01*
X471758Y59580D01*
X471805Y59559D01*
X471847Y59528D01*
X471916Y59507D01*
X471981Y59477D01*
X472033Y59471D01*
X472083Y59456D01*
X472154Y59458D01*
X472225Y59450D01*
X472276Y59461D01*
X472328Y59462D01*
X472396Y59487D01*
X472466Y59502D01*
X472511Y59529D01*
X472559Y59547D01*
X472615Y59591D01*
X472677Y59628D01*
X472711Y59668D01*
X472751Y59700D01*
X472790Y59761D01*
X472837Y59815D01*
X472856Y59863D01*
X472884Y59907D01*
X472902Y59977D01*
X472929Y60043D01*
X472937Y60115D01*
X472945Y60146D01*
X472943Y60169D01*
X472947Y60210D01*
X472947Y115174D01*
X472944Y115194D01*
X472946Y115213D01*
X472924Y115315D01*
X472908Y115417D01*
X472898Y115434D01*
X472894Y115454D01*
X472841Y115543D01*
X472792Y115634D01*
X472778Y115648D01*
X472768Y115665D01*
X472689Y115732D01*
X472614Y115804D01*
X472596Y115812D01*
X472581Y115825D01*
X472485Y115864D01*
X472391Y115907D01*
X472371Y115909D01*
X472353Y115917D01*
X472186Y115935D01*
X466245Y115935D01*
X460935Y121245D01*
X460935Y128755D01*
X466245Y134065D01*
X473755Y134065D01*
X477871Y129949D01*
X477929Y129907D01*
X477981Y129857D01*
X478028Y129836D01*
X478070Y129805D01*
X478139Y129784D01*
X478204Y129754D01*
X478256Y129748D01*
X478306Y129733D01*
X478377Y129735D01*
X478448Y129727D01*
X478499Y129738D01*
X478551Y129739D01*
X478619Y129764D01*
X478689Y129779D01*
X478734Y129806D01*
X478782Y129824D01*
X478838Y129868D01*
X478900Y129905D01*
X478934Y129945D01*
X478974Y129977D01*
X479013Y130038D01*
X479060Y130092D01*
X479079Y130140D01*
X479107Y130184D01*
X479125Y130254D01*
X479152Y130320D01*
X479160Y130392D01*
X479168Y130423D01*
X479166Y130446D01*
X479170Y130487D01*
X479170Y132971D01*
X491110Y144911D01*
X491163Y144985D01*
X491223Y145054D01*
X491235Y145084D01*
X491254Y145111D01*
X491281Y145198D01*
X491315Y145282D01*
X491319Y145323D01*
X491326Y145346D01*
X491325Y145378D01*
X491333Y145449D01*
X491333Y281931D01*
X491330Y281949D01*
X491332Y281966D01*
X491317Y282034D01*
X491311Y282112D01*
X491299Y282142D01*
X491293Y282174D01*
X491283Y282194D01*
X491280Y282207D01*
X491249Y282258D01*
X491215Y282338D01*
X491189Y282370D01*
X491178Y282391D01*
X491158Y282410D01*
X491154Y282418D01*
X491146Y282424D01*
X491110Y282469D01*
X466570Y307009D01*
X466570Y315295D01*
X466556Y315385D01*
X466548Y315476D01*
X466536Y315506D01*
X466531Y315538D01*
X466488Y315618D01*
X466452Y315702D01*
X466426Y315734D01*
X466415Y315755D01*
X466392Y315777D01*
X466347Y315833D01*
X460935Y321245D01*
X460935Y328755D01*
X466245Y334065D01*
X473755Y334065D01*
X479065Y328755D01*
X479065Y321245D01*
X473653Y315833D01*
X473600Y315759D01*
X473540Y315690D01*
X473528Y315660D01*
X473509Y315633D01*
X473482Y315547D01*
X473448Y315462D01*
X473444Y315421D01*
X473437Y315398D01*
X473438Y315366D01*
X473430Y315295D01*
X473430Y310166D01*
X473444Y310076D01*
X473452Y309985D01*
X473464Y309955D01*
X473469Y309923D01*
X473512Y309843D01*
X473548Y309759D01*
X473574Y309727D01*
X473585Y309706D01*
X473608Y309684D01*
X473653Y309628D01*
X498193Y285088D01*
X498193Y142292D01*
X495961Y140060D01*
X492280Y136380D01*
X492239Y136322D01*
X492189Y136270D01*
X492167Y136223D01*
X492137Y136181D01*
X492116Y136112D01*
X492086Y136047D01*
X492080Y135995D01*
X492065Y135945D01*
X492066Y135874D01*
X492059Y135803D01*
X492070Y135752D01*
X492071Y135700D01*
X492096Y135632D01*
X492111Y135562D01*
X492137Y135517D01*
X492155Y135469D01*
X492200Y135413D01*
X492237Y135351D01*
X492277Y135317D01*
X492309Y135277D01*
X492369Y135238D01*
X492424Y135191D01*
X492472Y135172D01*
X492516Y135144D01*
X492585Y135126D01*
X492652Y135099D01*
X492723Y135091D01*
X492755Y135083D01*
X492778Y135085D01*
X492819Y135081D01*
X493477Y135081D01*
X493477Y125762D01*
X493480Y125742D01*
X493478Y125723D01*
X493500Y125621D01*
X493517Y125519D01*
X493526Y125502D01*
X493530Y125482D01*
X493583Y125393D01*
X493632Y125302D01*
X493646Y125288D01*
X493656Y125271D01*
X493735Y125204D01*
X493810Y125133D01*
X493828Y125124D01*
X493843Y125111D01*
X493939Y125073D01*
X494033Y125029D01*
X494053Y125027D01*
X494071Y125019D01*
X494238Y125001D01*
X495001Y125001D01*
X495001Y124999D01*
X494238Y124999D01*
X494218Y124996D01*
X494199Y124998D01*
X494097Y124976D01*
X493995Y124959D01*
X493978Y124950D01*
X493958Y124946D01*
X493869Y124893D01*
X493778Y124844D01*
X493764Y124830D01*
X493747Y124820D01*
X493680Y124741D01*
X493609Y124666D01*
X493600Y124648D01*
X493587Y124633D01*
X493548Y124537D01*
X493505Y124443D01*
X493503Y124423D01*
X493495Y124405D01*
X493477Y124238D01*
X493477Y114919D01*
X490824Y114919D01*
X487329Y118414D01*
X487271Y118456D01*
X487219Y118506D01*
X487172Y118528D01*
X487130Y118558D01*
X487061Y118579D01*
X486996Y118609D01*
X486944Y118615D01*
X486894Y118630D01*
X486823Y118628D01*
X486752Y118636D01*
X486701Y118625D01*
X486649Y118624D01*
X486581Y118599D01*
X486511Y118584D01*
X486466Y118557D01*
X486418Y118540D01*
X486362Y118495D01*
X486300Y118458D01*
X486266Y118418D01*
X486226Y118386D01*
X486187Y118326D01*
X486140Y118271D01*
X486121Y118223D01*
X486093Y118179D01*
X486075Y118109D01*
X486048Y118043D01*
X486040Y117972D01*
X486032Y117940D01*
X486034Y117917D01*
X486030Y117876D01*
X486030Y65026D01*
X486033Y65006D01*
X486031Y64987D01*
X486053Y64885D01*
X486069Y64783D01*
X486079Y64766D01*
X486083Y64746D01*
X486136Y64657D01*
X486185Y64566D01*
X486199Y64552D01*
X486209Y64535D01*
X486288Y64468D01*
X486363Y64396D01*
X486381Y64388D01*
X486396Y64375D01*
X486492Y64336D01*
X486586Y64293D01*
X486606Y64291D01*
X486624Y64283D01*
X486791Y64265D01*
X492455Y64265D01*
X497765Y58955D01*
X497765Y51445D01*
X492455Y46135D01*
X484945Y46135D01*
X481106Y49974D01*
X481048Y50016D01*
X480996Y50066D01*
X480949Y50087D01*
X480907Y50118D01*
X480838Y50139D01*
X480773Y50169D01*
X480721Y50175D01*
X480671Y50190D01*
X480600Y50188D01*
X480529Y50196D01*
X480478Y50185D01*
X480426Y50184D01*
X480358Y50159D01*
X480288Y50144D01*
X480243Y50117D01*
X480195Y50099D01*
X480139Y50055D01*
X480077Y50018D01*
X480043Y49978D01*
X480003Y49946D01*
X479964Y49885D01*
X479917Y49831D01*
X479898Y49783D01*
X479870Y49739D01*
X479852Y49669D01*
X479825Y49603D01*
X479817Y49531D01*
X479809Y49500D01*
X479811Y49477D01*
X479807Y49436D01*
X479807Y46458D01*
X477575Y44226D01*
X470172Y36824D01*
X470161Y36808D01*
X470145Y36795D01*
X470089Y36708D01*
X470029Y36624D01*
X470023Y36605D01*
X470012Y36588D01*
X469987Y36488D01*
X469956Y36389D01*
X469957Y36369D01*
X469952Y36350D01*
X469960Y36247D01*
X469963Y36143D01*
X469970Y36124D01*
X469971Y36105D01*
X470011Y36010D01*
X470047Y35912D01*
X470060Y35896D01*
X470067Y35878D01*
X470172Y35747D01*
X472365Y33555D01*
X472365Y26045D01*
X467055Y20735D01*
X459545Y20735D01*
X454235Y26045D01*
X454235Y33555D01*
X459545Y38865D01*
X462197Y38865D01*
X462287Y38879D01*
X462378Y38887D01*
X462408Y38899D01*
X462440Y38904D01*
X462520Y38947D01*
X462604Y38983D01*
X462636Y39009D01*
X462657Y39020D01*
X462679Y39043D01*
X462735Y39088D01*
X462860Y39213D01*
X472724Y49077D01*
X472777Y49151D01*
X472837Y49220D01*
X472849Y49250D01*
X472868Y49276D01*
X472895Y49363D01*
X472929Y49448D01*
X472933Y49489D01*
X472940Y49511D01*
X472939Y49544D01*
X472947Y49615D01*
X472947Y50190D01*
X472936Y50261D01*
X472934Y50332D01*
X472916Y50381D01*
X472908Y50433D01*
X472874Y50496D01*
X472849Y50563D01*
X472817Y50604D01*
X472792Y50650D01*
X472740Y50699D01*
X472696Y50755D01*
X472652Y50784D01*
X472614Y50820D01*
X472549Y50850D01*
X472489Y50888D01*
X472438Y50901D01*
X472391Y50923D01*
X472320Y50931D01*
X472250Y50949D01*
X472198Y50944D01*
X472147Y50950D01*
X472076Y50935D01*
X472005Y50929D01*
X471957Y50909D01*
X471906Y50898D01*
X471845Y50861D01*
X471779Y50833D01*
X471723Y50788D01*
X471695Y50772D01*
X471680Y50754D01*
X471648Y50728D01*
X467055Y46135D01*
X459545Y46135D01*
X454944Y50736D01*
X454886Y50778D01*
X454834Y50828D01*
X454787Y50849D01*
X454745Y50880D01*
X454676Y50901D01*
X454611Y50931D01*
X454559Y50937D01*
X454509Y50952D01*
X454438Y50950D01*
X454367Y50958D01*
X454316Y50947D01*
X454264Y50946D01*
X454196Y50921D01*
X454126Y50906D01*
X454081Y50879D01*
X454033Y50861D01*
X453977Y50817D01*
X453915Y50780D01*
X453881Y50740D01*
X453841Y50708D01*
X453802Y50647D01*
X453755Y50593D01*
X453736Y50545D01*
X453708Y50501D01*
X453690Y50431D01*
X453663Y50365D01*
X453655Y50293D01*
X453647Y50262D01*
X453649Y50239D01*
X453645Y50198D01*
X453645Y48617D01*
X451413Y46385D01*
X443312Y38284D01*
X443300Y38268D01*
X443285Y38256D01*
X443228Y38168D01*
X443168Y38085D01*
X443162Y38066D01*
X443152Y38049D01*
X443126Y37948D01*
X443096Y37850D01*
X443096Y37830D01*
X443091Y37810D01*
X443099Y37707D01*
X443102Y37604D01*
X443109Y37585D01*
X443111Y37565D01*
X443151Y37470D01*
X443187Y37373D01*
X443199Y37357D01*
X443207Y37339D01*
X443312Y37208D01*
X446965Y33555D01*
X446965Y26045D01*
X441655Y20735D01*
X434145Y20735D01*
G37*
%LPD*%
%LPC*%
G36*
X510345Y46135D02*
X510345Y46135D01*
X505035Y51445D01*
X505035Y58955D01*
X510345Y64265D01*
X517999Y64265D01*
X518089Y64279D01*
X518180Y64287D01*
X518210Y64299D01*
X518242Y64304D01*
X518322Y64347D01*
X518406Y64383D01*
X518438Y64409D01*
X518459Y64420D01*
X518481Y64443D01*
X518537Y64488D01*
X559079Y105030D01*
X696764Y105030D01*
X696854Y105044D01*
X696945Y105052D01*
X696975Y105064D01*
X697007Y105069D01*
X697087Y105112D01*
X697171Y105148D01*
X697203Y105174D01*
X697224Y105185D01*
X697246Y105208D01*
X697302Y105253D01*
X711577Y119527D01*
X711588Y119543D01*
X711604Y119556D01*
X711660Y119643D01*
X711720Y119727D01*
X711726Y119746D01*
X711737Y119763D01*
X711762Y119863D01*
X711793Y119962D01*
X711792Y119982D01*
X711797Y120001D01*
X711789Y120104D01*
X711786Y120208D01*
X711779Y120227D01*
X711778Y120246D01*
X711738Y120341D01*
X711702Y120439D01*
X711689Y120455D01*
X711682Y120473D01*
X711577Y120604D01*
X710935Y121245D01*
X710935Y128755D01*
X716245Y134065D01*
X723755Y134065D01*
X729065Y128755D01*
X729065Y121245D01*
X723755Y115935D01*
X718001Y115935D01*
X717911Y115921D01*
X717820Y115913D01*
X717790Y115901D01*
X717758Y115896D01*
X717678Y115853D01*
X717594Y115817D01*
X717562Y115791D01*
X717541Y115780D01*
X717519Y115757D01*
X717463Y115712D01*
X699921Y98170D01*
X562236Y98170D01*
X562146Y98156D01*
X562055Y98148D01*
X562025Y98136D01*
X561993Y98131D01*
X561913Y98088D01*
X561829Y98052D01*
X561797Y98026D01*
X561776Y98015D01*
X561754Y97992D01*
X561698Y97947D01*
X523388Y59637D01*
X523335Y59563D01*
X523275Y59494D01*
X523263Y59464D01*
X523244Y59438D01*
X523217Y59351D01*
X523183Y59266D01*
X523179Y59225D01*
X523172Y59202D01*
X523173Y59170D01*
X523165Y59099D01*
X523165Y51445D01*
X517855Y46135D01*
X510345Y46135D01*
G37*
%LPD*%
%LPC*%
G36*
X281745Y46135D02*
X281745Y46135D01*
X276435Y51445D01*
X276435Y59099D01*
X276421Y59189D01*
X276413Y59280D01*
X276401Y59310D01*
X276396Y59342D01*
X276353Y59422D01*
X276317Y59506D01*
X276291Y59538D01*
X276280Y59559D01*
X276257Y59581D01*
X276212Y59637D01*
X214788Y121061D01*
X214714Y121114D01*
X214645Y121174D01*
X214615Y121186D01*
X214589Y121205D01*
X214502Y121232D01*
X214417Y121266D01*
X214376Y121270D01*
X214353Y121277D01*
X214321Y121276D01*
X214250Y121284D01*
X129419Y121284D01*
X129329Y121270D01*
X129238Y121262D01*
X129208Y121250D01*
X129176Y121245D01*
X129096Y121202D01*
X129012Y121166D01*
X128980Y121140D01*
X128959Y121129D01*
X128937Y121106D01*
X128881Y121061D01*
X123755Y115935D01*
X116245Y115935D01*
X110935Y121245D01*
X110935Y128755D01*
X116245Y134065D01*
X123755Y134065D01*
X129094Y128725D01*
X129104Y128662D01*
X129114Y128645D01*
X129118Y128625D01*
X129171Y128536D01*
X129220Y128445D01*
X129234Y128431D01*
X129244Y128414D01*
X129323Y128347D01*
X129398Y128275D01*
X129416Y128267D01*
X129431Y128254D01*
X129527Y128215D01*
X129621Y128172D01*
X129641Y128170D01*
X129659Y128162D01*
X129826Y128144D01*
X217407Y128144D01*
X281063Y64488D01*
X281137Y64435D01*
X281206Y64375D01*
X281236Y64363D01*
X281262Y64344D01*
X281349Y64317D01*
X281434Y64283D01*
X281475Y64279D01*
X281498Y64272D01*
X281530Y64273D01*
X281601Y64265D01*
X289255Y64265D01*
X294565Y58955D01*
X294565Y51445D01*
X289255Y46135D01*
X281745Y46135D01*
G37*
%LPD*%
%LPC*%
G36*
X611288Y180395D02*
X611288Y180395D01*
X610395Y181288D01*
X610395Y218712D01*
X611288Y219605D01*
X648712Y219605D01*
X649605Y218712D01*
X649605Y181288D01*
X648712Y180395D01*
X611288Y180395D01*
G37*
%LPD*%
%LPC*%
G36*
X141288Y180395D02*
X141288Y180395D01*
X140395Y181288D01*
X140395Y218712D01*
X141288Y219605D01*
X178712Y219605D01*
X179605Y218712D01*
X179605Y181288D01*
X178712Y180395D01*
X141288Y180395D01*
G37*
%LPD*%
%LPC*%
G36*
X211288Y180395D02*
X211288Y180395D01*
X210395Y181288D01*
X210395Y218712D01*
X211288Y219605D01*
X248712Y219605D01*
X249605Y218712D01*
X249605Y181288D01*
X248712Y180395D01*
X211288Y180395D01*
G37*
%LPD*%
%LPC*%
G36*
X411288Y180395D02*
X411288Y180395D01*
X410395Y181288D01*
X410395Y218712D01*
X411288Y219605D01*
X448712Y219605D01*
X449605Y218712D01*
X449605Y181288D01*
X448712Y180395D01*
X411288Y180395D01*
G37*
%LPD*%
%LPC*%
G36*
X141288Y380395D02*
X141288Y380395D01*
X140395Y381288D01*
X140395Y418712D01*
X141288Y419605D01*
X178712Y419605D01*
X179605Y418712D01*
X179605Y381288D01*
X178712Y380395D01*
X141288Y380395D01*
G37*
%LPD*%
%LPC*%
G36*
X611288Y380395D02*
X611288Y380395D01*
X610395Y381288D01*
X610395Y418712D01*
X611288Y419605D01*
X648712Y419605D01*
X649605Y418712D01*
X649605Y381288D01*
X648712Y380395D01*
X611288Y380395D01*
G37*
%LPD*%
%LPC*%
G36*
X211288Y380395D02*
X211288Y380395D01*
X210395Y381288D01*
X210395Y418712D01*
X211288Y419605D01*
X248712Y419605D01*
X249605Y418712D01*
X249605Y381288D01*
X248712Y380395D01*
X211288Y380395D01*
G37*
%LPD*%
%LPC*%
G36*
X341288Y380395D02*
X341288Y380395D01*
X340395Y381288D01*
X340395Y418712D01*
X341288Y419605D01*
X378712Y419605D01*
X379605Y418712D01*
X379605Y381288D01*
X378712Y380395D01*
X341288Y380395D01*
G37*
%LPD*%
%LPC*%
G36*
X411288Y380395D02*
X411288Y380395D01*
X410395Y381288D01*
X410395Y418712D01*
X411288Y419605D01*
X448712Y419605D01*
X449605Y418712D01*
X449605Y381288D01*
X448712Y380395D01*
X411288Y380395D01*
G37*
%LPD*%
%LPC*%
G36*
X541288Y180395D02*
X541288Y180395D01*
X540395Y181288D01*
X540395Y218712D01*
X541288Y219605D01*
X578712Y219605D01*
X579605Y218712D01*
X579605Y181288D01*
X578712Y180395D01*
X541288Y180395D01*
G37*
%LPD*%
%LPC*%
G36*
X541288Y380395D02*
X541288Y380395D01*
X540395Y381288D01*
X540395Y418712D01*
X541288Y419605D01*
X578712Y419605D01*
X579605Y418712D01*
X579605Y381288D01*
X578712Y380395D01*
X541288Y380395D01*
G37*
%LPD*%
%LPC*%
G36*
X266245Y315935D02*
X266245Y315935D01*
X260935Y321245D01*
X260935Y328755D01*
X266222Y334042D01*
X266275Y334116D01*
X266335Y334185D01*
X266347Y334215D01*
X266366Y334242D01*
X266393Y334328D01*
X266427Y334413D01*
X266431Y334454D01*
X266438Y334477D01*
X266437Y334509D01*
X266445Y334580D01*
X266445Y344321D01*
X268454Y346330D01*
X335335Y346330D01*
X335425Y346344D01*
X335516Y346352D01*
X335545Y346364D01*
X335577Y346369D01*
X335658Y346412D01*
X335742Y346448D01*
X335774Y346474D01*
X335795Y346485D01*
X335817Y346508D01*
X335873Y346553D01*
X337527Y348207D01*
X341923Y348207D01*
X345032Y345098D01*
X345032Y340702D01*
X341923Y337593D01*
X337527Y337593D01*
X335873Y339247D01*
X335799Y339300D01*
X335729Y339360D01*
X335699Y339372D01*
X335673Y339391D01*
X335586Y339418D01*
X335501Y339452D01*
X335460Y339456D01*
X335438Y339463D01*
X335406Y339462D01*
X335335Y339470D01*
X274066Y339470D01*
X274046Y339467D01*
X274027Y339469D01*
X273925Y339447D01*
X273823Y339431D01*
X273806Y339421D01*
X273786Y339417D01*
X273697Y339364D01*
X273606Y339315D01*
X273592Y339301D01*
X273575Y339291D01*
X273508Y339212D01*
X273436Y339137D01*
X273428Y339119D01*
X273415Y339104D01*
X273376Y339008D01*
X273333Y338914D01*
X273331Y338894D01*
X273323Y338876D01*
X273305Y338709D01*
X273305Y334826D01*
X273308Y334806D01*
X273306Y334787D01*
X273327Y334687D01*
X273331Y334645D01*
X273337Y334631D01*
X273344Y334583D01*
X273354Y334566D01*
X273358Y334546D01*
X273409Y334461D01*
X273427Y334419D01*
X273441Y334402D01*
X273460Y334366D01*
X273474Y334352D01*
X273484Y334335D01*
X273515Y334309D01*
X273532Y334288D01*
X279065Y328755D01*
X279065Y321245D01*
X273755Y315935D01*
X266245Y315935D01*
G37*
%LPD*%
%LPC*%
G36*
X561145Y46135D02*
X561145Y46135D01*
X555835Y51445D01*
X555835Y58955D01*
X561145Y64265D01*
X568655Y64265D01*
X573965Y58955D01*
X573965Y51445D01*
X568655Y46135D01*
X561145Y46135D01*
G37*
%LPD*%
%LPC*%
G36*
X357945Y46135D02*
X357945Y46135D01*
X352635Y51445D01*
X352635Y58955D01*
X357945Y64265D01*
X365455Y64265D01*
X370765Y58955D01*
X370765Y51445D01*
X365455Y46135D01*
X357945Y46135D01*
G37*
%LPD*%
%LPC*%
G36*
X561145Y20735D02*
X561145Y20735D01*
X555835Y26045D01*
X555835Y33555D01*
X561145Y38865D01*
X568655Y38865D01*
X573965Y33555D01*
X573965Y26045D01*
X568655Y20735D01*
X561145Y20735D01*
G37*
%LPD*%
%LPC*%
G36*
X535745Y20735D02*
X535745Y20735D01*
X530435Y26045D01*
X530435Y33555D01*
X535745Y38865D01*
X543255Y38865D01*
X548565Y33555D01*
X548565Y26045D01*
X543255Y20735D01*
X535745Y20735D01*
G37*
%LPD*%
%LPC*%
G36*
X716245Y315935D02*
X716245Y315935D01*
X710935Y321245D01*
X710935Y328755D01*
X716245Y334065D01*
X723755Y334065D01*
X729065Y328755D01*
X729065Y321245D01*
X723755Y315935D01*
X716245Y315935D01*
G37*
%LPD*%
%LPC*%
G36*
X316245Y315935D02*
X316245Y315935D01*
X310935Y321245D01*
X310935Y328755D01*
X316245Y334065D01*
X323755Y334065D01*
X329065Y328755D01*
X329065Y321245D01*
X323755Y315935D01*
X316245Y315935D01*
G37*
%LPD*%
%LPC*%
G36*
X516245Y315935D02*
X516245Y315935D01*
X510935Y321245D01*
X510935Y328755D01*
X516245Y334065D01*
X523755Y334065D01*
X529065Y328755D01*
X529065Y321245D01*
X523755Y315935D01*
X516245Y315935D01*
G37*
%LPD*%
%LPC*%
G36*
X666245Y315935D02*
X666245Y315935D01*
X660935Y321245D01*
X660935Y328755D01*
X666245Y334065D01*
X673755Y334065D01*
X679065Y328755D01*
X679065Y321245D01*
X673755Y315935D01*
X666245Y315935D01*
G37*
%LPD*%
%LPC*%
G36*
X66245Y460935D02*
X66245Y460935D01*
X60935Y466245D01*
X60935Y473755D01*
X66245Y479065D01*
X73755Y479065D01*
X79065Y473755D01*
X79065Y466245D01*
X73755Y460935D01*
X66245Y460935D01*
G37*
%LPD*%
%LPC*%
G36*
X466245Y460935D02*
X466245Y460935D01*
X460935Y466245D01*
X460935Y473755D01*
X466245Y479065D01*
X473755Y479065D01*
X479065Y473755D01*
X479065Y466245D01*
X473755Y460935D01*
X466245Y460935D01*
G37*
%LPD*%
%LPC*%
G36*
X266245Y460935D02*
X266245Y460935D01*
X260935Y466245D01*
X260935Y473755D01*
X266245Y479065D01*
X273755Y479065D01*
X279065Y473755D01*
X279065Y466245D01*
X273755Y460935D01*
X266245Y460935D01*
G37*
%LPD*%
%LPC*%
G36*
X666245Y460935D02*
X666245Y460935D01*
X660935Y466245D01*
X660935Y473755D01*
X666245Y479065D01*
X673755Y479065D01*
X679065Y473755D01*
X679065Y466245D01*
X673755Y460935D01*
X666245Y460935D01*
G37*
%LPD*%
%LPC*%
G36*
X510345Y20735D02*
X510345Y20735D01*
X505035Y26045D01*
X505035Y33555D01*
X510345Y38865D01*
X517855Y38865D01*
X523165Y33555D01*
X523165Y26045D01*
X517855Y20735D01*
X510345Y20735D01*
G37*
%LPD*%
%LPC*%
G36*
X484945Y20735D02*
X484945Y20735D01*
X479635Y26045D01*
X479635Y33555D01*
X484945Y38865D01*
X492455Y38865D01*
X497765Y33555D01*
X497765Y26045D01*
X492455Y20735D01*
X484945Y20735D01*
G37*
%LPD*%
%LPC*%
G36*
X408745Y20735D02*
X408745Y20735D01*
X403435Y26045D01*
X403435Y33555D01*
X408745Y38865D01*
X416255Y38865D01*
X421565Y33555D01*
X421565Y26045D01*
X416255Y20735D01*
X408745Y20735D01*
G37*
%LPD*%
%LPC*%
G36*
X383345Y20735D02*
X383345Y20735D01*
X378035Y26045D01*
X378035Y33555D01*
X383345Y38865D01*
X390855Y38865D01*
X396165Y33555D01*
X396165Y26045D01*
X390855Y20735D01*
X383345Y20735D01*
G37*
%LPD*%
%LPC*%
G36*
X307145Y20735D02*
X307145Y20735D01*
X301835Y26045D01*
X301835Y33555D01*
X307145Y38865D01*
X314655Y38865D01*
X319965Y33555D01*
X319965Y26045D01*
X314655Y20735D01*
X307145Y20735D01*
G37*
%LPD*%
%LPC*%
G36*
X281745Y20735D02*
X281745Y20735D01*
X276435Y26045D01*
X276435Y33555D01*
X281745Y38865D01*
X289255Y38865D01*
X294565Y33555D01*
X294565Y26045D01*
X289255Y20735D01*
X281745Y20735D01*
G37*
%LPD*%
%LPC*%
G36*
X256345Y20735D02*
X256345Y20735D01*
X251035Y26045D01*
X251035Y33555D01*
X256345Y38865D01*
X263855Y38865D01*
X269165Y33555D01*
X269165Y26045D01*
X263855Y20735D01*
X256345Y20735D01*
G37*
%LPD*%
%LPC*%
G36*
X408745Y46135D02*
X408745Y46135D01*
X403435Y51445D01*
X403435Y58955D01*
X408745Y64265D01*
X416255Y64265D01*
X421565Y58955D01*
X421565Y51445D01*
X416255Y46135D01*
X408745Y46135D01*
G37*
%LPD*%
%LPC*%
G36*
X666245Y260935D02*
X666245Y260935D01*
X660935Y266245D01*
X660935Y273755D01*
X666245Y279065D01*
X673755Y279065D01*
X679065Y273755D01*
X679065Y266245D01*
X673755Y260935D01*
X666245Y260935D01*
G37*
%LPD*%
%LPC*%
G36*
X66245Y260935D02*
X66245Y260935D01*
X60935Y266245D01*
X60935Y273755D01*
X66245Y279065D01*
X73755Y279065D01*
X79065Y273755D01*
X79065Y266245D01*
X73755Y260935D01*
X66245Y260935D01*
G37*
%LPD*%
%LPC*%
G36*
X666245Y115935D02*
X666245Y115935D01*
X660935Y121245D01*
X660935Y128755D01*
X666245Y134065D01*
X673755Y134065D01*
X679065Y128755D01*
X679065Y121245D01*
X673755Y115935D01*
X666245Y115935D01*
G37*
%LPD*%
%LPC*%
G36*
X516245Y115935D02*
X516245Y115935D01*
X510935Y121245D01*
X510935Y128755D01*
X516245Y134065D01*
X523755Y134065D01*
X529065Y128755D01*
X529065Y121245D01*
X523755Y115935D01*
X516245Y115935D01*
G37*
%LPD*%
%LPC*%
G36*
X316245Y115935D02*
X316245Y115935D01*
X310935Y121245D01*
X310935Y128755D01*
X316245Y134065D01*
X323755Y134065D01*
X329065Y128755D01*
X329065Y121245D01*
X323755Y115935D01*
X316245Y115935D01*
G37*
%LPD*%
%LPC*%
G36*
X66245Y115935D02*
X66245Y115935D01*
X60935Y121245D01*
X60935Y128755D01*
X66245Y134065D01*
X73755Y134065D01*
X79065Y128755D01*
X79065Y121245D01*
X73755Y115935D01*
X66245Y115935D01*
G37*
%LPD*%
%LPC*%
G36*
X383345Y46135D02*
X383345Y46135D01*
X378035Y51445D01*
X378035Y58955D01*
X383345Y64265D01*
X390855Y64265D01*
X396165Y58955D01*
X396165Y51445D01*
X390855Y46135D01*
X383345Y46135D01*
G37*
%LPD*%
%LPC*%
G36*
X535745Y46135D02*
X535745Y46135D01*
X530435Y51445D01*
X530435Y58955D01*
X535745Y64265D01*
X543255Y64265D01*
X548565Y58955D01*
X548565Y51445D01*
X543255Y46135D01*
X535745Y46135D01*
G37*
%LPD*%
%LPC*%
G36*
X521523Y471523D02*
X521523Y471523D01*
X521523Y480081D01*
X524176Y480081D01*
X530081Y474176D01*
X530081Y471523D01*
X521523Y471523D01*
G37*
%LPD*%
%LPC*%
G36*
X321523Y471523D02*
X321523Y471523D01*
X321523Y480081D01*
X324176Y480081D01*
X330081Y474176D01*
X330081Y471523D01*
X321523Y471523D01*
G37*
%LPD*%
%LPC*%
G36*
X121523Y471523D02*
X121523Y471523D01*
X121523Y480081D01*
X124176Y480081D01*
X130081Y474176D01*
X130081Y471523D01*
X121523Y471523D01*
G37*
%LPD*%
%LPC*%
G36*
X721523Y471523D02*
X721523Y471523D01*
X721523Y480081D01*
X724176Y480081D01*
X730081Y474176D01*
X730081Y471523D01*
X721523Y471523D01*
G37*
%LPD*%
%LPC*%
G36*
X721523Y271523D02*
X721523Y271523D01*
X721523Y280081D01*
X724176Y280081D01*
X730081Y274176D01*
X730081Y271523D01*
X721523Y271523D01*
G37*
%LPD*%
%LPC*%
G36*
X321523Y271523D02*
X321523Y271523D01*
X321523Y280081D01*
X324176Y280081D01*
X330081Y274176D01*
X330081Y271523D01*
X321523Y271523D01*
G37*
%LPD*%
%LPC*%
G36*
X521523Y271523D02*
X521523Y271523D01*
X521523Y280081D01*
X524176Y280081D01*
X530081Y274176D01*
X530081Y271523D01*
X521523Y271523D01*
G37*
%LPD*%
%LPC*%
G36*
X121523Y271523D02*
X121523Y271523D01*
X121523Y280081D01*
X124176Y280081D01*
X130081Y274176D01*
X130081Y271523D01*
X121523Y271523D01*
G37*
%LPD*%
%LPC*%
G36*
X696523Y126523D02*
X696523Y126523D01*
X696523Y135081D01*
X699176Y135081D01*
X705081Y129176D01*
X705081Y126523D01*
X696523Y126523D01*
G37*
%LPD*%
%LPC*%
G36*
X496523Y126523D02*
X496523Y126523D01*
X496523Y135081D01*
X499176Y135081D01*
X505081Y129176D01*
X505081Y126523D01*
X496523Y126523D01*
G37*
%LPD*%
%LPC*%
G36*
X261623Y56723D02*
X261623Y56723D01*
X261623Y65281D01*
X264276Y65281D01*
X270181Y59376D01*
X270181Y56723D01*
X261623Y56723D01*
G37*
%LPD*%
%LPC*%
G36*
X96523Y326523D02*
X96523Y326523D01*
X96523Y335081D01*
X99176Y335081D01*
X105081Y329176D01*
X105081Y326523D01*
X96523Y326523D01*
G37*
%LPD*%
%LPC*%
G36*
X496523Y326523D02*
X496523Y326523D01*
X496523Y335081D01*
X499176Y335081D01*
X505081Y329176D01*
X505081Y326523D01*
X496523Y326523D01*
G37*
%LPD*%
%LPC*%
G36*
X696523Y326523D02*
X696523Y326523D01*
X696523Y335081D01*
X699176Y335081D01*
X705081Y329176D01*
X705081Y326523D01*
X696523Y326523D01*
G37*
%LPD*%
%LPC*%
G36*
X296523Y326523D02*
X296523Y326523D01*
X296523Y335081D01*
X299176Y335081D01*
X305081Y329176D01*
X305081Y326523D01*
X296523Y326523D01*
G37*
%LPD*%
%LPC*%
G36*
X96523Y126523D02*
X96523Y126523D01*
X96523Y135081D01*
X99176Y135081D01*
X105081Y129176D01*
X105081Y126523D01*
X96523Y126523D01*
G37*
%LPD*%
%LPC*%
G36*
X296523Y126523D02*
X296523Y126523D01*
X296523Y135081D01*
X299176Y135081D01*
X305081Y129176D01*
X305081Y126523D01*
X296523Y126523D01*
G37*
%LPD*%
%LPC*%
G36*
X109919Y471523D02*
X109919Y471523D01*
X109919Y474176D01*
X115824Y480081D01*
X118477Y480081D01*
X118477Y471523D01*
X109919Y471523D01*
G37*
%LPD*%
%LPC*%
G36*
X709919Y471523D02*
X709919Y471523D01*
X709919Y474176D01*
X715824Y480081D01*
X718477Y480081D01*
X718477Y471523D01*
X709919Y471523D01*
G37*
%LPD*%
%LPC*%
G36*
X509919Y471523D02*
X509919Y471523D01*
X509919Y474176D01*
X515824Y480081D01*
X518477Y480081D01*
X518477Y471523D01*
X509919Y471523D01*
G37*
%LPD*%
%LPC*%
G36*
X309919Y471523D02*
X309919Y471523D01*
X309919Y474176D01*
X315824Y480081D01*
X318477Y480081D01*
X318477Y471523D01*
X309919Y471523D01*
G37*
%LPD*%
%LPC*%
G36*
X709919Y271523D02*
X709919Y271523D01*
X709919Y274176D01*
X715824Y280081D01*
X718477Y280081D01*
X718477Y271523D01*
X709919Y271523D01*
G37*
%LPD*%
%LPC*%
G36*
X250019Y56723D02*
X250019Y56723D01*
X250019Y59376D01*
X255924Y65281D01*
X258577Y65281D01*
X258577Y56723D01*
X250019Y56723D01*
G37*
%LPD*%
%LPC*%
G36*
X309919Y271523D02*
X309919Y271523D01*
X309919Y274176D01*
X315824Y280081D01*
X318477Y280081D01*
X318477Y271523D01*
X309919Y271523D01*
G37*
%LPD*%
%LPC*%
G36*
X109919Y271523D02*
X109919Y271523D01*
X109919Y274176D01*
X115824Y280081D01*
X118477Y280081D01*
X118477Y271523D01*
X109919Y271523D01*
G37*
%LPD*%
%LPC*%
G36*
X509919Y271523D02*
X509919Y271523D01*
X509919Y274176D01*
X515824Y280081D01*
X518477Y280081D01*
X518477Y271523D01*
X509919Y271523D01*
G37*
%LPD*%
%LPC*%
G36*
X284919Y326523D02*
X284919Y326523D01*
X284919Y329176D01*
X290824Y335081D01*
X293477Y335081D01*
X293477Y326523D01*
X284919Y326523D01*
G37*
%LPD*%
%LPC*%
G36*
X84919Y326523D02*
X84919Y326523D01*
X84919Y329176D01*
X90824Y335081D01*
X93477Y335081D01*
X93477Y326523D01*
X84919Y326523D01*
G37*
%LPD*%
%LPC*%
G36*
X484919Y326523D02*
X484919Y326523D01*
X484919Y329176D01*
X490824Y335081D01*
X493477Y335081D01*
X493477Y326523D01*
X484919Y326523D01*
G37*
%LPD*%
%LPC*%
G36*
X684919Y326523D02*
X684919Y326523D01*
X684919Y329176D01*
X690824Y335081D01*
X693477Y335081D01*
X693477Y326523D01*
X684919Y326523D01*
G37*
%LPD*%
%LPC*%
G36*
X84919Y126523D02*
X84919Y126523D01*
X84919Y129176D01*
X90824Y135081D01*
X93477Y135081D01*
X93477Y126523D01*
X84919Y126523D01*
G37*
%LPD*%
%LPC*%
G36*
X684919Y126523D02*
X684919Y126523D01*
X684919Y129176D01*
X690824Y135081D01*
X693477Y135081D01*
X693477Y126523D01*
X684919Y126523D01*
G37*
%LPD*%
%LPC*%
G36*
X121523Y259919D02*
X121523Y259919D01*
X121523Y268477D01*
X130081Y268477D01*
X130081Y265824D01*
X124176Y259919D01*
X121523Y259919D01*
G37*
%LPD*%
%LPC*%
G36*
X121523Y459919D02*
X121523Y459919D01*
X121523Y468477D01*
X130081Y468477D01*
X130081Y465824D01*
X124176Y459919D01*
X121523Y459919D01*
G37*
%LPD*%
%LPC*%
G36*
X521523Y459919D02*
X521523Y459919D01*
X521523Y468477D01*
X530081Y468477D01*
X530081Y465824D01*
X524176Y459919D01*
X521523Y459919D01*
G37*
%LPD*%
%LPC*%
G36*
X721523Y459919D02*
X721523Y459919D01*
X721523Y468477D01*
X730081Y468477D01*
X730081Y465824D01*
X724176Y459919D01*
X721523Y459919D01*
G37*
%LPD*%
%LPC*%
G36*
X696523Y314919D02*
X696523Y314919D01*
X696523Y323477D01*
X705081Y323477D01*
X705081Y320824D01*
X699176Y314919D01*
X696523Y314919D01*
G37*
%LPD*%
%LPC*%
G36*
X496523Y314919D02*
X496523Y314919D01*
X496523Y323477D01*
X505081Y323477D01*
X505081Y320824D01*
X499176Y314919D01*
X496523Y314919D01*
G37*
%LPD*%
%LPC*%
G36*
X321523Y459919D02*
X321523Y459919D01*
X321523Y468477D01*
X330081Y468477D01*
X330081Y465824D01*
X324176Y459919D01*
X321523Y459919D01*
G37*
%LPD*%
%LPC*%
G36*
X696523Y114919D02*
X696523Y114919D01*
X696523Y123477D01*
X705081Y123477D01*
X705081Y120824D01*
X699176Y114919D01*
X696523Y114919D01*
G37*
%LPD*%
%LPC*%
G36*
X96523Y114919D02*
X96523Y114919D01*
X96523Y123477D01*
X105081Y123477D01*
X105081Y120824D01*
X99176Y114919D01*
X96523Y114919D01*
G37*
%LPD*%
%LPC*%
G36*
X296523Y114919D02*
X296523Y114919D01*
X296523Y123477D01*
X305081Y123477D01*
X305081Y120824D01*
X299176Y114919D01*
X296523Y114919D01*
G37*
%LPD*%
%LPC*%
G36*
X496523Y114919D02*
X496523Y114919D01*
X496523Y123477D01*
X505081Y123477D01*
X505081Y120824D01*
X499176Y114919D01*
X496523Y114919D01*
G37*
%LPD*%
%LPC*%
G36*
X321523Y259919D02*
X321523Y259919D01*
X321523Y268477D01*
X330081Y268477D01*
X330081Y265824D01*
X324176Y259919D01*
X321523Y259919D01*
G37*
%LPD*%
%LPC*%
G36*
X261623Y45119D02*
X261623Y45119D01*
X261623Y53677D01*
X270181Y53677D01*
X270181Y51024D01*
X264276Y45119D01*
X261623Y45119D01*
G37*
%LPD*%
%LPC*%
G36*
X296523Y314919D02*
X296523Y314919D01*
X296523Y323477D01*
X305081Y323477D01*
X305081Y320824D01*
X299176Y314919D01*
X296523Y314919D01*
G37*
%LPD*%
%LPC*%
G36*
X521523Y259919D02*
X521523Y259919D01*
X521523Y268477D01*
X530081Y268477D01*
X530081Y265824D01*
X524176Y259919D01*
X521523Y259919D01*
G37*
%LPD*%
%LPC*%
G36*
X721523Y259919D02*
X721523Y259919D01*
X721523Y268477D01*
X730081Y268477D01*
X730081Y265824D01*
X724176Y259919D01*
X721523Y259919D01*
G37*
%LPD*%
%LPC*%
G36*
X90824Y114919D02*
X90824Y114919D01*
X84919Y120824D01*
X84919Y123477D01*
X93477Y123477D01*
X93477Y114919D01*
X90824Y114919D01*
G37*
%LPD*%
%LPC*%
G36*
X315824Y459919D02*
X315824Y459919D01*
X309919Y465824D01*
X309919Y468477D01*
X318477Y468477D01*
X318477Y459919D01*
X315824Y459919D01*
G37*
%LPD*%
%LPC*%
G36*
X290824Y314919D02*
X290824Y314919D01*
X284919Y320824D01*
X284919Y323477D01*
X293477Y323477D01*
X293477Y314919D01*
X290824Y314919D01*
G37*
%LPD*%
%LPC*%
G36*
X315824Y259919D02*
X315824Y259919D01*
X309919Y265824D01*
X309919Y268477D01*
X318477Y268477D01*
X318477Y259919D01*
X315824Y259919D01*
G37*
%LPD*%
%LPC*%
G36*
X115824Y259919D02*
X115824Y259919D01*
X109919Y265824D01*
X109919Y268477D01*
X118477Y268477D01*
X118477Y259919D01*
X115824Y259919D01*
G37*
%LPD*%
%LPC*%
G36*
X115824Y459919D02*
X115824Y459919D01*
X109919Y465824D01*
X109919Y468477D01*
X118477Y468477D01*
X118477Y459919D01*
X115824Y459919D01*
G37*
%LPD*%
%LPC*%
G36*
X255924Y45119D02*
X255924Y45119D01*
X250019Y51024D01*
X250019Y53677D01*
X258577Y53677D01*
X258577Y45119D01*
X255924Y45119D01*
G37*
%LPD*%
%LPC*%
G36*
X490824Y314919D02*
X490824Y314919D01*
X484919Y320824D01*
X484919Y323477D01*
X493477Y323477D01*
X493477Y314919D01*
X490824Y314919D01*
G37*
%LPD*%
%LPC*%
G36*
X690824Y314919D02*
X690824Y314919D01*
X684919Y320824D01*
X684919Y323477D01*
X693477Y323477D01*
X693477Y314919D01*
X690824Y314919D01*
G37*
%LPD*%
%LPC*%
G36*
X690824Y114919D02*
X690824Y114919D01*
X684919Y120824D01*
X684919Y123477D01*
X693477Y123477D01*
X693477Y114919D01*
X690824Y114919D01*
G37*
%LPD*%
%LPC*%
G36*
X715824Y459919D02*
X715824Y459919D01*
X709919Y465824D01*
X709919Y468477D01*
X718477Y468477D01*
X718477Y459919D01*
X715824Y459919D01*
G37*
%LPD*%
%LPC*%
G36*
X515824Y459919D02*
X515824Y459919D01*
X509919Y465824D01*
X509919Y468477D01*
X518477Y468477D01*
X518477Y459919D01*
X515824Y459919D01*
G37*
%LPD*%
%LPC*%
G36*
X515824Y259919D02*
X515824Y259919D01*
X509919Y265824D01*
X509919Y268477D01*
X518477Y268477D01*
X518477Y259919D01*
X515824Y259919D01*
G37*
%LPD*%
%LPC*%
G36*
X715824Y259919D02*
X715824Y259919D01*
X709919Y265824D01*
X709919Y268477D01*
X718477Y268477D01*
X718477Y259919D01*
X715824Y259919D01*
G37*
%LPD*%
%LPC*%
G36*
X719999Y469999D02*
X719999Y469999D01*
X719999Y470001D01*
X720001Y470001D01*
X720001Y469999D01*
X719999Y469999D01*
G37*
%LPD*%
%LPC*%
G36*
X694999Y124999D02*
X694999Y124999D01*
X694999Y125001D01*
X695001Y125001D01*
X695001Y124999D01*
X694999Y124999D01*
G37*
%LPD*%
%LPC*%
G36*
X94999Y124999D02*
X94999Y124999D01*
X94999Y125001D01*
X95001Y125001D01*
X95001Y124999D01*
X94999Y124999D01*
G37*
%LPD*%
%LPC*%
G36*
X294999Y324999D02*
X294999Y324999D01*
X294999Y325001D01*
X295001Y325001D01*
X295001Y324999D01*
X294999Y324999D01*
G37*
%LPD*%
%LPC*%
G36*
X494999Y324999D02*
X494999Y324999D01*
X494999Y325001D01*
X495001Y325001D01*
X495001Y324999D01*
X494999Y324999D01*
G37*
%LPD*%
%LPC*%
G36*
X319999Y269999D02*
X319999Y269999D01*
X319999Y270001D01*
X320001Y270001D01*
X320001Y269999D01*
X319999Y269999D01*
G37*
%LPD*%
%LPC*%
G36*
X119999Y269999D02*
X119999Y269999D01*
X119999Y270001D01*
X120001Y270001D01*
X120001Y269999D01*
X119999Y269999D01*
G37*
%LPD*%
%LPC*%
G36*
X260099Y55199D02*
X260099Y55199D01*
X260099Y55201D01*
X260101Y55201D01*
X260101Y55199D01*
X260099Y55199D01*
G37*
%LPD*%
%LPC*%
G36*
X119999Y469999D02*
X119999Y469999D01*
X119999Y470001D01*
X120001Y470001D01*
X120001Y469999D01*
X119999Y469999D01*
G37*
%LPD*%
%LPC*%
G36*
X319999Y469999D02*
X319999Y469999D01*
X319999Y470001D01*
X320001Y470001D01*
X320001Y469999D01*
X319999Y469999D01*
G37*
%LPD*%
%LPC*%
G36*
X719999Y269999D02*
X719999Y269999D01*
X719999Y270001D01*
X720001Y270001D01*
X720001Y269999D01*
X719999Y269999D01*
G37*
%LPD*%
%LPC*%
G36*
X694999Y324999D02*
X694999Y324999D01*
X694999Y325001D01*
X695001Y325001D01*
X695001Y324999D01*
X694999Y324999D01*
G37*
%LPD*%
%LPC*%
G36*
X519999Y269999D02*
X519999Y269999D01*
X519999Y270001D01*
X520001Y270001D01*
X520001Y269999D01*
X519999Y269999D01*
G37*
%LPD*%
%LPC*%
G36*
X519999Y469999D02*
X519999Y469999D01*
X519999Y470001D01*
X520001Y470001D01*
X520001Y469999D01*
X519999Y469999D01*
G37*
%LPD*%
D10*
X670000Y325000D03*
X695000Y325000D03*
X720000Y325000D03*
X720000Y470000D03*
X670000Y470000D03*
D11*
X630000Y400000D03*
X760000Y400000D03*
D10*
X670000Y125000D03*
X695000Y125000D03*
X720000Y125000D03*
X720000Y270000D03*
X670000Y270000D03*
D11*
X630000Y200000D03*
X760000Y200000D03*
D10*
X470000Y325000D03*
X495000Y325000D03*
X520000Y325000D03*
X520000Y470000D03*
X470000Y470000D03*
D11*
X430000Y400000D03*
X560000Y400000D03*
D10*
X470000Y125000D03*
X495000Y125000D03*
X520000Y125000D03*
X520000Y270000D03*
X470000Y270000D03*
D11*
X430000Y200000D03*
X560000Y200000D03*
D10*
X270000Y325000D03*
X295000Y325000D03*
X320000Y325000D03*
X320000Y470000D03*
X270000Y470000D03*
D11*
X230000Y400000D03*
X360000Y400000D03*
D10*
X270000Y125000D03*
X295000Y125000D03*
X320000Y125000D03*
X320000Y270000D03*
X270000Y270000D03*
D11*
X230000Y200000D03*
X360000Y200000D03*
D10*
X70000Y325000D03*
X95000Y325000D03*
X120000Y325000D03*
X120000Y470000D03*
X70000Y470000D03*
D11*
X30000Y400000D03*
X160000Y400000D03*
D10*
X70000Y125000D03*
X95000Y125000D03*
X120000Y125000D03*
X120000Y270000D03*
X70000Y270000D03*
D11*
X30000Y200000D03*
X160000Y200000D03*
D12*
X564900Y55200D03*
X564900Y29800D03*
X539500Y55200D03*
X539500Y29800D03*
X514100Y55200D03*
X514100Y29800D03*
X488700Y55200D03*
X488700Y29800D03*
X463300Y55200D03*
X463300Y29800D03*
X437900Y55200D03*
X437900Y29800D03*
X412500Y55200D03*
X412500Y29800D03*
X387100Y55200D03*
X387100Y29800D03*
X361700Y55200D03*
X361700Y29800D03*
X336300Y55200D03*
X336300Y29800D03*
X310900Y55200D03*
X310900Y29800D03*
X285500Y55200D03*
X285500Y29800D03*
X260100Y55200D03*
X260100Y29800D03*
D13*
X514100Y55200D02*
X560500Y101600D01*
X698500Y101600D01*
X720000Y123100D01*
X720000Y125000D01*
X488700Y55200D02*
X482600Y61300D01*
X482600Y131550D01*
X494763Y143713D01*
X494763Y283667D01*
X470000Y308430D02*
X470000Y325000D01*
X470000Y308430D02*
X494763Y283667D01*
X464058Y35560D02*
X464058Y30480D01*
X464058Y35560D02*
X476377Y47879D01*
X476377Y118745D01*
X470122Y125000D01*
X470000Y125000D01*
D14*
X464058Y30480D02*
X463300Y29800D01*
D13*
X438150Y30480D02*
X438150Y37973D01*
X450215Y50038D01*
X450215Y152146D01*
X470000Y171931D02*
X470000Y270000D01*
X470000Y171931D02*
X450215Y152146D01*
D14*
X438150Y30480D02*
X437900Y29800D01*
D15*
X339725Y342900D03*
D13*
X269875Y342900D01*
X269875Y325125D01*
X270000Y325000D01*
X270510Y269748D02*
X270510Y141605D01*
D14*
X270510Y269748D02*
X270000Y270000D01*
D13*
X323850Y63500D02*
X323850Y47625D01*
X330200Y41275D01*
X282575Y129540D02*
X270510Y141605D01*
X282575Y129540D02*
X282575Y104775D01*
X323850Y63500D01*
X350225Y41275D02*
X361700Y29800D01*
X350225Y41275D02*
X330200Y41275D01*
X336042Y55626D02*
X336042Y227457D01*
X251968Y311531D02*
X83185Y311531D01*
X70104Y324612D01*
D14*
X336042Y55626D02*
X336300Y55200D01*
X70104Y324612D02*
X70000Y325000D01*
D13*
X251968Y311531D02*
X336042Y227457D01*
X215986Y124714D02*
X285500Y55200D01*
X215986Y124714D02*
X120286Y124714D01*
X120000Y125000D01*
M02*
