G04 EAGLE Gerber RS-274X export*
G75*
%MOMM*%
%FSLAX34Y34*%
%LPD*%
%IN*%
%IPPOS*%
%AMOC8*
5,1,8,0,0,1.08239X$1,22.5*%
G01*
%ADD10C,0.254000*%


D10*
X0Y0D02*
X790000Y0D01*
X790000Y560000D01*
X0Y560000D01*
X0Y0D01*
X56000Y39476D02*
X55932Y38431D01*
X55795Y37392D01*
X55590Y36365D01*
X55319Y35353D01*
X54983Y34361D01*
X54582Y33393D01*
X54118Y32454D01*
X53595Y31546D01*
X53013Y30675D01*
X52375Y29844D01*
X51684Y29057D01*
X50943Y28316D01*
X50156Y27625D01*
X49325Y26988D01*
X48454Y26406D01*
X47546Y25882D01*
X46607Y25418D01*
X45639Y25017D01*
X44647Y24681D01*
X43635Y24410D01*
X42608Y24205D01*
X41569Y24069D01*
X40524Y24000D01*
X39476Y24000D01*
X38431Y24069D01*
X37392Y24205D01*
X36365Y24410D01*
X35353Y24681D01*
X34361Y25017D01*
X33393Y25418D01*
X32454Y25882D01*
X31546Y26406D01*
X30675Y26988D01*
X29844Y27625D01*
X29057Y28316D01*
X28316Y29057D01*
X27625Y29844D01*
X26988Y30675D01*
X26406Y31546D01*
X25882Y32454D01*
X25418Y33393D01*
X25017Y34361D01*
X24681Y35353D01*
X24410Y36365D01*
X24205Y37392D01*
X24069Y38431D01*
X24000Y39476D01*
X24000Y40524D01*
X24069Y41569D01*
X24205Y42608D01*
X24410Y43635D01*
X24681Y44647D01*
X25017Y45639D01*
X25418Y46607D01*
X25882Y47546D01*
X26406Y48454D01*
X26988Y49325D01*
X27625Y50156D01*
X28316Y50943D01*
X29057Y51684D01*
X29844Y52375D01*
X30675Y53013D01*
X31546Y53595D01*
X32454Y54118D01*
X33393Y54582D01*
X34361Y54983D01*
X35353Y55319D01*
X36365Y55590D01*
X37392Y55795D01*
X38431Y55932D01*
X39476Y56000D01*
X40524Y56000D01*
X41569Y55932D01*
X42608Y55795D01*
X43635Y55590D01*
X44647Y55319D01*
X45639Y54983D01*
X46607Y54582D01*
X47546Y54118D01*
X48454Y53595D01*
X49325Y53013D01*
X50156Y52375D01*
X50943Y51684D01*
X51684Y50943D01*
X52375Y50156D01*
X53013Y49325D01*
X53595Y48454D01*
X54118Y47546D01*
X54582Y46607D01*
X54983Y45639D01*
X55319Y44647D01*
X55590Y43635D01*
X55795Y42608D01*
X55932Y41569D01*
X56000Y40524D01*
X56000Y39476D01*
X766000Y39476D02*
X765932Y38431D01*
X765795Y37392D01*
X765590Y36365D01*
X765319Y35353D01*
X764983Y34361D01*
X764582Y33393D01*
X764118Y32454D01*
X763595Y31546D01*
X763013Y30675D01*
X762375Y29844D01*
X761684Y29057D01*
X760943Y28316D01*
X760156Y27625D01*
X759325Y26988D01*
X758454Y26406D01*
X757546Y25882D01*
X756607Y25418D01*
X755639Y25017D01*
X754647Y24681D01*
X753635Y24410D01*
X752608Y24205D01*
X751569Y24069D01*
X750524Y24000D01*
X749476Y24000D01*
X748431Y24069D01*
X747392Y24205D01*
X746365Y24410D01*
X745353Y24681D01*
X744361Y25017D01*
X743393Y25418D01*
X742454Y25882D01*
X741546Y26406D01*
X740675Y26988D01*
X739844Y27625D01*
X739057Y28316D01*
X738316Y29057D01*
X737625Y29844D01*
X736988Y30675D01*
X736406Y31546D01*
X735882Y32454D01*
X735418Y33393D01*
X735017Y34361D01*
X734681Y35353D01*
X734410Y36365D01*
X734205Y37392D01*
X734069Y38431D01*
X734000Y39476D01*
X734000Y40524D01*
X734069Y41569D01*
X734205Y42608D01*
X734410Y43635D01*
X734681Y44647D01*
X735017Y45639D01*
X735418Y46607D01*
X735882Y47546D01*
X736406Y48454D01*
X736988Y49325D01*
X737625Y50156D01*
X738316Y50943D01*
X739057Y51684D01*
X739844Y52375D01*
X740675Y53013D01*
X741546Y53595D01*
X742454Y54118D01*
X743393Y54582D01*
X744361Y54983D01*
X745353Y55319D01*
X746365Y55590D01*
X747392Y55795D01*
X748431Y55932D01*
X749476Y56000D01*
X750524Y56000D01*
X751569Y55932D01*
X752608Y55795D01*
X753635Y55590D01*
X754647Y55319D01*
X755639Y54983D01*
X756607Y54582D01*
X757546Y54118D01*
X758454Y53595D01*
X759325Y53013D01*
X760156Y52375D01*
X760943Y51684D01*
X761684Y50943D01*
X762375Y50156D01*
X763013Y49325D01*
X763595Y48454D01*
X764118Y47546D01*
X764582Y46607D01*
X764983Y45639D01*
X765319Y44647D01*
X765590Y43635D01*
X765795Y42608D01*
X765932Y41569D01*
X766000Y40524D01*
X766000Y39476D01*
X56000Y519476D02*
X55932Y518431D01*
X55795Y517392D01*
X55590Y516365D01*
X55319Y515353D01*
X54983Y514361D01*
X54582Y513393D01*
X54118Y512454D01*
X53595Y511546D01*
X53013Y510675D01*
X52375Y509844D01*
X51684Y509057D01*
X50943Y508316D01*
X50156Y507625D01*
X49325Y506988D01*
X48454Y506406D01*
X47546Y505882D01*
X46607Y505418D01*
X45639Y505017D01*
X44647Y504681D01*
X43635Y504410D01*
X42608Y504205D01*
X41569Y504069D01*
X40524Y504000D01*
X39476Y504000D01*
X38431Y504069D01*
X37392Y504205D01*
X36365Y504410D01*
X35353Y504681D01*
X34361Y505017D01*
X33393Y505418D01*
X32454Y505882D01*
X31546Y506406D01*
X30675Y506988D01*
X29844Y507625D01*
X29057Y508316D01*
X28316Y509057D01*
X27625Y509844D01*
X26988Y510675D01*
X26406Y511546D01*
X25882Y512454D01*
X25418Y513393D01*
X25017Y514361D01*
X24681Y515353D01*
X24410Y516365D01*
X24205Y517392D01*
X24069Y518431D01*
X24000Y519476D01*
X24000Y520524D01*
X24069Y521569D01*
X24205Y522608D01*
X24410Y523635D01*
X24681Y524647D01*
X25017Y525639D01*
X25418Y526607D01*
X25882Y527546D01*
X26406Y528454D01*
X26988Y529325D01*
X27625Y530156D01*
X28316Y530943D01*
X29057Y531684D01*
X29844Y532375D01*
X30675Y533013D01*
X31546Y533595D01*
X32454Y534118D01*
X33393Y534582D01*
X34361Y534983D01*
X35353Y535319D01*
X36365Y535590D01*
X37392Y535795D01*
X38431Y535932D01*
X39476Y536000D01*
X40524Y536000D01*
X41569Y535932D01*
X42608Y535795D01*
X43635Y535590D01*
X44647Y535319D01*
X45639Y534983D01*
X46607Y534582D01*
X47546Y534118D01*
X48454Y533595D01*
X49325Y533013D01*
X50156Y532375D01*
X50943Y531684D01*
X51684Y530943D01*
X52375Y530156D01*
X53013Y529325D01*
X53595Y528454D01*
X54118Y527546D01*
X54582Y526607D01*
X54983Y525639D01*
X55319Y524647D01*
X55590Y523635D01*
X55795Y522608D01*
X55932Y521569D01*
X56000Y520524D01*
X56000Y519476D01*
X766000Y519476D02*
X765932Y518431D01*
X765795Y517392D01*
X765590Y516365D01*
X765319Y515353D01*
X764983Y514361D01*
X764582Y513393D01*
X764118Y512454D01*
X763595Y511546D01*
X763013Y510675D01*
X762375Y509844D01*
X761684Y509057D01*
X760943Y508316D01*
X760156Y507625D01*
X759325Y506988D01*
X758454Y506406D01*
X757546Y505882D01*
X756607Y505418D01*
X755639Y505017D01*
X754647Y504681D01*
X753635Y504410D01*
X752608Y504205D01*
X751569Y504069D01*
X750524Y504000D01*
X749476Y504000D01*
X748431Y504069D01*
X747392Y504205D01*
X746365Y504410D01*
X745353Y504681D01*
X744361Y505017D01*
X743393Y505418D01*
X742454Y505882D01*
X741546Y506406D01*
X740675Y506988D01*
X739844Y507625D01*
X739057Y508316D01*
X738316Y509057D01*
X737625Y509844D01*
X736988Y510675D01*
X736406Y511546D01*
X735882Y512454D01*
X735418Y513393D01*
X735017Y514361D01*
X734681Y515353D01*
X734410Y516365D01*
X734205Y517392D01*
X734069Y518431D01*
X734000Y519476D01*
X734000Y520524D01*
X734069Y521569D01*
X734205Y522608D01*
X734410Y523635D01*
X734681Y524647D01*
X735017Y525639D01*
X735418Y526607D01*
X735882Y527546D01*
X736406Y528454D01*
X736988Y529325D01*
X737625Y530156D01*
X738316Y530943D01*
X739057Y531684D01*
X739844Y532375D01*
X740675Y533013D01*
X741546Y533595D01*
X742454Y534118D01*
X743393Y534582D01*
X744361Y534983D01*
X745353Y535319D01*
X746365Y535590D01*
X747392Y535795D01*
X748431Y535932D01*
X749476Y536000D01*
X750524Y536000D01*
X751569Y535932D01*
X752608Y535795D01*
X753635Y535590D01*
X754647Y535319D01*
X755639Y534983D01*
X756607Y534582D01*
X757546Y534118D01*
X758454Y533595D01*
X759325Y533013D01*
X760156Y532375D01*
X760943Y531684D01*
X761684Y530943D01*
X762375Y530156D01*
X763013Y529325D01*
X763595Y528454D01*
X764118Y527546D01*
X764582Y526607D01*
X764983Y525639D01*
X765319Y524647D01*
X765590Y523635D01*
X765795Y522608D01*
X765932Y521569D01*
X766000Y520524D01*
X766000Y519476D01*
M02*
