G04 EAGLE Gerber RS-274X export*
G75*
%MOMM*%
%FSLAX34Y34*%
%LPD*%
%INSoldermask Bottom*%
%IPPOS*%
%AMOC8*
5,1,8,0,0,1.08239X$1,22.5*%
G01*
%ADD10P,1.852186X8X22.500000*%
%ADD11R,3.819200X3.819200*%
%ADD12C,3.403200*%
%ADD13P,1.852186X8X202.500000*%
%ADD14C,0.959600*%


D10*
X670000Y325000D03*
X695000Y325000D03*
X720000Y325000D03*
X720000Y470000D03*
X670000Y470000D03*
D11*
X630000Y400000D03*
X760000Y400000D03*
D10*
X670000Y125000D03*
X695000Y125000D03*
X720000Y125000D03*
X720000Y270000D03*
X670000Y270000D03*
D11*
X630000Y200000D03*
X760000Y200000D03*
D10*
X470000Y325000D03*
X495000Y325000D03*
X520000Y325000D03*
X520000Y470000D03*
X470000Y470000D03*
D11*
X430000Y400000D03*
X560000Y400000D03*
D10*
X470000Y125000D03*
X495000Y125000D03*
X520000Y125000D03*
X520000Y270000D03*
X470000Y270000D03*
D11*
X430000Y200000D03*
X560000Y200000D03*
D10*
X270000Y325000D03*
X295000Y325000D03*
X320000Y325000D03*
X320000Y470000D03*
X270000Y470000D03*
D11*
X230000Y400000D03*
X360000Y400000D03*
D10*
X270000Y125000D03*
X295000Y125000D03*
X320000Y125000D03*
X320000Y270000D03*
X270000Y270000D03*
D11*
X230000Y200000D03*
X360000Y200000D03*
D10*
X70000Y325000D03*
X95000Y325000D03*
X120000Y325000D03*
X120000Y470000D03*
X70000Y470000D03*
D11*
X30000Y400000D03*
X160000Y400000D03*
D10*
X70000Y125000D03*
X95000Y125000D03*
X120000Y125000D03*
X120000Y270000D03*
X70000Y270000D03*
D11*
X30000Y200000D03*
X160000Y200000D03*
D12*
X40000Y40000D03*
X750000Y40000D03*
X40000Y520000D03*
X750000Y520000D03*
D13*
X564900Y55200D03*
X564900Y29800D03*
X539500Y55200D03*
X539500Y29800D03*
X514100Y55200D03*
X514100Y29800D03*
X488700Y55200D03*
X488700Y29800D03*
X463300Y55200D03*
X463300Y29800D03*
X437900Y55200D03*
X437900Y29800D03*
X412500Y55200D03*
X412500Y29800D03*
X387100Y55200D03*
X387100Y29800D03*
X361700Y55200D03*
X361700Y29800D03*
X336300Y55200D03*
X336300Y29800D03*
X310900Y55200D03*
X310900Y29800D03*
X285500Y55200D03*
X285500Y29800D03*
X260100Y55200D03*
X260100Y29800D03*
D14*
X339725Y342900D03*
M02*
